Charis-Bold.ufo
<glyph name="QuotMrk" format="2">
  <advance width="803"/>
  <unicode hex="0022"/>
  <outline>
    <contour>
      <point x="721" y="1333" type="line"/>
      <point x="721" y="1409"/>
      <point x="684" y="1462"/>
      <point x="600" y="1462" type="curve" smooth="yes"/>
      <point x="518" y="1462"/>
      <point x="483" y="1409"/>
      <point x="483" y="1333" type="curve"/>
      <point x="563" y="854" type="line"/>
      <point x="639" y="854" type="line"/>
    </contour>
    <contour>
      <point x="317" y="1333" type="line"/>
      <point x="317" y="1409"/>
      <point x="281" y="1462"/>
      <point x="199" y="1462" type="curve" smooth="yes"/>
      <point x="117" y="1462"/>
      <point x="82" y="1409"/>
      <point x="82" y="1333" type="curve"/>
      <point x="162" y="854" type="line"/>
      <point x="238" y="854" type="line"/>
    </contour>
  </outline>
</glyph>
<glyph name="PercentSgn" format="2">
  <advance width="1831"/>
  <unicode hex="0025"/>
  <outline>
    <contour>
      <point x="1772" y="395" type="curve" smooth="yes"/>
      <point x="1772" y="662"/>
      <point x="1653" y="823"/>
      <point x="1419" y="823" type="curve" smooth="yes"/>
      <point x="1186" y="823"/>
      <point x="1071" y="662"/>
      <point x="1071" y="395" type="curve" smooth="yes"/>
      <point x="1071" y="129"/>
      <point x="1186" y="-33"/>
      <point x="1419" y="-33" type="curve" smooth="yes"/>
      <point x="1653" y="-33"/>
      <point x="1772" y="129"/>
    </contour>
    <contour>
      <point x="1415" y="1374" type="line"/>
      <point x="1268" y="1374" type="line"/>
      <point x="418" y="0" type="line"/>
      <point x="563" y="0" type="line"/>
    </contour>
    <contour>
      <point x="762" y="979" type="curve" smooth="yes"/>
      <point x="762" y="1245"/>
      <point x="645" y="1407"/>
      <point x="412" y="1407" type="curve" smooth="yes"/>
      <point x="178" y="1407"/>
      <point x="59" y="1245"/>
      <point x="59" y="979" type="curve" smooth="yes"/>
      <point x="59" y="713"/>
      <point x="178" y="549"/>
      <point x="412" y="549" type="curve" smooth="yes"/>
      <point x="645" y="549"/>
      <point x="762" y="713"/>
    </contour>
    <contour>
      <point x="1548" y="395" type="curve" smooth="yes"/>
      <point x="1548" y="143"/>
      <point x="1495" y="63"/>
      <point x="1419" y="63" type="curve" smooth="yes"/>
      <point x="1346" y="63"/>
      <point x="1280" y="143"/>
      <point x="1280" y="395" type="curve" smooth="yes"/>
      <point x="1280" y="647"/>
      <point x="1346" y="727"/>
      <point x="1419" y="727" type="curve" smooth="yes"/>
      <point x="1495" y="727"/>
      <point x="1548" y="647"/>
    </contour>
    <contour>
      <point x="541" y="979" type="curve" smooth="yes"/>
      <point x="541" y="727"/>
      <point x="485" y="645"/>
      <point x="412" y="645" type="curve" smooth="yes"/>
      <point x="336" y="645"/>
      <point x="266" y="727"/>
      <point x="266" y="979" type="curve" smooth="yes"/>
      <point x="266" y="1231"/>
      <point x="336" y="1311"/>
      <point x="412" y="1311" type="curve" smooth="yes"/>
      <point x="485" y="1311"/>
      <point x="541" y="1231"/>
    </contour>
  </outline>
</glyph>
<glyph name="Comma" format="2">
  <advance width="651"/>
  <unicode hex="002C"/>
  <outline>
    <contour>
      <point x="496" y="121" type="curve" smooth="yes"/>
      <point x="496" y="240"/>
      <point x="424" y="317"/>
      <point x="301" y="317" type="curve" smooth="yes"/>
      <point x="213" y="317"/>
      <point x="129" y="248"/>
      <point x="129" y="145" type="curve" smooth="yes"/>
      <point x="129" y="104"/>
      <point x="143" y="53"/>
      <point x="193" y="14" type="curve"/>
      <point x="317" y="14" type="line"/>
      <point x="317" y="-178"/>
      <point x="186" y="-244"/>
      <point x="72" y="-260" type="curve"/>
      <point x="72" y="-360" type="line"/>
      <point x="268" y="-346"/>
      <point x="496" y="-133"/>
    </contour>
  </outline>
</glyph>
<glyph name="HyphenMinus" format="2">
  <advance width="672"/>
  <unicode hex="002D"/>
  <anchor x="336" y="1100" name="U"/>
  <outline>
    <contour>
      <point x="604" y="385" type="line"/>
      <point x="604" y="602" type="line"/>
      <point x="68" y="602" type="line"/>
      <point x="68" y="385" type="line"/>
    </contour>
  </outline>
</glyph>
<glyph name="FullStop" format="2">
  <advance width="651"/>
  <unicode hex="002E"/>
  <outline>
    <contour>
      <point x="471" y="145" type="curve" smooth="yes"/>
      <point x="471" y="240"/>
      <point x="397" y="317"/>
      <point x="301" y="317" type="curve" smooth="yes"/>
      <point x="207" y="317"/>
      <point x="129" y="240"/>
      <point x="129" y="145" type="curve" smooth="yes"/>
      <point x="129" y="51"/>
      <point x="207" y="-25"/>
      <point x="301" y="-25" type="curve" smooth="yes"/>
      <point x="397" y="-25"/>
      <point x="471" y="51"/>
    </contour>
  </outline>
</glyph>
<glyph name="DigitOne" format="2">
  <advance width="1202"/>
  <unicode hex="0031"/>
  <anchor x="595" y="-100" name="L"/>
  <anchor x="595" y="1500" name="U"/>
  <outline>
    <contour>
      <point x="952" y="0" type="line"/>
      <point x="952" y="106" type="line"/>
      <point x="791" y="113" type="line" smooth="yes"/>
      <point x="766" y="115"/>
      <point x="745" y="133"/>
      <point x="745" y="158" type="curve" smooth="yes"/>
      <point x="745" y="1407" type="line"/>
      <point x="594" y="1407" type="line"/>
      <point x="152" y="1247" type="line"/>
      <point x="152" y="1139" type="line"/>
      <point x="457" y="1182" type="line"/>
      <point x="457" y="158" type="line" smooth="yes"/>
      <point x="457" y="133"/>
      <point x="436" y="115"/>
      <point x="412" y="113" type="curve" smooth="yes"/>
      <point x="236" y="106" type="line"/>
      <point x="236" y="0" type="line"/>
    </contour>
  </outline>
</glyph>
<glyph name="DigitThree" format="2">
  <advance width="1202"/>
  <unicode hex="0033"/>
  <anchor x="600" y="-100" name="L"/>
  <anchor x="600" y="1500" name="U"/>
  <outline>
    <contour>
      <point x="1112" y="393" type="curve" smooth="yes"/>
      <point x="1112" y="694"/>
      <point x="768" y="723"/>
      <point x="715" y="723" type="curve"/>
      <point x="770" y="729"/>
      <point x="1063" y="786"/>
      <point x="1063" y="1047" type="curve" smooth="yes"/>
      <point x="1063" y="1292"/>
      <point x="821" y="1407"/>
      <point x="598" y="1407" type="curve" smooth="yes"/>
      <point x="340" y="1407"/>
      <point x="123" y="1282"/>
      <point x="123" y="1112" type="curve" smooth="yes"/>
      <point x="123" y="1012"/>
      <point x="197" y="965"/>
      <point x="283" y="965" type="curve" smooth="yes"/>
      <point x="315" y="965"/>
      <point x="356" y="969"/>
      <point x="393" y="993" type="curve"/>
      <point x="393" y="1245" type="line"/>
      <point x="423" y="1256"/>
      <point x="474" y="1270"/>
      <point x="502" y="1270" type="curve" smooth="yes"/>
      <point x="651" y="1270"/>
      <point x="764" y="1155"/>
      <point x="764" y="1024" type="curve" smooth="yes"/>
      <point x="764" y="827"/>
      <point x="592" y="772"/>
      <point x="438" y="772" type="curve" smooth="yes"/>
      <point x="420" y="772"/>
      <point x="403" y="772"/>
      <point x="381" y="774" type="curve"/>
      <point x="381" y="621" type="line"/>
      <point x="416" y="625"/>
      <point x="479" y="631"/>
      <point x="524" y="631" type="curve" smooth="yes"/>
      <point x="715" y="631"/>
      <point x="811" y="510"/>
      <point x="811" y="381" type="curve" smooth="yes"/>
      <point x="811" y="221"/>
      <point x="684" y="94"/>
      <point x="543" y="94" type="curve" smooth="yes"/>
      <point x="487" y="94"/>
      <point x="438" y="112"/>
      <point x="393" y="129" type="curve"/>
      <point x="328" y="360" type="line"/>
      <point x="305" y="371"/>
      <point x="276" y="379"/>
      <point x="240" y="379" type="curve" smooth="yes"/>
      <point x="176" y="379"/>
      <point x="88" y="352"/>
      <point x="88" y="238" type="curve" smooth="yes"/>
      <point x="88" y="102"/>
      <point x="256" y="-33"/>
      <point x="522" y="-33" type="curve" smooth="yes"/>
      <point x="827" y="-33"/>
      <point x="1112" y="127"/>
    </contour>
  </outline>
</glyph>
<glyph name="DigitFour" format="2">
  <advance width="1202"/>
  <unicode hex="0034"/>
  <anchor x="602" y="-100" name="L"/>
  <anchor x="602" y="1500" name="U"/>
  <outline>
    <contour>
      <point x="1130" y="385" type="line"/>
      <point x="1130" y="551" type="line"/>
      <point x="963" y="551" type="line"/>
      <point x="963" y="1407" type="line"/>
      <point x="741" y="1407" type="line"/>
      <point x="74" y="559" type="line"/>
      <point x="74" y="383" type="line"/>
      <point x="702" y="383" type="line"/>
      <point x="702" y="-33" type="line"/>
      <point x="963" y="-33" type="line"/>
      <point x="963" y="385" type="line"/>
    </contour>
    <contour>
      <point x="702" y="551" type="line"/>
      <point x="272" y="551" type="line"/>
      <point x="702" y="1090" type="line"/>
    </contour>
  </outline>
</glyph>
<glyph name="DigitSeven" format="2">
  <advance width="1202"/>
  <unicode hex="0037"/>
  <anchor x="475" y="-100" name="L"/>
  <anchor x="475" y="1500" name="U"/>
  <outline>
    <contour>
      <point x="1166" y="1229" type="line"/>
      <point x="1166" y="1374" type="line"/>
      <point x="116" y="1374" type="line"/>
      <point x="116" y="938" type="line"/>
      <point x="259" y="938" type="line"/>
      <point x="290" y="1128" type="line"/>
      <point x="882" y="1128" type="line"/>
      <point x="214" y="-33" type="line"/>
      <point x="476" y="-33" type="line"/>
      <point x="476" y="29" type="line"/>
    </contour>
  </outline>
</glyph>
<glyph name="QstnMrk" format="2">
  <advance width="1069"/>
  <unicode hex="003F"/>
  <outline>
    <contour>
      <point x="938" y="1018" type="curve" smooth="yes"/>
      <point x="938" y="1255"/>
      <point x="737" y="1407"/>
      <point x="473" y="1407" type="curve" smooth="yes"/>
      <point x="307" y="1407"/>
      <point x="90" y="1341"/>
      <point x="90" y="1163" type="curve" smooth="yes"/>
      <point x="90" y="1036"/>
      <point x="213" y="1032"/>
      <point x="266" y="1032" type="curve" smooth="yes"/>
      <point x="281" y="1032"/>
      <point x="289" y="1034"/>
      <point x="291" y="1036" type="curve"/>
      <point x="383" y="1282" type="line"/>
      <point x="563" y="1282"/>
      <point x="651" y="1176"/>
      <point x="651" y="1022" type="curve" smooth="yes"/>
      <point x="651" y="817"/>
      <point x="482" y="705"/>
      <point x="354" y="678" type="curve"/>
      <point x="354" y="406" type="line"/>
      <point x="494" y="406" type="line"/>
      <point x="494" y="580" type="line"/>
      <point x="685" y="619"/>
      <point x="938" y="764"/>
    </contour>
    <contour>
      <point x="592" y="133" type="curve" smooth="yes"/>
      <point x="592" y="225"/>
      <point x="524" y="305"/>
      <point x="426" y="305" type="curve" smooth="yes"/>
      <point x="338" y="305"/>
      <point x="268" y="231"/>
      <point x="268" y="141" type="curve" smooth="yes"/>
      <point x="268" y="53"/>
      <point x="336" y="-25"/>
      <point x="424" y="-25" type="curve" smooth="yes"/>
      <point x="514" y="-25"/>
      <point x="592" y="43"/>
    </contour>
  </outline>
</glyph>
<glyph name="LtnCapA" format="2">
  <advance width="1405"/>
  <unicode hex="0041"/>
  <anchor x="695" y="0" name="H"/>
  <anchor x="695" y="-100" name="L"/>
  <anchor x="1290" y="0" name="O"/>
  <anchor x="695" y="1500" name="U"/>
  <outline>
    <contour>
      <point x="1395" y="0" type="line"/>
      <point x="1395" y="104" type="line"/>
      <point x="1317" y="119" type="line" smooth="yes"/>
      <point x="1288" y="125"/>
      <point x="1282" y="133"/>
      <point x="1272" y="158" type="curve" smooth="yes"/>
      <point x="817" y="1407" type="line"/>
      <point x="584" y="1407" type="line"/>
      <point x="125" y="121" type="line"/>
      <point x="10" y="104" type="line"/>
      <point x="10" y="0" type="line"/>
      <point x="451" y="0" type="line"/>
      <point x="451" y="104" type="line"/>
      <point x="336" y="119" type="line" smooth="yes"/>
      <point x="322" y="121"/>
      <point x="299" y="141"/>
      <point x="307" y="162" type="curve" smooth="yes"/>
      <point x="420" y="479" type="line"/>
      <point x="858" y="479" type="line"/>
      <point x="969" y="154" type="line" smooth="yes"/>
      <point x="975" y="139"/>
      <point x="963" y="121"/>
      <point x="950" y="119" type="curve" smooth="yes"/>
      <point x="829" y="104" type="line"/>
      <point x="829" y="0" type="line"/>
    </contour>
    <contour>
      <point x="807" y="600" type="line"/>
      <point x="459" y="600" type="line"/>
      <point x="631" y="1092" type="line"/>
    </contour>
  </outline>
</glyph>
<glyph name="LtnCapQ" format="2">
  <advance width="1548"/>
  <unicode hex="0051"/>
  <anchor x="775" y="-500" name="L"/>
  <anchor x="775" y="1500" name="U"/>
  <outline>
    <contour>
      <point x="1044" y="-377" type="curve" smooth="yes"/>
      <point x="1155" y="-377"/>
      <point x="1266" y="-362"/>
      <point x="1407" y="-330" type="curve"/>
      <point x="1407" y="-221" type="line"/>
      <point x="1317" y="-242"/>
      <point x="1257" y="-246"/>
      <point x="1217" y="-246" type="curve" smooth="yes"/>
      <point x="1067" y="-246"/>
      <point x="934" y="-164"/>
      <point x="938" y="-16" type="curve"/>
      <point x="1264" y="51"/>
      <point x="1475" y="340"/>
      <point x="1475" y="680" type="curve" smooth="yes"/>
      <point x="1475" y="1077"/>
      <point x="1194" y="1407"/>
      <point x="768" y="1407" type="curve" smooth="yes"/>
      <point x="332" y="1407"/>
      <point x="76" y="1100"/>
      <point x="76" y="696" type="curve" smooth="yes"/>
      <point x="76" y="291"/>
      <point x="303" y="39"/>
      <point x="633" y="-20" type="curve"/>
      <point x="635" y="-236"/>
      <point x="750" y="-377"/>
    </contour>
    <contour>
      <point x="766" y="96" type="curve" smooth="yes"/>
      <point x="514" y="96"/>
      <point x="403" y="399"/>
      <point x="403" y="690" type="curve" smooth="yes"/>
      <point x="403" y="965"/>
      <point x="502" y="1270"/>
      <point x="786" y="1270" type="curve" smooth="yes"/>
      <point x="1024" y="1270"/>
      <point x="1145" y="993"/>
      <point x="1145" y="672" type="curve" smooth="yes"/>
      <point x="1145" y="408"/>
      <point x="1040" y="96"/>
    </contour>
  </outline>
</glyph>
<glyph name="LtnCapR" format="2">
  <advance width="1442"/>
  <unicode hex="0052"/>
  <anchor x="360" y="0" name="H"/>
  <anchor x="645" y="-100" name="L"/>
  <anchor x="645" y="1500" name="U"/>
  <outline>
    <contour>
      <point x="1239" y="-33" type="curve" smooth="yes"/>
      <point x="1290" y="-33"/>
      <point x="1352" y="-10"/>
      <point x="1442" y="0" type="curve"/>
      <point x="1442" y="104" type="line"/>
      <point x="991" y="51"/>
      <point x="1276" y="588"/>
      <point x="827" y="676" type="curve"/>
      <point x="938" y="692"/>
      <point x="1184" y="758"/>
      <point x="1184" y="1034" type="curve" smooth="yes"/>
      <point x="1184" y="1325"/>
      <point x="889" y="1374"/>
      <point x="737" y="1374" type="curve" smooth="yes"/>
      <point x="57" y="1374" type="line"/>
      <point x="57" y="1270" type="line"/>
      <point x="166" y="1260" type="line" smooth="yes"/>
      <point x="190" y="1257"/>
      <point x="213" y="1241"/>
      <point x="213" y="1214" type="curve" smooth="yes"/>
      <point x="213" y="160" type="line" smooth="yes"/>
      <point x="213" y="133"/>
      <point x="190" y="117"/>
      <point x="166" y="115" type="curve" smooth="yes"/>
      <point x="57" y="104" type="line"/>
      <point x="57" y="0" type="line"/>
      <point x="664" y="0" type="line"/>
      <point x="664" y="104" type="line"/>
      <point x="551" y="115" type="line" smooth="yes"/>
      <point x="526" y="117"/>
      <point x="506" y="133"/>
      <point x="506" y="160" type="curve" smooth="yes"/>
      <point x="506" y="602" type="line"/>
      <point x="520" y="602"/>
      <point x="533" y="602"/>
      <point x="547" y="602" type="curve" smooth="yes"/>
      <point x="948" y="602"/>
      <point x="711" y="-33"/>
    </contour>
    <contour>
      <point x="573" y="723" type="curve" smooth="yes"/>
      <point x="563" y="723"/>
      <point x="541" y="725"/>
      <point x="506" y="727" type="curve"/>
      <point x="506" y="1251" type="line"/>
      <point x="541" y="1253"/>
      <point x="571" y="1251"/>
      <point x="571" y="1251" type="curve"/>
      <point x="770" y="1251"/>
      <point x="877" y="1167"/>
      <point x="877" y="995" type="curve" smooth="yes"/>
      <point x="877" y="762"/>
      <point x="702" y="723"/>
    </contour>
  </outline>
</glyph>
<glyph name="LtnCapV" format="2">
  <advance width="1446"/>
  <unicode hex="0056"/>
  <anchor x="730" y="0" name="H"/>
  <anchor x="747" y="-100" name="L"/>
  <anchor x="881" y="0" name="O"/>
  <anchor x="747" y="1500" name="U"/>
  <outline>
    <contour>
      <point x="1425" y="1270" type="line"/>
      <point x="1425" y="1374" type="line"/>
      <point x="967" y="1374" type="line"/>
      <point x="967" y="1270" type="line"/>
      <point x="1077" y="1255" type="line" smooth="yes"/>
      <point x="1108" y="1251"/>
      <point x="1110" y="1229"/>
      <point x="1106" y="1212" type="curve"/>
      <point x="793" y="319" type="line"/>
      <point x="469" y="1210" type="line" smooth="yes"/>
      <point x="463" y="1227"/>
      <point x="465" y="1251"/>
      <point x="489" y="1255" type="curve" smooth="yes"/>
      <point x="604" y="1270" type="line"/>
      <point x="604" y="1374" type="line"/>
      <point x="20" y="1374" type="line"/>
      <point x="20" y="1270" type="line"/>
      <point x="152" y="1251" type="line"/>
      <point x="631" y="-33" type="line"/>
      <point x="825" y="-33" type="line"/>
      <point x="1296" y="1253" type="line"/>
    </contour>
  </outline>
</glyph>
<glyph name="LtnCapY" format="2">
  <advance width="1358"/>
  <unicode hex="0059"/>
  <anchor x="678" y="-100" name="L"/>
  <anchor x="860" y="0" name="O"/>
  <anchor x="678" y="1500" name="U"/>
  <outline>
    <contour>
      <point x="1337" y="1270" type="line"/>
      <point x="1337" y="1374" type="line"/>
      <point x="885" y="1374" type="line"/>
      <point x="885" y="1270" type="line"/>
      <point x="1010" y="1262" type="line" smooth="yes"/>
      <point x="1028" y="1262"/>
      <point x="1034" y="1237"/>
      <point x="1020" y="1212" type="curve" smooth="yes"/>
      <point x="741" y="725" type="line"/>
      <point x="483" y="1210" type="line" smooth="yes"/>
      <point x="469" y="1237"/>
      <point x="479" y="1260"/>
      <point x="494" y="1260" type="curve"/>
      <point x="602" y="1270" type="line"/>
      <point x="602" y="1374" type="line"/>
      <point x="20" y="1374" type="line"/>
      <point x="20" y="1270" type="line"/>
      <point x="152" y="1251" type="line"/>
      <point x="547" y="537" type="line"/>
      <point x="547" y="160" type="line" smooth="yes"/>
      <point x="547" y="133"/>
      <point x="522" y="117"/>
      <point x="500" y="115" type="curve" smooth="yes"/>
      <point x="375" y="104" type="line"/>
      <point x="375" y="0" type="line"/>
      <point x="1010" y="0" type="line"/>
      <point x="1010" y="104" type="line"/>
      <point x="885" y="115" type="line" smooth="yes"/>
      <point x="860" y="117"/>
      <point x="840" y="133"/>
      <point x="840" y="160" type="curve" smooth="yes"/>
      <point x="840" y="594" type="line"/>
      <point x="1219" y="1251" type="line"/>
    </contour>
  </outline>
</glyph>
<glyph name="LftSqrBrac" format="2">
  <advance width="1122"/>
  <unicode hex="005B"/>
  <outline>
    <contour>
      <point x="1048" y="-270" type="line"/>
      <point x="1048" y="-152" type="line"/>
      <point x="734" y="-152" type="line"/>
      <point x="734" y="1327" type="line"/>
      <point x="1048" y="1327" type="line"/>
      <point x="1048" y="1450" type="line"/>
      <point x="480" y="1450" type="line"/>
      <point x="480" y="-270" type="line"/>
    </contour>
  </outline>
</glyph>
<glyph name="RtSqrBrac" format="2">
  <advance width="1206"/>
  <unicode hex="005D"/>
  <outline>
    <contour>
      <point x="641" y="-270" type="line"/>
      <point x="641" y="1450" type="line"/>
      <point x="74" y="1450" type="line"/>
      <point x="74" y="1327" type="line"/>
      <point x="387" y="1327" type="line"/>
      <point x="387" y="-152" type="line"/>
      <point x="74" y="-152" type="line"/>
      <point x="74" y="-270" type="line"/>
    </contour>
  </outline>
</glyph>
<glyph name="LtnSmD" format="2">
  <advance width="1247"/>
  <unicode hex="0064"/>
  <anchor x="630" y="0" name="H"/>
  <anchor x="630" y="-100" name="L"/>
  <anchor x="1193" y="1000" name="R"/>
  <anchor x="630" y="1540" name="U"/>
  <outline>
    <contour>
      <point x="1194" y="0" type="line"/>
      <point x="1194" y="96" type="line"/>
      <point x="1108" y="102" type="line" smooth="yes"/>
      <point x="1083" y="104"/>
      <point x="1063" y="125"/>
      <point x="1063" y="150" type="curve" smooth="yes"/>
      <point x="1063" y="1516" type="line"/>
      <point x="958" y="1516" type="line"/>
      <point x="639" y="1413" type="line"/>
      <point x="639" y="1329" type="line"/>
      <point x="791" y="1329" type="line"/>
      <point x="791" y="999" type="line"/>
      <point x="742" y="1010"/>
      <point x="657" y="1024"/>
      <point x="600" y="1024" type="curve" smooth="yes"/>
      <point x="291" y="1024"/>
      <point x="66" y="829"/>
      <point x="66" y="477" type="curve" smooth="yes"/>
      <point x="66" y="188"/>
      <point x="217" y="-25"/>
      <point x="467" y="-25" type="curve" smooth="yes"/>
      <point x="589" y="-25"/>
      <point x="710" y="61"/>
      <point x="791" y="119" type="curve"/>
      <point x="791" y="0" type="line"/>
    </contour>
    <contour>
      <point x="791" y="203" type="line"/>
      <point x="754" y="186"/>
      <point x="685" y="164"/>
      <point x="631" y="164" type="curve" smooth="yes"/>
      <point x="453" y="164"/>
      <point x="365" y="309"/>
      <point x="365" y="524" type="curve" smooth="yes"/>
      <point x="365" y="735"/>
      <point x="455" y="901"/>
      <point x="645" y="901" type="curve" smooth="yes"/>
      <point x="690" y="901"/>
      <point x="755" y="880"/>
      <point x="791" y="864" type="curve"/>
    </contour>
  </outline>
</glyph>
<glyph name="LtnSmE" format="2">
  <advance width="1083"/>
  <unicode hex="0065"/>
  <anchor x="543" y="0" name="H"/>
  <anchor x="570" y="-100" name="L"/>
  <anchor x="863" y="0" name="O"/>
  <anchor x="1083" y="1000" name="R"/>
  <anchor x="570" y="1100" name="U"/>
  <outline>
    <contour>
      <point x="588" y="-25" type="curve" smooth="yes"/>
      <point x="848" y="-25"/>
      <point x="1020" y="96"/>
      <point x="1020" y="96" type="curve"/>
      <point x="1020" y="260" type="line"/>
      <point x="1020" y="260"/>
      <point x="870" y="145"/>
      <point x="664" y="145" type="curve" smooth="yes"/>
      <point x="463" y="145"/>
      <point x="348" y="285"/>
      <point x="348" y="508" type="curve"/>
      <point x="1020" y="508" type="line"/>
      <point x="1020" y="524"/>
      <point x="1020" y="541"/>
      <point x="1020" y="557" type="curve" smooth="yes"/>
      <point x="1020" y="795"/>
      <point x="903" y="1024"/>
      <point x="582" y="1024" type="curve" smooth="yes"/>
      <point x="270" y="1024"/>
      <point x="66" y="797"/>
      <point x="66" y="487" type="curve" smooth="yes"/>
      <point x="66" y="203"/>
      <point x="240" y="-25"/>
    </contour>
    <contour>
      <point x="358" y="623" type="line"/>
      <point x="358" y="752"/>
      <point x="408" y="903"/>
      <point x="559" y="903" type="curve" smooth="yes"/>
      <point x="680" y="903"/>
      <point x="727" y="799"/>
      <point x="727" y="668" type="curve" smooth="yes"/>
      <point x="727" y="623" type="line"/>
    </contour>
  </outline>
</glyph>
<glyph name="LtnSmF" format="2">
  <advance width="711"/>
  <unicode hex="0066"/>
  <anchor x="330" y="0" name="H"/>
  <anchor x="330" y="-100" name="L"/>
  <anchor x="537" y="1580" name="U"/>
  <outline>
    <contour>
      <point x="860" y="1352" type="curve" smooth="yes"/>
      <point x="860" y="1468"/>
      <point x="745" y="1516"/>
      <point x="664" y="1516" type="curve" smooth="yes"/>
      <point x="496" y="1516"/>
      <point x="361" y="1419"/>
      <point x="279" y="1286" type="curve" smooth="yes"/>
      <point x="223" y="1195"/>
      <point x="190" y="1100"/>
      <point x="190" y="993" type="curve"/>
      <point x="59" y="926" type="line"/>
      <point x="59" y="844" type="line"/>
      <point x="193" y="844" type="line"/>
      <point x="193" y="150" type="line" smooth="yes"/>
      <point x="193" y="125"/>
      <point x="172" y="103"/>
      <point x="147" y="102" type="curve" smooth="yes"/>
      <point x="43" y="96" type="line"/>
      <point x="43" y="0" type="line"/>
      <point x="637" y="0" type="line"/>
      <point x="637" y="96" type="line"/>
      <point x="512" y="102" type="line"/>
      <point x="485" y="103"/>
      <point x="467" y="125"/>
      <point x="467" y="150" type="curve" smooth="yes"/>
      <point x="467" y="844" type="line"/>
      <point x="688" y="844" type="line"/>
      <point x="688" y="975" type="line"/>
      <point x="465" y="975" type="line"/>
      <point x="465" y="1094" type="line" smooth="yes"/>
      <point x="465" y="1280"/>
      <point x="489" y="1346"/>
      <point x="530" y="1407" type="curve"/>
      <point x="733" y="1217" type="line"/>
      <point x="799" y="1239"/>
      <point x="860" y="1288"/>
    </contour>
  </outline>
</glyph>
<glyph name="LtnSmL" format="2">
  <advance width="682"/>
  <unicode hex="006C"/>
  <anchor x="342" y="0" name="H"/>
  <anchor x="342" y="-100" name="L"/>
  <anchor x="582" y="1000" name="R"/>
  <anchor x="342" y="1580" name="U"/>
  <outline>
    <contour>
      <point x="625" y="0" type="line"/>
      <point x="625" y="96" type="line"/>
      <point x="522" y="102" type="line" smooth="yes"/>
      <point x="496" y="104"/>
      <point x="477" y="123"/>
      <point x="477" y="150" type="curve" smooth="yes"/>
      <point x="477" y="1516" type="line"/>
      <point x="373" y="1516" type="line"/>
      <point x="59" y="1413" type="line"/>
      <point x="59" y="1329" type="line"/>
      <point x="205" y="1329" type="line"/>
      <point x="205" y="150" type="line" smooth="yes"/>
      <point x="205" y="123"/>
      <point x="186" y="104"/>
      <point x="160" y="102" type="curve" smooth="yes"/>
      <point x="59" y="96" type="line"/>
      <point x="59" y="0" type="line"/>
    </contour>
  </outline>
</glyph>
<glyph name="LtnSmR" format="2">
  <advance width="885"/>
  <unicode hex="0072"/>
  <anchor x="309" y="0" name="H"/>
  <anchor x="309" y="-100" name="L"/>
  <anchor x="480" y="1100" name="U"/>
  <outline>
    <contour>
      <point x="864" y="676" type="line"/>
      <point x="864" y="987" type="line"/>
      <point x="840" y="1006"/>
      <point x="782" y="1024"/>
      <point x="735" y="1024" type="curve" smooth="yes"/>
      <point x="641" y="1024"/>
      <point x="510" y="872"/>
      <point x="459" y="807" type="curve"/>
      <point x="459" y="1024" type="line"/>
      <point x="352" y="1024" type="line"/>
      <point x="35" y="920" type="line"/>
      <point x="35" y="836" type="line"/>
      <point x="184" y="836" type="line"/>
      <point x="184" y="147" type="line" smooth="yes"/>
      <point x="184" y="123"/>
      <point x="164" y="102"/>
      <point x="139" y="100" type="curve" smooth="yes"/>
      <point x="49" y="94" type="line"/>
      <point x="49" y="-2" type="line"/>
      <point x="635" y="-2" type="line"/>
      <point x="635" y="94" type="line"/>
      <point x="504" y="100" type="line" smooth="yes"/>
      <point x="477" y="101"/>
      <point x="459" y="123"/>
      <point x="459" y="147" type="curve" smooth="yes"/>
      <point x="459" y="721" type="line"/>
      <point x="483" y="737"/>
      <point x="535" y="758"/>
      <point x="592" y="758" type="curve" smooth="yes"/>
      <point x="671" y="758"/>
      <point x="708" y="702"/>
      <point x="725" y="676" type="curve"/>
    </contour>
  </outline>
</glyph>
<glyph name="LtnSmZ" format="2">
  <advance width="1006"/>
  <unicode hex="007A"/>
  <anchor x="513" y="0" name="H"/>
  <anchor x="513" y="-100" name="L"/>
  <anchor x="513" y="1100" name="U"/>
  <outline>
    <contour>
      <point x="940" y="0" type="line"/>
      <point x="940" y="344" type="line"/>
      <point x="799" y="344" type="line"/>
      <point x="772" y="170" type="line" smooth="yes"/>
      <point x="768" y="150"/>
      <point x="745" y="121"/>
      <point x="727" y="121" type="curve" smooth="yes"/>
      <point x="375" y="121" type="line"/>
      <point x="911" y="885" type="line"/>
      <point x="911" y="999" type="line"/>
      <point x="82" y="999" type="line"/>
      <point x="82" y="682" type="line"/>
      <point x="227" y="682" type="line"/>
      <point x="242" y="840" type="line"/>
      <point x="242" y="858"/>
      <point x="260" y="883"/>
      <point x="281" y="883" type="curve" smooth="yes"/>
      <point x="590" y="883" type="line"/>
      <point x="66" y="133" type="line"/>
      <point x="66" y="0" type="line"/>
    </contour>
  </outline>
</glyph>
<glyph name="VertLine" format="2">
  <advance width="815"/>
  <unicode hex="007C"/>
  <outline>
    <contour>
      <point x="495" y="-528" type="line"/>
      <point x="495" y="1630" type="line"/>
      <point x="320" y="1630" type="line"/>
      <point x="320" y="-528" type="line"/>
    </contour>
  </outline>
</glyph>
<glyph name="CopyrightSgn" format="2">
  <advance width="1714"/>
  <unicode hex="00A9"/>
  <outline>
    <contour>
      <point x="1651" y="717" type="curve" smooth="yes"/>
      <point x="1651" y="1157"/>
      <point x="1292" y="1513"/>
      <point x="858" y="1513" type="curve" smooth="yes"/>
      <point x="420" y="1513"/>
      <point x="66" y="1155"/>
      <point x="66" y="717" type="curve" smooth="yes"/>
      <point x="66" y="276"/>
      <point x="422" y="-80"/>
      <point x="854" y="-80" type="curve" smooth="yes"/>
      <point x="1294" y="-80"/>
      <point x="1651" y="276"/>
    </contour>
    <contour>
      <point x="1552" y="717" type="curve" smooth="yes"/>
      <point x="1552" y="334"/>
      <point x="1241" y="16"/>
      <point x="856" y="16" type="curve" smooth="yes"/>
      <point x="473" y="16"/>
      <point x="164" y="332"/>
      <point x="164" y="713" type="curve" smooth="yes"/>
      <point x="164" y="1108"/>
      <point x="479" y="1417"/>
      <point x="858" y="1417" type="curve" smooth="yes"/>
      <point x="1241" y="1417"/>
      <point x="1552" y="1104"/>
    </contour>
    <contour>
      <point x="1204" y="285" type="curve"/>
      <point x="1204" y="541" type="line"/>
      <point x="1090" y="541" type="line"/>
      <point x="1061" y="365" type="line"/>
      <point x="1040" y="353"/>
      <point x="992" y="336"/>
      <point x="938" y="336" type="curve" smooth="yes"/>
      <point x="754" y="336"/>
      <point x="643" y="498"/>
      <point x="643" y="713" type="curve" smooth="yes"/>
      <point x="643" y="891"/>
      <point x="727" y="1096"/>
      <point x="944" y="1096" type="curve" smooth="yes"/>
      <point x="1002" y="1096"/>
      <point x="1045" y="1075"/>
      <point x="1061" y="1059" type="curve"/>
      <point x="1090" y="895" type="line"/>
      <point x="1204" y="895" type="line"/>
      <point x="1204" y="1143" type="line"/>
      <point x="1159" y="1167"/>
      <point x="1050" y="1198"/>
      <point x="915" y="1198" type="curve" smooth="yes"/>
      <point x="600" y="1198"/>
      <point x="410" y="981"/>
      <point x="410" y="717" type="curve" smooth="yes"/>
      <point x="410" y="412"/>
      <point x="618" y="233"/>
      <point x="907" y="233" type="curve" smooth="yes"/>
      <point x="1035" y="233"/>
      <point x="1152" y="263"/>
    </contour>
  </outline>
</glyph>
<glyph name="LftPtngDblAngQuotMrk" format="2">
  <advance width="920"/>
  <unicode hex="00AB"/>
  <outline>
    <contour>
      <point x="380" y="0" type="line"/>
      <point x="530" y="0" type="line"/>
      <point x="275" y="493" type="line"/>
      <point x="530" y="987" type="line"/>
      <point x="380" y="987" type="line"/>
      <point x="50" y="544" type="line"/>
      <point x="50" y="441" type="line"/>
    </contour>
    <contour>
      <point x="760" y="0" type="line"/>
      <point x="910" y="0" type="line"/>
      <point x="655" y="493" type="line"/>
      <point x="910" y="987" type="line"/>
      <point x="760" y="987" type="line"/>
      <point x="430" y="544" type="line"/>
      <point x="430" y="441" type="line"/>
    </contour>
  </outline>
</glyph>
<glyph name="RegisteredSgn" format="2">
  <advance width="1714"/>
  <unicode hex="00AE"/>
  <outline>
    <contour>
      <point x="1651" y="717" type="curve" smooth="yes"/>
      <point x="1651" y="1157"/>
      <point x="1292" y="1513"/>
      <point x="858" y="1513" type="curve" smooth="yes"/>
      <point x="420" y="1513"/>
      <point x="66" y="1155"/>
      <point x="66" y="717" type="curve" smooth="yes"/>
      <point x="66" y="276"/>
      <point x="422" y="-80"/>
      <point x="854" y="-80" type="curve" smooth="yes"/>
      <point x="1294" y="-80"/>
      <point x="1651" y="276"/>
    </contour>
    <contour>
      <point x="1552" y="717" type="curve" smooth="yes"/>
      <point x="1552" y="334"/>
      <point x="1241" y="16"/>
      <point x="856" y="16" type="curve" smooth="yes"/>
      <point x="473" y="16"/>
      <point x="164" y="332"/>
      <point x="164" y="713" type="curve" smooth="yes"/>
      <point x="164" y="1108"/>
      <point x="479" y="1417"/>
      <point x="858" y="1417" type="curve" smooth="yes"/>
      <point x="1241" y="1417"/>
      <point x="1552" y="1104"/>
    </contour>
    <contour>
      <point x="1337" y="291" type="curve"/>
      <point x="1337" y="358" type="line"/>
      <point x="1051" y="324"/>
      <point x="1237" y="670"/>
      <point x="936" y="731" type="curve"/>
      <point x="1008" y="741"/>
      <point x="1174" y="784"/>
      <point x="1174" y="965" type="curve" smooth="yes"/>
      <point x="1174" y="1155"/>
      <point x="977" y="1188"/>
      <point x="879" y="1188" type="curve" smooth="yes"/>
      <point x="424" y="1188" type="line"/>
      <point x="424" y="1120" type="line"/>
      <point x="496" y="1112" type="line" smooth="yes"/>
      <point x="510" y="1110"/>
      <point x="526" y="1100"/>
      <point x="526" y="1083" type="curve" smooth="yes"/>
      <point x="526" y="395" type="line" smooth="yes"/>
      <point x="526" y="377"/>
      <point x="510" y="365"/>
      <point x="496" y="365" type="curve" smooth="yes"/>
      <point x="424" y="358" type="line"/>
      <point x="424" y="291" type="line"/>
      <point x="829" y="291" type="line"/>
      <point x="829" y="358" type="line"/>
      <point x="754" y="365" type="line"/>
      <point x="737" y="365"/>
      <point x="723" y="377"/>
      <point x="723" y="395" type="curve" smooth="yes"/>
      <point x="723" y="684" type="line"/>
      <point x="737" y="684"/>
      <point x="739" y="682"/>
      <point x="750" y="682" type="curve" smooth="yes"/>
      <point x="1018" y="682"/>
      <point x="854" y="283"/>
      <point x="1210" y="283" type="curve" smooth="yes"/>
      <point x="1243" y="283"/>
      <point x="1276" y="283"/>
    </contour>
    <contour>
      <point x="969" y="918" type="curve" smooth="yes"/>
      <point x="969" y="766"/>
      <point x="850" y="739"/>
      <point x="768" y="739" type="curve" smooth="yes"/>
      <point x="760" y="739"/>
      <point x="745" y="739"/>
      <point x="723" y="741" type="curve"/>
      <point x="723" y="1085" type="line"/>
      <point x="745" y="1085"/>
      <point x="766" y="1085"/>
      <point x="766" y="1085" type="curve"/>
      <point x="897" y="1085"/>
      <point x="969" y="1030"/>
    </contour>
  </outline>
</glyph>
<glyph name="SupThree" format="2">
  <advance width="780"/>
  <unicode hex="00B3"/>
  <anchor x="390" y="725" name="L"/>
  <anchor x="390" y="1650" name="U"/>
  <outline>
    <contour>
      <point x="723" y="1020" type="curve" smooth="yes"/>
      <point x="723" y="1202"/>
      <point x="498" y="1221"/>
      <point x="465" y="1219" type="curve" smooth="yes"/>
      <point x="502" y="1221"/>
      <point x="690" y="1255"/>
      <point x="690" y="1411" type="curve" smooth="yes"/>
      <point x="690" y="1559"/>
      <point x="532" y="1628"/>
      <point x="387" y="1628" type="curve" smooth="yes"/>
      <point x="221" y="1628"/>
      <point x="80" y="1554"/>
      <point x="80" y="1450" type="curve" smooth="yes"/>
      <point x="80" y="1391"/>
      <point x="127" y="1364"/>
      <point x="182" y="1364" type="curve" smooth="yes"/>
      <point x="205" y="1364"/>
      <point x="231" y="1366"/>
      <point x="256" y="1380" type="curve"/>
      <point x="256" y="1532" type="line"/>
      <point x="275" y="1538"/>
      <point x="308" y="1546"/>
      <point x="326" y="1546" type="curve" smooth="yes"/>
      <point x="424" y="1546"/>
      <point x="496" y="1477"/>
      <point x="496" y="1399" type="curve" smooth="yes"/>
      <point x="496" y="1280"/>
      <point x="383" y="1247"/>
      <point x="285" y="1247" type="curve" smooth="yes"/>
      <point x="272" y="1247"/>
      <point x="262" y="1247"/>
      <point x="248" y="1247" type="curve"/>
      <point x="248" y="1157" type="line"/>
      <point x="271" y="1160"/>
      <point x="312" y="1163"/>
      <point x="342" y="1163" type="curve" smooth="yes"/>
      <point x="465" y="1163"/>
      <point x="528" y="1092"/>
      <point x="528" y="1014" type="curve" smooth="yes"/>
      <point x="528" y="918"/>
      <point x="444" y="840"/>
      <point x="352" y="840" type="curve" smooth="yes"/>
      <point x="317" y="840"/>
      <point x="285" y="854"/>
      <point x="256" y="860" type="curve"/>
      <point x="213" y="999" type="line"/>
      <point x="199" y="1006"/>
      <point x="178" y="1012"/>
      <point x="156" y="1012" type="curve" smooth="yes"/>
      <point x="115" y="1012"/>
      <point x="57" y="995"/>
      <point x="57" y="928" type="curve" smooth="yes"/>
      <point x="57" y="846"/>
      <point x="166" y="764"/>
      <point x="340" y="764" type="curve" smooth="yes"/>
      <point x="539" y="764"/>
      <point x="723" y="860"/>
    </contour>
  </outline>
</glyph>
<glyph name="MicroSgn" format="2">
  <advance width="1192"/>
  <unicode hex="00B5"/>
  <outline>
    <contour>
      <point x="1202" y="242" type="curve"/>
      <point x="1137" y="242" type="line"/>
      <point x="1116" y="139"/>
      <point x="1092" y="113"/>
      <point x="1053" y="113" type="curve" smooth="yes"/>
      <point x="1022" y="113"/>
      <point x="1008" y="178"/>
      <point x="1008" y="221" type="curve" smooth="yes"/>
      <point x="1008" y="999" type="line"/>
      <point x="745" y="999" type="line"/>
      <point x="745" y="256" type="line"/>
      <point x="672" y="172"/>
      <point x="629" y="125"/>
      <point x="555" y="125" type="curve" smooth="yes"/>
      <point x="516" y="125"/>
      <point x="477" y="168"/>
      <point x="459" y="211" type="curve" smooth="yes"/>
      <point x="451" y="231"/>
      <point x="442" y="272"/>
      <point x="442" y="334" type="curve" smooth="yes"/>
      <point x="442" y="999" type="line"/>
      <point x="184" y="999" type="line"/>
      <point x="184" y="135" type="line" smooth="yes"/>
      <point x="184" y="-258"/>
      <point x="119" y="-203"/>
      <point x="119" y="-332" type="curve" smooth="yes"/>
      <point x="119" y="-403"/>
      <point x="201" y="-455"/>
      <point x="252" y="-455" type="curve" smooth="yes"/>
      <point x="309" y="-455"/>
      <point x="393" y="-401"/>
      <point x="393" y="-328" type="curve" smooth="yes"/>
      <point x="393" y="-264"/>
      <point x="326" y="-139"/>
      <point x="326" y="10" type="curve" smooth="yes"/>
      <point x="326" y="55" type="line"/>
      <point x="356" y="29"/>
      <point x="444" y="-25"/>
      <point x="483" y="-25" type="curve" smooth="yes"/>
      <point x="606" y="-25"/>
      <point x="682" y="16"/>
      <point x="764" y="139" type="curve"/>
      <point x="801" y="37"/>
      <point x="881" y="-25"/>
      <point x="952" y="-25" type="curve" smooth="yes"/>
      <point x="1114" y="-25"/>
      <point x="1190" y="63"/>
    </contour>
  </outline>
</glyph>
<glyph name="VulgFracOneHalf" format="2">
  <advance width="1858"/>
  <unicode hex="00BD"/>
  <outline>
    <contour>
      <point x="1765" y="0" type="line"/>
      <point x="1765" y="242" type="line"/>
      <point x="1677" y="242" type="line"/>
      <point x="1655" y="131" type="line"/>
      <point x="1288" y="131" type="line"/>
      <point x="1552" y="291"/>
      <point x="1739" y="426"/>
      <point x="1739" y="602" type="curve" smooth="yes"/>
      <point x="1739" y="750"/>
      <point x="1610" y="840"/>
      <point x="1442" y="840" type="curve" smooth="yes"/>
      <point x="1325" y="840"/>
      <point x="1122" y="803"/>
      <point x="1122" y="647" type="curve" smooth="yes"/>
      <point x="1122" y="594"/>
      <point x="1157" y="557"/>
      <point x="1223" y="557" type="curve" smooth="yes"/>
      <point x="1254" y="557"/>
      <point x="1293" y="570"/>
      <point x="1313" y="580" type="curve"/>
      <point x="1313" y="745" type="line"/>
      <point x="1328" y="752"/>
      <point x="1346" y="758"/>
      <point x="1382" y="758" type="curve" smooth="yes"/>
      <point x="1483" y="758"/>
      <point x="1540" y="686"/>
      <point x="1540" y="590" type="curve" smooth="yes"/>
      <point x="1540" y="433"/>
      <point x="1366" y="295"/>
      <point x="1114" y="102" type="curve"/>
      <point x="1114" y="0" type="line"/>
    </contour>
    <contour>
      <point x="1427" y="1423" type="line"/>
      <point x="1278" y="1423" type="line"/>
      <point x="373" y="0" type="line"/>
      <point x="522" y="0" type="line"/>
    </contour>
    <contour>
      <point x="614" y="604" type="line"/>
      <point x="614" y="668" type="line"/>
      <point x="510" y="672" type="line" smooth="yes"/>
      <point x="494" y="673"/>
      <point x="479" y="682"/>
      <point x="479" y="698" type="curve" smooth="yes"/>
      <point x="479" y="1440" type="line"/>
      <point x="383" y="1440" type="line"/>
      <point x="94" y="1348" type="line"/>
      <point x="94" y="1284" type="line"/>
      <point x="293" y="1309" type="line"/>
      <point x="293" y="698" type="line" smooth="yes"/>
      <point x="293" y="682"/>
      <point x="281" y="673"/>
      <point x="264" y="672" type="curve" smooth="yes"/>
      <point x="150" y="668" type="line"/>
      <point x="150" y="604" type="line"/>
    </contour>
  </outline>
</glyph>
<glyph name="VulgFracThreeQuarters" format="2">
  <advance width="1858"/>
  <unicode hex="00BE"/>
  <outline>
    <contour>
      <point x="1786" y="219" type="line"/>
      <point x="1786" y="319" type="line"/>
      <point x="1636" y="319" type="line"/>
      <point x="1636" y="831" type="line"/>
      <point x="1493" y="831" type="line"/>
      <point x="1057" y="324" type="line"/>
      <point x="1057" y="219" type="line"/>
      <point x="1466" y="219" type="line"/>
      <point x="1466" y="-37" type="line"/>
      <point x="1636" y="-37" type="line"/>
      <point x="1636" y="219" type="line"/>
    </contour>
    <contour>
      <point x="1489" y="1423" type="line"/>
      <point x="1339" y="1423" type="line"/>
      <point x="434" y="0" type="line"/>
      <point x="584" y="0" type="line"/>
    </contour>
    <contour>
      <point x="1466" y="319" type="line"/>
      <point x="1184" y="319" type="line"/>
      <point x="1466" y="653" type="line"/>
    </contour>
    <contour>
      <point x="722" y="841" type="curve" smooth="yes"/>
      <point x="722" y="1021"/>
      <point x="497" y="1035"/>
      <point x="462" y="1035" type="curve"/>
      <point x="499" y="1039"/>
      <point x="690" y="1076"/>
      <point x="690" y="1234" type="curve" smooth="yes"/>
      <point x="690" y="1379"/>
      <point x="538" y="1443"/>
      <point x="393" y="1443" type="curve" smooth="yes"/>
      <point x="225" y="1443"/>
      <point x="94" y="1373"/>
      <point x="94" y="1271" type="curve" smooth="yes"/>
      <point x="94" y="1209"/>
      <point x="143" y="1183"/>
      <point x="198" y="1183" type="curve" smooth="yes"/>
      <point x="219" y="1183"/>
      <point x="245" y="1185"/>
      <point x="270" y="1199" type="curve"/>
      <point x="270" y="1351" type="line"/>
      <point x="285" y="1355"/>
      <point x="312" y="1361"/>
      <point x="331" y="1361" type="curve" smooth="yes"/>
      <point x="427" y="1361"/>
      <point x="495" y="1297"/>
      <point x="495" y="1219" type="curve" smooth="yes"/>
      <point x="495" y="1101"/>
      <point x="397" y="1068"/>
      <point x="298" y="1068" type="curve" smooth="yes"/>
      <point x="286" y="1068"/>
      <point x="276" y="1068"/>
      <point x="262" y="1068" type="curve"/>
      <point x="262" y="976" type="line"/>
      <point x="281" y="979"/>
      <point x="318" y="982"/>
      <point x="348" y="982" type="curve" smooth="yes"/>
      <point x="470" y="982"/>
      <point x="528" y="910"/>
      <point x="528" y="832" type="curve" smooth="yes"/>
      <point x="528" y="736"/>
      <point x="452" y="667"/>
      <point x="360" y="667" type="curve" smooth="yes"/>
      <point x="323" y="667"/>
      <point x="296" y="675"/>
      <point x="270" y="683" type="curve"/>
      <point x="227" y="820" type="line"/>
      <point x="212" y="828"/>
      <point x="192" y="834"/>
      <point x="169" y="834" type="curve" smooth="yes"/>
      <point x="128" y="834"/>
      <point x="73" y="816"/>
      <point x="73" y="748" type="curve" smooth="yes"/>
      <point x="73" y="667"/>
      <point x="173" y="591"/>
      <point x="348" y="591" type="curve" smooth="yes"/>
      <point x="544" y="591"/>
      <point x="722" y="681"/>
    </contour>
  </outline>
</glyph>
<glyph name="LtnCapOStrk" format="2">
  <advance width="1548"/>
  <unicode hex="00D8"/>
  <anchor x="775" y="-100" name="L"/>
  <anchor x="775" y="1500" name="U"/>
  <outline>
    <contour>
      <point x="348" y="-178" type="line"/>
      <point x="388" y="-109"/>
      <point x="427" y="-40"/>
      <point x="467" y="29" type="curve"/>
      <point x="561" y="-12"/>
      <point x="670" y="-33"/>
      <point x="786" y="-33" type="curve" smooth="yes"/>
      <point x="1198" y="-33"/>
      <point x="1475" y="289"/>
      <point x="1475" y="680" type="curve" smooth="yes"/>
      <point x="1475" y="928"/>
      <point x="1366" y="1147"/>
      <point x="1182" y="1280" type="curve"/>
      <point x="1219" y="1344"/>
      <point x="1255" y="1409"/>
      <point x="1292" y="1473" type="curve"/>
      <point x="1186" y="1532" type="line"/>
      <point x="1077" y="1341" type="line"/>
      <point x="987" y="1382"/>
      <point x="883" y="1407"/>
      <point x="768" y="1407" type="curve" smooth="yes"/>
      <point x="332" y="1407"/>
      <point x="76" y="1100"/>
      <point x="76" y="696" type="curve" smooth="yes"/>
      <point x="76" y="416"/>
      <point x="184" y="209"/>
      <point x="360" y="88" type="curve"/>
      <point x="244" y="-117" type="line"/>
    </contour>
    <contour>
      <point x="481" y="299" type="line"/>
      <point x="428" y="410"/>
      <point x="403" y="551"/>
      <point x="403" y="690" type="curve" smooth="yes"/>
      <point x="403" y="965"/>
      <point x="502" y="1270"/>
      <point x="786" y="1270" type="curve" smooth="yes"/>
      <point x="866" y="1270"/>
      <point x="934" y="1239"/>
      <point x="987" y="1184" type="curve"/>
    </contour>
    <contour>
      <point x="766" y="96" type="curve" smooth="yes"/>
      <point x="680" y="96"/>
      <point x="610" y="131"/>
      <point x="557" y="188" type="curve"/>
      <point x="726" y="483"/>
      <point x="894" y="778"/>
      <point x="1063" y="1073" type="curve"/>
      <point x="1116" y="967"/>
      <point x="1145" y="823"/>
      <point x="1145" y="672" type="curve" smooth="yes"/>
      <point x="1145" y="408"/>
      <point x="1040" y="96"/>
    </contour>
  </outline>
</glyph>
<glyph name="LtnCapThorn" format="2">
  <advance width="1257"/>
  <unicode hex="00DE"/>
  <anchor x="617" y="-100" name="L"/>
  <anchor x="617" y="1500" name="U"/>
  <outline>
    <contour>
      <point x="1182" y="711" type="curve" smooth="yes"/>
      <point x="1182" y="1016"/>
      <point x="961" y="1116"/>
      <point x="713" y="1120" type="curve" smooth="yes"/>
      <point x="506" y="1124" type="line"/>
      <point x="506" y="1219" type="line" smooth="yes"/>
      <point x="506" y="1245"/>
      <point x="526" y="1264"/>
      <point x="551" y="1264" type="curve" smooth="yes"/>
      <point x="674" y="1270" type="line"/>
      <point x="674" y="1374" type="line"/>
      <point x="53" y="1374" type="line"/>
      <point x="53" y="1270" type="line"/>
      <point x="168" y="1264" type="line"/>
      <point x="193" y="1264"/>
      <point x="213" y="1245"/>
      <point x="213" y="1219" type="curve" smooth="yes"/>
      <point x="213" y="156" type="line" smooth="yes"/>
      <point x="213" y="131"/>
      <point x="193" y="113"/>
      <point x="168" y="111" type="curve" smooth="yes"/>
      <point x="53" y="104" type="line"/>
      <point x="53" y="0" type="line"/>
      <point x="674" y="0" type="line"/>
      <point x="674" y="104" type="line"/>
      <point x="551" y="111" type="line" smooth="yes"/>
      <point x="526" y="113"/>
      <point x="506" y="131"/>
      <point x="506" y="156" type="curve" smooth="yes"/>
      <point x="506" y="264" type="line"/>
      <point x="541" y="261"/>
      <point x="602" y="258"/>
      <point x="639" y="258" type="curve" smooth="yes"/>
      <point x="991" y="258"/>
      <point x="1182" y="424"/>
    </contour>
    <contour>
      <point x="877" y="702" type="curve" smooth="yes"/>
      <point x="877" y="481"/>
      <point x="770" y="383"/>
      <point x="565" y="383" type="curve" smooth="yes"/>
      <point x="546" y="383"/>
      <point x="520" y="384"/>
      <point x="506" y="385" type="curve"/>
      <point x="506" y="997" type="line"/>
      <point x="541" y="999"/>
      <point x="578" y="1006"/>
      <point x="612" y="1006" type="curve" smooth="yes"/>
      <point x="764" y="1006"/>
      <point x="877" y="907"/>
    </contour>
  </outline>
</glyph>
<glyph name="LtnSmAe" format="2">
  <advance width="1579"/>
  <unicode hex="00E6"/>
  <anchor x="823" y="0" name="H"/>
  <anchor x="823" y="-100" name="L"/>
  <anchor x="1365" y="0" name="O"/>
  <anchor x="1579" y="1000" name="R"/>
  <anchor x="823" y="1100" name="U"/>
  <outline>
    <contour>
      <point x="328" y="-16" type="curve" smooth="yes"/>
      <point x="537" y="-16"/>
      <point x="723" y="133"/>
      <point x="723" y="133" type="curve"/>
      <point x="723" y="133"/>
      <point x="864" y="-16"/>
      <point x="1130" y="-16" type="curve" smooth="yes"/>
      <point x="1356" y="-16"/>
      <point x="1511" y="102"/>
      <point x="1511" y="102" type="curve"/>
      <point x="1511" y="264" type="line"/>
      <point x="1511" y="264"/>
      <point x="1382" y="154"/>
      <point x="1221" y="154" type="curve" smooth="yes"/>
      <point x="1010" y="154"/>
      <point x="918" y="276"/>
      <point x="918" y="276" type="curve"/>
      <point x="918" y="512" type="line"/>
      <point x="1511" y="512" type="line"/>
      <point x="1511" y="512"/>
      <point x="1513" y="539"/>
      <point x="1513" y="553" type="curve" smooth="yes"/>
      <point x="1513" y="799"/>
      <point x="1411" y="1026"/>
      <point x="1133" y="1026" type="curve" smooth="yes"/>
      <point x="948" y="1026"/>
      <point x="846" y="915"/>
      <point x="846" y="915" type="curve"/>
      <point x="846" y="915"/>
      <point x="756" y="1026"/>
      <point x="541" y="1026" type="curve" smooth="yes"/>
      <point x="340" y="1026"/>
      <point x="109" y="938"/>
      <point x="109" y="786" type="curve" smooth="yes"/>
      <point x="109" y="727"/>
      <point x="129" y="709"/>
      <point x="209" y="709" type="curve" smooth="yes"/>
      <point x="270" y="709"/>
      <point x="332" y="709"/>
      <point x="393" y="709" type="curve"/>
      <point x="393" y="905" type="line"/>
      <point x="393" y="905"/>
      <point x="440" y="913"/>
      <point x="465" y="913" type="curve" smooth="yes"/>
      <point x="596" y="913"/>
      <point x="655" y="846"/>
      <point x="655" y="700" type="curve" smooth="yes"/>
      <point x="655" y="700"/>
      <point x="655" y="678"/>
      <point x="655" y="643" type="curve"/>
      <point x="223" y="541"/>
      <point x="66" y="475"/>
      <point x="66" y="252" type="curve" smooth="yes"/>
      <point x="66" y="115"/>
      <point x="143" y="-16"/>
    </contour>
    <contour>
      <point x="479" y="150" type="curve" smooth="yes"/>
      <point x="393" y="150"/>
      <point x="348" y="221"/>
      <point x="348" y="303" type="curve" smooth="yes"/>
      <point x="348" y="401"/>
      <point x="393" y="463"/>
      <point x="655" y="532" type="curve"/>
      <point x="655" y="205" type="line"/>
      <point x="655" y="205"/>
      <point x="559" y="150"/>
    </contour>
    <contour>
      <point x="911" y="627" type="line"/>
      <point x="911" y="694"/>
      <point x="913" y="913"/>
      <point x="1085" y="913" type="curve" smooth="yes"/>
      <point x="1223" y="913"/>
      <point x="1233" y="752"/>
      <point x="1233" y="670" type="curve" smooth="yes"/>
      <point x="1233" y="627" type="line"/>
    </contour>
  </outline>
</glyph>
<glyph name="LtnSmOStrk" format="2">
  <advance width="1196"/>
  <unicode hex="00F8"/>
  <anchor x="599" y="0" name="H"/>
  <anchor x="599" y="-100" name="L"/>
  <anchor x="841" y="0" name="O"/>
  <anchor x="1196" y="1000" name="R"/>
  <anchor x="599" y="1100" name="U"/>
  <outline>
    <contour>
      <point x="1133" y="494" type="curve" smooth="yes"/>
      <point x="1133" y="698"/>
      <point x="1051" y="862"/>
      <point x="899" y="952" type="curve"/>
      <point x="995" y="1124" type="line"/>
      <point x="905" y="1176" type="line"/>
      <point x="803" y="993" type="line"/>
      <point x="745" y="1014"/>
      <point x="680" y="1024"/>
      <point x="606" y="1024" type="curve" smooth="yes"/>
      <point x="289" y="1024"/>
      <point x="66" y="831"/>
      <point x="66" y="496" type="curve" smooth="yes"/>
      <point x="66" y="297"/>
      <point x="145" y="147"/>
      <point x="281" y="59" type="curve"/>
      <point x="184" y="-113" type="line"/>
      <point x="274" y="-170" type="line"/>
      <point x="375" y="12" type="line"/>
      <point x="440" y="-12"/>
      <point x="512" y="-25"/>
      <point x="592" y="-25" type="curve" smooth="yes"/>
      <point x="932" y="-25"/>
      <point x="1133" y="188"/>
    </contour>
    <contour>
      <point x="727" y="856" type="curve"/>
      <point x="399" y="274" type="line"/>
      <point x="379" y="346"/>
      <point x="373" y="430"/>
      <point x="373" y="504" type="curve" smooth="yes"/>
      <point x="373" y="680"/>
      <point x="414" y="907"/>
      <point x="598" y="907" type="curve" smooth="yes"/>
      <point x="653" y="907"/>
      <point x="694" y="889"/>
    </contour>
    <contour>
      <point x="827" y="496" type="curve" smooth="yes"/>
      <point x="827" y="313"/>
      <point x="786" y="90"/>
      <point x="600" y="90" type="curve" smooth="yes"/>
      <point x="537" y="90"/>
      <point x="492" y="117"/>
      <point x="457" y="158" type="curve"/>
      <point x="788" y="754" type="line"/>
      <point x="817" y="674"/>
      <point x="827" y="578"/>
    </contour>
  </outline>
</glyph>
<glyph name="LtnSmDCaron" format="2">
  <advance width="1393"/>
  <unicode hex="010F"/>
  <anchor x="669" y="0" name="H"/>
  <anchor x="669" y="-100" name="L"/>
  <anchor x="665" y="1540" name="U"/>
  <outline>
    <contour>
      <point x="1194" y="0" type="line"/>
      <point x="1194" y="96" type="line"/>
      <point x="1108" y="102" type="line" smooth="yes"/>
      <point x="1083" y="104"/>
      <point x="1063" y="125"/>
      <point x="1063" y="150" type="curve" smooth="yes"/>
      <point x="1063" y="1516" type="line"/>
      <point x="958" y="1516" type="line"/>
      <point x="639" y="1413" type="line"/>
      <point x="639" y="1329" type="line"/>
      <point x="791" y="1329" type="line"/>
      <point x="791" y="999" type="line"/>
      <point x="791" y="999"/>
      <point x="678" y="1024"/>
      <point x="600" y="1024" type="curve" smooth="yes"/>
      <point x="291" y="1024"/>
      <point x="66" y="829"/>
      <point x="66" y="477" type="curve" smooth="yes"/>
      <point x="66" y="188"/>
      <point x="217" y="-25"/>
      <point x="467" y="-25" type="curve" smooth="yes"/>
      <point x="616" y="-25"/>
      <point x="760" y="102"/>
      <point x="791" y="119" type="curve"/>
      <point x="791" y="0" type="line"/>
    </contour>
    <contour>
      <point x="791" y="203" type="line"/>
      <point x="791" y="203"/>
      <point x="705" y="164"/>
      <point x="631" y="164" type="curve" smooth="yes"/>
      <point x="453" y="164"/>
      <point x="365" y="309"/>
      <point x="365" y="524" type="curve" smooth="yes"/>
      <point x="365" y="735"/>
      <point x="455" y="901"/>
      <point x="645" y="901" type="curve" smooth="yes"/>
      <point x="707" y="901"/>
      <point x="791" y="864"/>
      <point x="791" y="864" type="curve"/>
    </contour>
    <contour>
      <point x="1153" y="1087" type="line"/>
      <point x="1283" y="1087" type="line"/>
      <point x="1393" y="1432" type="line"/>
      <point x="1393" y="1516" type="line"/>
      <point x="1178" y="1516" type="line"/>
    </contour>
  </outline>
</glyph>
<glyph name="LtnSmDBarredStem" format="2">
  <advance width="1247"/>
  <unicode hex="0111"/>
  <anchor x="627" y="-100" name="L"/>
  <anchor x="627" y="1540" name="U"/>
  <outline>
    <contour>
      <point x="1247" y="1096" type="line"/>
      <point x="1247" y="1225" type="line"/>
      <point x="1063" y="1225" type="line"/>
      <point x="1063" y="1516" type="line"/>
      <point x="958" y="1516" type="line"/>
      <point x="639" y="1413" type="line"/>
      <point x="639" y="1329" type="line"/>
      <point x="791" y="1329" type="line"/>
      <point x="791" y="1225" type="line"/>
      <point x="494" y="1225" type="line"/>
      <point x="494" y="1096" type="line"/>
      <point x="791" y="1096" type="line"/>
      <point x="791" y="1006" type="line"/>
      <point x="791" y="1006"/>
      <point x="678" y="1024"/>
      <point x="600" y="1024" type="curve" smooth="yes"/>
      <point x="291" y="1024"/>
      <point x="66" y="829"/>
      <point x="66" y="477" type="curve" smooth="yes"/>
      <point x="66" y="188"/>
      <point x="217" y="-25"/>
      <point x="467" y="-25" type="curve" smooth="yes"/>
      <point x="616" y="-25"/>
      <point x="760" y="102"/>
      <point x="791" y="119" type="curve"/>
      <point x="791" y="0" type="line"/>
      <point x="1194" y="0" type="line"/>
      <point x="1194" y="96" type="line"/>
      <point x="1108" y="102" type="line" smooth="yes"/>
      <point x="1083" y="104"/>
      <point x="1063" y="125"/>
      <point x="1063" y="150" type="curve" smooth="yes"/>
      <point x="1063" y="1096" type="line"/>
    </contour>
    <contour>
      <point x="791" y="203" type="line"/>
      <point x="791" y="203"/>
      <point x="705" y="164"/>
      <point x="631" y="164" type="curve" smooth="yes"/>
      <point x="453" y="164"/>
      <point x="365" y="309"/>
      <point x="365" y="524" type="curve" smooth="yes"/>
      <point x="365" y="735"/>
      <point x="455" y="901"/>
      <point x="645" y="901" type="curve" smooth="yes"/>
      <point x="707" y="901"/>
      <point x="791" y="870"/>
      <point x="791" y="870" type="curve"/>
    </contour>
  </outline>
</glyph>
<glyph name="LtnSmEOgonek" format="2">
  <advance width="1083"/>
  <unicode hex="0119"/>
  <anchor x="568" y="-500" name="L"/>
  <anchor x="568" y="1100" name="U"/>
  <outline>
    <component base="LtnSmE"/>
    <contour>
      <point x="942" y="-362" type="curve"/>
      <point x="878" y="-256" type="line"/>
      <point x="866" y="-264"/>
      <point x="815" y="-307"/>
      <point x="788" y="-307" type="curve" smooth="yes"/>
      <point x="721" y="-307"/>
      <point x="686" y="-260"/>
      <point x="686" y="-201" type="curve" smooth="yes"/>
      <point x="686" y="-121"/>
      <point x="758" y="-26"/>
      <point x="846" y="17" type="curve"/>
      <point x="686" y="2" type="line"/>
      <point x="624" y="-41"/>
      <point x="520" y="-133"/>
      <point x="520" y="-254" type="curve" smooth="yes"/>
      <point x="520" y="-362"/>
      <point x="618" y="-426"/>
      <point x="747" y="-426" type="curve" smooth="yes"/>
      <point x="809" y="-426"/>
      <point x="942" y="-362"/>
    </contour>
  </outline>
</glyph>
<glyph name="LtnSmHCircum" format="2">
  <advance width="1282"/>
  <unicode hex="0125"/>
  <anchor x="321" y="0" name="H"/>
  <anchor x="634" y="-100" name="L"/>
  <anchor x="330" y="1940" name="U"/>
  <outline>
    <contour>
      <point x="1229" y="0" type="line"/>
      <point x="1229" y="96" type="line"/>
      <point x="1143" y="102" type="line" smooth="yes"/>
      <point x="1118" y="104"/>
      <point x="1098" y="125"/>
      <point x="1098" y="150" type="curve" smooth="yes"/>
      <point x="1098" y="702" type="line" smooth="yes"/>
      <point x="1098" y="823"/>
      <point x="1059" y="1024"/>
      <point x="817" y="1024" type="curve" smooth="yes"/>
      <point x="657" y="1024"/>
      <point x="459" y="897"/>
      <point x="459" y="897" type="curve"/>
      <point x="459" y="1516" type="line"/>
      <point x="352" y="1516" type="line"/>
      <point x="39" y="1413" type="line"/>
      <point x="39" y="1329" type="line"/>
      <point x="184" y="1329" type="line"/>
      <point x="184" y="150" type="line" smooth="yes"/>
      <point x="184" y="125"/>
      <point x="164" y="104"/>
      <point x="139" y="102" type="curve" smooth="yes"/>
      <point x="55" y="96" type="line"/>
      <point x="55" y="0" type="line"/>
      <point x="575" y="0" type="line"/>
      <point x="575" y="96" type="line"/>
      <point x="504" y="102" type="line" smooth="yes"/>
      <point x="479" y="104"/>
      <point x="459" y="125"/>
      <point x="459" y="150" type="curve" smooth="yes"/>
      <point x="459" y="809" type="line"/>
      <point x="459" y="809"/>
      <point x="569" y="836"/>
      <point x="651" y="836" type="curve" smooth="yes"/>
      <point x="803" y="836"/>
      <point x="823" y="700"/>
      <point x="823" y="633" type="curve" smooth="yes"/>
      <point x="823" y="150" type="line" smooth="yes"/>
      <point x="823" y="125"/>
      <point x="803" y="104"/>
      <point x="778" y="102" type="curve" smooth="yes"/>
      <point x="713" y="96" type="line"/>
      <point x="713" y="0" type="line"/>
    </contour>
    <contour>
      <point x="678" y="1568" type="line"/>
      <point x="451" y="1919" type="line"/>
      <point x="209" y="1919" type="line"/>
      <point x="-18" y="1568" type="line"/>
      <point x="152" y="1568" type="line"/>
      <point x="330" y="1763" type="line"/>
      <point x="508" y="1568" type="line"/>
    </contour>
  </outline>
</glyph>
<glyph name="LtnSmLCaron" format="2">
  <advance width="807"/>
  <unicode hex="013E"/>
  <anchor x="366" y="0" name="H"/>
  <anchor x="365" y="-100" name="L"/>
  <anchor x="365" y="1580" name="U"/>
  <outline>
    <contour>
      <point x="625" y="0" type="line"/>
      <point x="625" y="96" type="line"/>
      <point x="522" y="102" type="line" smooth="yes"/>
      <point x="496" y="104"/>
      <point x="477" y="123"/>
      <point x="477" y="150" type="curve" smooth="yes"/>
      <point x="477" y="1516" type="line"/>
      <point x="373" y="1516" type="line"/>
      <point x="59" y="1413" type="line"/>
      <point x="59" y="1329" type="line"/>
      <point x="205" y="1329" type="line"/>
      <point x="205" y="150" type="line" smooth="yes"/>
      <point x="205" y="123"/>
      <point x="186" y="104"/>
      <point x="160" y="102" type="curve" smooth="yes"/>
      <point x="59" y="96" type="line"/>
      <point x="59" y="0" type="line"/>
    </contour>
    <contour>
      <point x="567" y="1087" type="line"/>
      <point x="697" y="1087" type="line"/>
      <point x="807" y="1432" type="line"/>
      <point x="807" y="1516" type="line"/>
      <point x="592" y="1516" type="line"/>
    </contour>
  </outline>
</glyph>
<glyph name="LtnCapEng" format="2">
  <advance width="1552"/>
  <unicode hex="014A"/>
  <anchor x="815" y="-500" name="L"/>
  <anchor x="815" y="1500" name="U"/>
  <outline>
    <contour>
      <point x="1368" y="-76" type="curve"/>
      <point x="1368" y="956" type="line" smooth="yes"/>
      <point x="1368" y="1223"/>
      <point x="1239" y="1407"/>
      <point x="942" y="1407" type="curve" smooth="yes"/>
      <point x="772" y="1407"/>
      <point x="539" y="1303"/>
      <point x="508" y="1247" type="curve"/>
      <point x="508" y="1374" type="line"/>
      <point x="59" y="1374" type="line"/>
      <point x="59" y="1270" type="line"/>
      <point x="182" y="1260" type="line" smooth="yes"/>
      <point x="197" y="1260"/>
      <point x="213" y="1245"/>
      <point x="213" y="1233" type="curve" smooth="yes"/>
      <point x="213" y="170" type="line" smooth="yes"/>
      <point x="213" y="143"/>
      <point x="190" y="117"/>
      <point x="168" y="115" type="curve" smooth="yes"/>
      <point x="55" y="104" type="line"/>
      <point x="55" y="0" type="line"/>
      <point x="666" y="0" type="line"/>
      <point x="666" y="104" type="line"/>
      <point x="553" y="127" type="line" smooth="yes"/>
      <point x="530" y="131"/>
      <point x="506" y="143"/>
      <point x="506" y="170" type="curve" smooth="yes"/>
      <point x="506" y="1108" type="line"/>
      <point x="535" y="1145"/>
      <point x="727" y="1223"/>
      <point x="852" y="1223" type="curve" smooth="yes"/>
      <point x="1001" y="1223"/>
      <point x="1075" y="1040"/>
      <point x="1075" y="946" type="curve" smooth="yes"/>
      <point x="1075" y="-133" type="line" smooth="yes"/>
      <point x="1075" y="-238"/>
      <point x="1038" y="-315"/>
      <point x="944" y="-315" type="curve"/>
      <point x="817" y="-96" type="line"/>
      <point x="737" y="-96"/>
      <point x="668" y="-170"/>
      <point x="668" y="-262" type="curve" smooth="yes"/>
      <point x="668" y="-416"/>
      <point x="815" y="-473"/>
      <point x="1030" y="-473" type="curve" smooth="yes"/>
      <point x="1223" y="-473"/>
      <point x="1368" y="-283"/>
    </contour>
  </outline>
</glyph>
<glyph name="LtnSmTCaron" format="2">
  <advance width="768"/>
  <unicode hex="0165"/>
  <anchor x="404" y="0" name="H"/>
  <anchor x="404" y="-100" name="L"/>
  <anchor x="392" y="1363" name="U"/>
  <outline>
    <contour>
      <point x="760" y="45" type="curve"/>
      <point x="760" y="147" type="line"/>
      <point x="760" y="147"/>
      <point x="692" y="133"/>
      <point x="627" y="133" type="curve" smooth="yes"/>
      <point x="518" y="133"/>
      <point x="459" y="180"/>
      <point x="459" y="311" type="curve" smooth="yes"/>
      <point x="459" y="868" type="line"/>
      <point x="743" y="868" type="line"/>
      <point x="743" y="999" type="line"/>
      <point x="459" y="999" type="line"/>
      <point x="459" y="1262" type="line"/>
      <point x="317" y="1262" type="line"/>
      <point x="207" y="1044" type="line"/>
      <point x="49" y="950" type="line"/>
      <point x="49" y="868" type="line"/>
      <point x="184" y="868" type="line"/>
      <point x="184" y="227" type="line" smooth="yes"/>
      <point x="184" y="55"/>
      <point x="250" y="-25"/>
      <point x="432" y="-25" type="curve" smooth="yes"/>
      <point x="598" y="-25"/>
      <point x="760" y="45"/>
    </contour>
    <contour>
      <point x="547" y="1087" type="line"/>
      <point x="677" y="1087" type="line"/>
      <point x="787" y="1432" type="line"/>
      <point x="787" y="1516" type="line"/>
      <point x="572" y="1516" type="line"/>
    </contour>
  </outline>
</glyph>
<glyph name="LtnCapBTopbar" format="2">
  <advance width="1309"/>
  <unicode hex="0182"/>
  <anchor x="638" y="-100" name="L"/>
  <anchor x="638" y="1500" name="U"/>
  <outline>
    <contour>
      <point x="43" y="0" type="line"/>
      <point x="506" y="0"/>
      <point x="428" y="0"/>
      <point x="578" y="0" type="curve" smooth="yes"/>
      <point x="1044" y="0"/>
      <point x="1233" y="120"/>
      <point x="1233" y="399" type="curve" smooth="yes"/>
      <point x="1233" y="679"/>
      <point x="969" y="766"/>
      <point x="612" y="766" type="curve" smooth="yes"/>
      <point x="580" y="766"/>
      <point x="539" y="762"/>
      <point x="506" y="760" type="curve"/>
      <point x="506" y="1227" type="line" smooth="yes"/>
      <point x="506" y="1239"/>
      <point x="515" y="1257"/>
      <point x="536" y="1257" type="curve" smooth="yes"/>
      <point x="848" y="1257" type="line" smooth="yes"/>
      <point x="874" y="1257"/>
      <point x="887" y="1245"/>
      <point x="893" y="1212" type="curve"/>
      <point x="920" y="1038" type="line"/>
      <point x="1067" y="1038" type="line"/>
      <point x="1067" y="1374" type="line"/>
      <point x="326" y="1374"/>
      <point x="494" y="1374"/>
      <point x="43" y="1374" type="curve"/>
      <point x="43" y="1270" type="line"/>
      <point x="168" y="1260" type="line"/>
      <point x="193" y="1257"/>
      <point x="213" y="1241"/>
      <point x="213" y="1214" type="curve" smooth="yes"/>
      <point x="213" y="160" type="line" smooth="yes"/>
      <point x="213" y="133"/>
      <point x="193" y="117"/>
      <point x="168" y="115" type="curve" smooth="yes"/>
      <point x="43" y="104" type="line"/>
    </contour>
    <contour>
      <point x="567" y="113" type="curve" smooth="yes"/>
      <point x="545" y="113"/>
      <point x="522" y="115"/>
      <point x="506" y="115" type="curve"/>
      <point x="506" y="641" type="line"/>
      <point x="532" y="645"/>
      <point x="573" y="650"/>
      <point x="594" y="650" type="curve" smooth="yes"/>
      <point x="764" y="650"/>
      <point x="926" y="612"/>
      <point x="926" y="385" type="curve" smooth="yes"/>
      <point x="926" y="180"/>
      <point x="801" y="113"/>
    </contour>
  </outline>
</glyph>
<glyph name="LtnSmCHook" format="2">
  <advance width="1049"/>
  <unicode hex="0188"/>
  <anchor x="553" y="-100" name="L"/>
  <anchor x="569" y="1100" name="U"/>
  <outline>
    <contour>
      <point x="1194" y="1071" type="curve" smooth="yes"/>
      <point x="1194" y="1161"/>
      <point x="1087" y="1217"/>
      <point x="961" y="1217" type="curve" smooth="yes"/>
      <point x="831" y="1217"/>
      <point x="741" y="1128"/>
      <point x="709" y="1014" type="curve"/>
      <point x="672" y="1020"/>
      <point x="635" y="1024"/>
      <point x="594" y="1024" type="curve" smooth="yes"/>
      <point x="301" y="1024"/>
      <point x="66" y="803"/>
      <point x="66" y="479" type="curve" smooth="yes"/>
      <point x="66" y="211"/>
      <point x="242" y="-25"/>
      <point x="561" y="-25" type="curve" smooth="yes"/>
      <point x="768" y="-25"/>
      <point x="895" y="59"/>
      <point x="965" y="90" type="curve"/>
      <point x="965" y="248" type="line"/>
      <point x="938" y="227"/>
      <point x="803" y="147"/>
      <point x="678" y="147" type="curve" smooth="yes"/>
      <point x="485" y="147"/>
      <point x="367" y="299"/>
      <point x="367" y="539" type="curve" smooth="yes"/>
      <point x="367" y="793"/>
      <point x="502" y="920"/>
      <point x="627" y="920" type="curve" smooth="yes"/>
      <point x="641" y="920"/>
      <point x="666" y="918"/>
      <point x="666" y="918" type="curve"/>
      <point x="666" y="688" type="line"/>
      <point x="694" y="670"/>
      <point x="717" y="645"/>
      <point x="803" y="645" type="curve" smooth="yes"/>
      <point x="877" y="645"/>
      <point x="948" y="707"/>
      <point x="948" y="799" type="curve" smooth="yes"/>
      <point x="948" y="858"/>
      <point x="920" y="911"/>
      <point x="866" y="950" type="curve"/>
      <point x="866" y="1063"/>
      <point x="897" y="1135"/>
      <point x="993" y="1135" type="curve"/>
      <point x="1075" y="952" type="line"/>
      <point x="1075" y="952"/>
      <point x="1194" y="956"/>
    </contour>
  </outline>
</glyph>
<glyph name="LtnCapRevE" format="2">
  <advance width="1225"/>
  <unicode hex="018E"/>
  <anchor x="616" y="-100" name="L"/>
  <anchor x="616" y="1500" name="U"/>
  <outline>
    <contour>
      <point x="127" y="1374" type="line"/>
      <point x="127" y="1046" type="line"/>
      <point x="274" y="1046" type="line"/>
      <point x="307" y="1216" type="line" smooth="yes"/>
      <point x="311" y="1237"/>
      <point x="326" y="1255"/>
      <point x="344" y="1255" type="curve" smooth="yes"/>
      <point x="725" y="1255" type="line"/>
      <point x="725" y="774" type="line"/>
      <point x="481" y="774" type="line" smooth="yes"/>
      <point x="463" y="774"/>
      <point x="449" y="796"/>
      <point x="446" y="811" type="curve" smooth="yes"/>
      <point x="428" y="950" type="line"/>
      <point x="301" y="950" type="line"/>
      <point x="301" y="469" type="line"/>
      <point x="428" y="469" type="line"/>
      <point x="446" y="608" type="line" smooth="yes"/>
      <point x="449" y="622"/>
      <point x="465" y="645"/>
      <point x="481" y="645" type="curve" smooth="yes"/>
      <point x="725" y="645" type="line"/>
      <point x="725" y="123" type="line"/>
      <point x="279" y="123" type="line" smooth="yes"/>
      <point x="262" y="123"/>
      <point x="244" y="147"/>
      <point x="242" y="162" type="curve" smooth="yes"/>
      <point x="211" y="375" type="line"/>
      <point x="61" y="375" type="line"/>
      <point x="61" y="0" type="line"/>
      <point x="1171" y="0" type="line"/>
      <point x="1171" y="104" type="line"/>
      <point x="1059" y="114" type="line" smooth="yes"/>
      <point x="1036" y="117"/>
      <point x="1012" y="133"/>
      <point x="1012" y="160" type="curve" smooth="yes"/>
      <point x="1012" y="1214" type="line" smooth="yes"/>
      <point x="1012" y="1241"/>
      <point x="1036" y="1257"/>
      <point x="1059" y="1259" type="curve" smooth="yes"/>
      <point x="1171" y="1270" type="line"/>
      <point x="1171" y="1374" type="line"/>
    </contour>
  </outline>
</glyph>
<glyph name="LtnSmFHook" format="2">
  <advance width="711"/>
  <unicode hex="0192"/>
  <anchor x="328" y="-500" name="L"/>
  <anchor x="328" y="1540" name="U"/>
  <outline>
    <contour>
      <point x="-6" y="-473" type="curve" smooth="yes"/>
      <point x="131" y="-473"/>
      <point x="252" y="-406"/>
      <point x="334" y="-313" type="curve" smooth="yes"/>
      <point x="422" y="-213"/>
      <point x="467" y="-82"/>
      <point x="467" y="55" type="curve" smooth="yes"/>
      <point x="467" y="844" type="line"/>
      <point x="688" y="844" type="line"/>
      <point x="688" y="975" type="line"/>
      <point x="465" y="975" type="line"/>
      <point x="465" y="1094" type="line" smooth="yes"/>
      <point x="465" y="1280"/>
      <point x="489" y="1346"/>
      <point x="530" y="1407" type="curve"/>
      <point x="598" y="1344"/>
      <point x="665" y="1280"/>
      <point x="733" y="1217" type="curve"/>
      <point x="799" y="1239"/>
      <point x="860" y="1288"/>
      <point x="860" y="1352" type="curve" smooth="yes"/>
      <point x="860" y="1468"/>
      <point x="745" y="1516"/>
      <point x="664" y="1516" type="curve" smooth="yes"/>
      <point x="496" y="1516"/>
      <point x="358" y="1419"/>
      <point x="276" y="1284" type="curve" smooth="yes"/>
      <point x="221" y="1194"/>
      <point x="190" y="1100"/>
      <point x="190" y="993" type="curve"/>
      <point x="59" y="926" type="line"/>
      <point x="59" y="844" type="line"/>
      <point x="193" y="844" type="line"/>
      <point x="193" y="-59" type="line" smooth="yes"/>
      <point x="193" y="-246"/>
      <point x="170" y="-311"/>
      <point x="127" y="-373" type="curve"/>
      <point x="59" y="-309"/>
      <point x="-8" y="-246"/>
      <point x="-76" y="-182" type="curve"/>
      <point x="-141" y="-203"/>
      <point x="-203" y="-254"/>
      <point x="-203" y="-317" type="curve" smooth="yes"/>
      <point x="-203" y="-434"/>
      <point x="-88" y="-473"/>
    </contour>
  </outline>
</glyph>
<glyph name="LtnCapGamma" format="2">
  <advance width="1425"/>
  <unicode hex="0194"/>
  <anchor x="761" y="-100" name="L"/>
  <anchor x="761" y="1500" name="U"/>
  <outline>
    <contour>
      <point x="707" y="-33" type="curve" smooth="yes"/>
      <point x="885" y="-33"/>
      <point x="997" y="68"/>
      <point x="997" y="180" type="curve" smooth="yes"/>
      <point x="997" y="244"/>
      <point x="989" y="272"/>
      <point x="967" y="311" type="curve" smooth="yes"/>
      <point x="831" y="555" type="line"/>
      <point x="1276" y="1253" type="line"/>
      <point x="1405" y="1270" type="line"/>
      <point x="1405" y="1374" type="line"/>
      <point x="946" y="1374" type="line"/>
      <point x="946" y="1270" type="line"/>
      <point x="1057" y="1255" type="line" smooth="yes"/>
      <point x="1087" y="1251"/>
      <point x="1094" y="1227"/>
      <point x="1085" y="1212" type="curve" smooth="yes"/>
      <point x="748" y="709" type="line"/>
      <point x="469" y="1210" type="line" smooth="yes"/>
      <point x="461" y="1227"/>
      <point x="465" y="1251"/>
      <point x="489" y="1255" type="curve" smooth="yes"/>
      <point x="604" y="1270" type="line"/>
      <point x="604" y="1374" type="line"/>
      <point x="20" y="1374" type="line"/>
      <point x="20" y="1270" type="line"/>
      <point x="152" y="1251" type="line"/>
      <point x="582" y="459" type="line"/>
      <point x="469" y="293" type="line" smooth="yes"/>
      <point x="453" y="268"/>
      <point x="428" y="213"/>
      <point x="428" y="150" type="curve" smooth="yes"/>
      <point x="428" y="0"/>
      <point x="578" y="-33"/>
    </contour>
    <contour>
      <point x="668" y="90" type="curve" smooth="yes"/>
      <point x="621" y="90"/>
      <point x="602" y="116"/>
      <point x="602" y="166" type="curve" smooth="yes"/>
      <point x="602" y="193"/>
      <point x="612" y="211"/>
      <point x="623" y="227" type="curve" smooth="yes"/>
      <point x="668" y="297" type="line"/>
      <point x="707" y="227" type="line" smooth="yes"/>
      <point x="721" y="201"/>
      <point x="727" y="182"/>
      <point x="727" y="162" type="curve" smooth="yes"/>
      <point x="727" y="121"/>
      <point x="707" y="90"/>
    </contour>
  </outline>
</glyph>
<glyph name="LtnSmHv" format="2">
  <advance width="1889"/>
  <unicode hex="0195"/>
  <anchor x="971" y="-100" name="L"/>
  <anchor x="971" y="1100" name="U"/>
  <outline>
    <contour>
      <point x="1265" y="-33" type="curve" smooth="yes"/>
      <point x="1488" y="-33"/>
      <point x="1724" y="88"/>
      <point x="1724" y="295" type="curve" smooth="yes"/>
      <point x="1724" y="1024" type="line"/>
      <point x="1620" y="1024" type="line"/>
      <point x="1321" y="922" type="line"/>
      <point x="1321" y="838" type="line"/>
      <point x="1450" y="838" type="line"/>
      <point x="1450" y="280" type="line" smooth="yes"/>
      <point x="1450" y="178"/>
      <point x="1370" y="115"/>
      <point x="1286" y="115" type="curve" smooth="yes"/>
      <point x="1182" y="115"/>
      <point x="1098" y="184"/>
      <point x="1098" y="280" type="curve"/>
      <point x="1098" y="702" type="line" smooth="yes"/>
      <point x="1098" y="823"/>
      <point x="1059" y="1024"/>
      <point x="817" y="1024" type="curve" smooth="yes"/>
      <point x="657" y="1024"/>
      <point x="459" y="897"/>
      <point x="459" y="897" type="curve"/>
      <point x="459" y="1516" type="line"/>
      <point x="352" y="1516" type="line"/>
      <point x="39" y="1413" type="line"/>
      <point x="39" y="1329" type="line"/>
      <point x="184" y="1329" type="line"/>
      <point x="184" y="150" type="line" smooth="yes"/>
      <point x="184" y="125"/>
      <point x="164" y="104"/>
      <point x="139" y="102" type="curve" smooth="yes"/>
      <point x="55" y="96" type="line"/>
      <point x="55" y="0" type="line"/>
      <point x="575" y="0" type="line"/>
      <point x="575" y="96" type="line"/>
      <point x="504" y="102" type="line" smooth="yes"/>
      <point x="479" y="104"/>
      <point x="459" y="125"/>
      <point x="459" y="150" type="curve" smooth="yes"/>
      <point x="459" y="809" type="line"/>
      <point x="459" y="809"/>
      <point x="569" y="836"/>
      <point x="651" y="836" type="curve" smooth="yes"/>
      <point x="803" y="836"/>
      <point x="823" y="700"/>
      <point x="823" y="633" type="curve" smooth="yes"/>
      <point x="823" y="295" type="line"/>
      <point x="823" y="88"/>
      <point x="1017" y="-33"/>
    </contour>
  </outline>
</glyph>
<glyph name="LtnCapIStrk" format="2">
  <advance width="735"/>
  <unicode hex="0197"/>
  <anchor x="367" y="-100" name="L"/>
  <anchor x="367" y="1500" name="U"/>
  <outline>
    <contour>
      <point x="715" y="653" type="line"/>
      <point x="715" y="786" type="line"/>
      <point x="512" y="786" type="line"/>
      <point x="512" y="1214" type="line" smooth="yes"/>
      <point x="512" y="1241"/>
      <point x="537" y="1257"/>
      <point x="559" y="1260" type="curve" smooth="yes"/>
      <point x="686" y="1270" type="line"/>
      <point x="686" y="1374" type="line"/>
      <point x="47" y="1374" type="line"/>
      <point x="47" y="1270" type="line"/>
      <point x="174" y="1260" type="line" smooth="yes"/>
      <point x="199" y="1257"/>
      <point x="219" y="1241"/>
      <point x="219" y="1214" type="curve" smooth="yes"/>
      <point x="219" y="786" type="line"/>
      <point x="20" y="786" type="line"/>
      <point x="20" y="653" type="line"/>
      <point x="219" y="653" type="line"/>
      <point x="219" y="160" type="line" smooth="yes"/>
      <point x="219" y="133"/>
      <point x="199" y="117"/>
      <point x="174" y="115" type="curve" smooth="yes"/>
      <point x="47" y="104" type="line"/>
      <point x="47" y="0" type="line"/>
      <point x="686" y="0" type="line"/>
      <point x="686" y="104" type="line"/>
      <point x="559" y="115" type="line" smooth="yes"/>
      <point x="537" y="117"/>
      <point x="512" y="133"/>
      <point x="512" y="160" type="curve" smooth="yes"/>
      <point x="512" y="653" type="line"/>
    </contour>
  </outline>
</glyph>
<glyph name="LtnSmLambdaStrk" format="2">
  <advance width="1425"/>
  <unicode hex="019B"/>
  <anchor x="713" y="-100" name="L"/>
  <anchor x="713" y="1540" name="U"/>
  <outline>
    <contour>
      <point x="1110" y="-25" type="curve" smooth="yes"/>
      <point x="1337" y="-25"/>
      <point x="1407" y="35"/>
      <point x="1407" y="180" type="curve" smooth="yes"/>
      <point x="1407" y="262"/>
      <point x="1300" y="322"/>
      <point x="1204" y="322" type="curve"/>
      <point x="1112" y="141" type="line"/>
      <point x="1104" y="135"/>
      <point x="1098" y="131"/>
      <point x="1087" y="131" type="curve" smooth="yes"/>
      <point x="1047" y="131"/>
      <point x="1042" y="176"/>
      <point x="991" y="299" type="curve" smooth="yes"/>
      <point x="635" y="1165" type="line" smooth="yes"/>
      <point x="569" y="1325"/>
      <point x="465" y="1415"/>
      <point x="319" y="1415" type="curve" smooth="yes"/>
      <point x="92" y="1415"/>
      <point x="25" y="1358"/>
      <point x="25" y="1210" type="curve" smooth="yes"/>
      <point x="25" y="1126"/>
      <point x="131" y="1069"/>
      <point x="225" y="1069" type="curve"/>
      <point x="319" y="1249" type="line"/>
      <point x="328" y="1257"/>
      <point x="336" y="1262"/>
      <point x="344" y="1262" type="curve" smooth="yes"/>
      <point x="387" y="1262"/>
      <point x="385" y="1214"/>
      <point x="451" y="1096" type="curve"/>
      <point x="522" y="963" type="line"/>
      <point x="20" y="0" type="line"/>
      <point x="305" y="0" type="line"/>
      <point x="649" y="662" type="line"/>
      <point x="825" y="231" type="line"/>
      <point x="891" y="72"/>
      <point x="965" y="-25"/>
    </contour>
    <contour>
      <point x="209" y="772" type="line"/>
      <point x="760" y="1268" type="line"/>
      <point x="760" y="1431" type="line"/>
      <point x="209" y="944" type="line"/>
    </contour>
  </outline>
</glyph>
<glyph name="LtnCapNLftHook" format="2">
  <advance width="1571"/>
  <unicode hex="019D"/>
  <anchor x="769" y="-100" name="L"/>
  <anchor x="769" y="1500" name="U"/>
  <outline>
    <contour>
      <point x="1516" y="0" type="line"/>
      <point x="1516" y="104" type="line"/>
      <point x="1403" y="115" type="line" smooth="yes"/>
      <point x="1380" y="117"/>
      <point x="1356" y="133"/>
      <point x="1356" y="160" type="curve" smooth="yes"/>
      <point x="1356" y="958" type="line" smooth="yes"/>
      <point x="1356" y="1227"/>
      <point x="1217" y="1407"/>
      <point x="920" y="1407" type="curve" smooth="yes"/>
      <point x="731" y="1407"/>
      <point x="532" y="1286"/>
      <point x="506" y="1247" type="curve"/>
      <point x="506" y="1374" type="line"/>
      <point x="47" y="1374" type="line"/>
      <point x="47" y="1270" type="line"/>
      <point x="182" y="1260" type="line" smooth="yes"/>
      <point x="197" y="1260"/>
      <point x="213" y="1245"/>
      <point x="213" y="1233" type="curve" smooth="yes"/>
      <point x="213" y="-55" type="line" smooth="yes"/>
      <point x="213" y="-160"/>
      <point x="211" y="-311"/>
      <point x="156" y="-352" type="curve"/>
      <point x="-45" y="-139" type="line"/>
      <point x="-121" y="-164"/>
      <point x="-174" y="-213"/>
      <point x="-174" y="-305" type="curve" smooth="yes"/>
      <point x="-174" y="-438"/>
      <point x="-49" y="-473"/>
      <point x="68" y="-473" type="curve" smooth="yes"/>
      <point x="281" y="-473"/>
      <point x="506" y="-270"/>
      <point x="506" y="16" type="curve" smooth="yes"/>
      <point x="506" y="1108" type="line"/>
      <point x="535" y="1145"/>
      <point x="705" y="1223"/>
      <point x="829" y="1223" type="curve" smooth="yes"/>
      <point x="979" y="1223"/>
      <point x="1063" y="1040"/>
      <point x="1063" y="946" type="curve" smooth="yes"/>
      <point x="1063" y="160" type="line" smooth="yes"/>
      <point x="1063" y="133"/>
      <point x="1040" y="117"/>
      <point x="1018" y="115" type="curve" smooth="yes"/>
      <point x="895" y="104" type="line"/>
      <point x="895" y="0" type="line"/>
    </contour>
  </outline>
</glyph>
<glyph name="LtnCapOHorn" format="2">
  <advance width="1693"/>
  <unicode hex="01A0"/>
  <anchor x="763" y="-100" name="L"/>
  <anchor x="763" y="1500" name="U"/>
  <outline>
    <contour>
      <point x="1663" y="1430" type="curve" smooth="yes"/>
      <point x="1663" y="1630"/>
      <point x="1616" y="1737"/>
      <point x="1427" y="1737" type="curve" smooth="yes"/>
      <point x="1339" y="1737"/>
      <point x="1237" y="1665"/>
      <point x="1237" y="1559" type="curve" smooth="yes"/>
      <point x="1237" y="1485"/>
      <point x="1319" y="1421"/>
      <point x="1319" y="1421" type="curve"/>
      <point x="1503" y="1421" type="line"/>
      <point x="1503" y="1309"/>
      <point x="1452" y="1204"/>
      <point x="1321" y="1145" type="curve"/>
      <point x="1198" y="1305"/>
      <point x="1006" y="1407"/>
      <point x="768" y="1407" type="curve" smooth="yes"/>
      <point x="332" y="1407"/>
      <point x="76" y="1100"/>
      <point x="76" y="696" type="curve" smooth="yes"/>
      <point x="76" y="231"/>
      <point x="377" y="-33"/>
      <point x="786" y="-33" type="curve" smooth="yes"/>
      <point x="1198" y="-33"/>
      <point x="1475" y="289"/>
      <point x="1475" y="680" type="curve" smooth="yes"/>
      <point x="1475" y="815"/>
      <point x="1442" y="940"/>
      <point x="1382" y="1049" type="curve"/>
      <point x="1552" y="1118"/>
      <point x="1663" y="1262"/>
    </contour>
    <contour>
      <point x="1145" y="672" type="curve" smooth="yes"/>
      <point x="1145" y="408"/>
      <point x="1040" y="96"/>
      <point x="766" y="96" type="curve" smooth="yes"/>
      <point x="514" y="96"/>
      <point x="403" y="399"/>
      <point x="403" y="690" type="curve" smooth="yes"/>
      <point x="403" y="965"/>
      <point x="502" y="1270"/>
      <point x="786" y="1270" type="curve" smooth="yes"/>
      <point x="1024" y="1270"/>
      <point x="1145" y="993"/>
    </contour>
  </outline>
</glyph>
<glyph name="LtnCapOi" format="2">
  <advance width="2177"/>
  <unicode hex="01A2"/>
  <anchor x="778" y="-100" name="L"/>
  <anchor x="1093" y="1500" name="U"/>
  <outline>
    <contour>
      <point x="2112" y="-340" type="line"/>
      <point x="1954" y="-333" type="line" smooth="yes"/>
      <point x="1927" y="-332"/>
      <point x="1908" y="-311"/>
      <point x="1908" y="-288" type="curve" smooth="yes"/>
      <point x="1908" y="1407" type="line"/>
      <point x="1754" y="1407" type="line"/>
      <point x="1322" y="1241" type="line"/>
      <point x="1136" y="1358"/>
      <point x="1000" y="1407"/>
      <point x="775" y="1407" type="curve" smooth="yes"/>
      <point x="321" y="1407"/>
      <point x="74" y="1102"/>
      <point x="74" y="688" type="curve" smooth="yes"/>
      <point x="74" y="293"/>
      <point x="317" y="-33"/>
      <point x="784" y="-33" type="curve" smooth="yes"/>
      <point x="1046" y="-33"/>
      <point x="1268" y="96"/>
      <point x="1332" y="229" type="curve"/>
      <point x="1332" y="1095" type="line"/>
      <point x="1615" y="1157" type="line"/>
      <point x="1615" y="-288" type="line" smooth="yes"/>
      <point x="1615" y="-314"/>
      <point x="1593" y="-332"/>
      <point x="1570" y="-333" type="curve" smooth="yes"/>
      <point x="1396" y="-340" type="line"/>
      <point x="1396" y="-446" type="line"/>
      <point x="2112" y="-446" type="line"/>
    </contour>
    <contour>
      <point x="1039" y="274" type="line"/>
      <point x="975" y="141"/>
      <point x="873" y="96"/>
      <point x="764" y="96" type="curve" smooth="yes"/>
      <point x="540" y="96"/>
      <point x="401" y="341"/>
      <point x="401" y="690" type="curve" smooth="yes"/>
      <point x="401" y="996"/>
      <point x="519" y="1270"/>
      <point x="784" y="1270" type="curve" smooth="yes"/>
      <point x="903" y="1270"/>
      <point x="933" y="1259"/>
      <point x="1039" y="1209" type="curve"/>
    </contour>
  </outline>
</glyph>
<glyph name="LtnSmOi" format="2">
  <advance width="1758"/>
  <unicode hex="01A3"/>
  <anchor x="658" y="-100" name="L"/>
  <anchor x="884" y="1100" name="U"/>
  <outline>
    <contour>
      <point x="373" y="504" type="curve" smooth="yes"/>
      <point x="373" y="727"/>
      <point x="435" y="907"/>
      <point x="598" y="907" type="curve" smooth="yes"/>
      <point x="685" y="907"/>
      <point x="726" y="884"/>
      <point x="790" y="840" type="curve"/>
      <point x="790" y="209" type="line"/>
      <point x="761" y="134"/>
      <point x="684" y="90"/>
      <point x="600" y="90" type="curve" smooth="yes"/>
      <point x="431" y="90"/>
      <point x="373" y="282"/>
    </contour>
    <contour>
      <point x="1049" y="889" type="line"/>
      <point x="890" y="972"/>
      <point x="768" y="1024"/>
      <point x="606" y="1024" type="curve" smooth="yes"/>
      <point x="272" y="1024"/>
      <point x="66" y="820"/>
      <point x="66" y="492" type="curve" smooth="yes"/>
      <point x="66" y="181"/>
      <point x="270" y="-25"/>
      <point x="592" y="-25" type="curve" smooth="yes"/>
      <point x="815" y="-25"/>
      <point x="965" y="37"/>
      <point x="1049" y="142" type="curve"/>
    </contour>
    <contour>
      <point x="909" y="862" type="line"/>
      <point x="976" y="753" type="line"/>
      <point x="1283" y="807" type="line"/>
      <point x="1283" y="-296" type="line"/>
      <point x="1283" y="-327"/>
      <point x="1265" y="-345"/>
      <point x="1238" y="-346" type="curve" smooth="yes"/>
      <point x="1125" y="-352" type="line"/>
      <point x="1125" y="-449" type="line"/>
      <point x="1687" y="-449" type="line"/>
      <point x="1687" y="-352" type="line"/>
      <point x="1603" y="-346" type="line" smooth="yes"/>
      <point x="1579" y="-344"/>
      <point x="1555" y="-327"/>
      <point x="1555" y="-296" type="curve" smooth="yes"/>
      <point x="1555" y="1024" type="line"/>
      <point x="1440" y="1024" type="line"/>
    </contour>
  </outline>
</glyph>
<glyph name="LtnCapPHook" format="2">
  <advance width="1456"/>
  <unicode hex="01A4"/>
  <anchor x="691" y="-100" name="L"/>
  <anchor x="691" y="1500" name="U"/>
  <outline>
    <contour>
      <point x="1382" y="958" type="curve" smooth="yes"/>
      <point x="1382" y="1319"/>
      <point x="1102" y="1374"/>
      <point x="825" y="1374" type="curve" smooth="yes"/>
      <point x="289" y="1374" type="line" smooth="yes"/>
      <point x="127" y="1374"/>
      <point x="0" y="1237"/>
      <point x="0" y="1100" type="curve" smooth="yes"/>
      <point x="0" y="956"/>
      <point x="84" y="918"/>
      <point x="143" y="918" type="curve" smooth="yes"/>
      <point x="217" y="918"/>
      <point x="261" y="973"/>
      <point x="274" y="1014" type="curve"/>
      <point x="137" y="1210" type="line"/>
      <point x="156" y="1247"/>
      <point x="229" y="1255"/>
      <point x="299" y="1255" type="curve" smooth="yes"/>
      <point x="387" y="1255" type="line" smooth="yes"/>
      <point x="408" y="1255"/>
      <point x="418" y="1245"/>
      <point x="418" y="1227" type="curve" smooth="yes"/>
      <point x="418" y="160" type="line" smooth="yes"/>
      <point x="418" y="133"/>
      <point x="393" y="117"/>
      <point x="371" y="115" type="curve" smooth="yes"/>
      <point x="256" y="104" type="line"/>
      <point x="256" y="0" type="line"/>
      <point x="885" y="0" type="line"/>
      <point x="885" y="104" type="line"/>
      <point x="756" y="115" type="line" smooth="yes"/>
      <point x="731" y="117"/>
      <point x="711" y="133"/>
      <point x="711" y="160" type="curve" smooth="yes"/>
      <point x="711" y="508" type="line"/>
      <point x="764" y="504"/>
      <point x="805" y="504"/>
      <point x="846" y="504" type="curve" smooth="yes"/>
      <point x="1108" y="504"/>
      <point x="1382" y="608"/>
    </contour>
    <contour>
      <point x="1077" y="948" type="curve" smooth="yes"/>
      <point x="1077" y="715"/>
      <point x="952" y="629"/>
      <point x="766" y="629" type="curve" smooth="yes"/>
      <point x="748" y="629"/>
      <point x="741" y="629"/>
      <point x="711" y="631" type="curve"/>
      <point x="711" y="1249" type="line"/>
      <point x="755" y="1249"/>
      <point x="816" y="1249"/>
      <point x="825" y="1249" type="curve" smooth="yes"/>
      <point x="975" y="1249"/>
      <point x="1077" y="1139"/>
    </contour>
  </outline>
</glyph>
<glyph name="LtnSmPHook" format="2">
  <advance width="1237"/>
  <unicode hex="01A5"/>
  <anchor x="849" y="-100" name="L"/>
  <anchor x="610" y="1500" name="U"/>
  <outline>
    <contour>
      <point x="49" y="-449" type="line"/>
      <point x="612" y="-449" type="line"/>
      <point x="612" y="-352" type="line"/>
      <point x="504" y="-346" type="line"/>
      <point x="479" y="-346"/>
      <point x="459" y="-326"/>
      <point x="459" y="-299" type="curve" smooth="yes"/>
      <point x="459" y="-4" type="line"/>
      <point x="493" y="-13"/>
      <point x="559" y="-25"/>
      <point x="618" y="-25" type="curve" smooth="yes"/>
      <point x="956" y="-25"/>
      <point x="1171" y="197"/>
      <point x="1171" y="528" type="curve" smooth="yes"/>
      <point x="1171" y="772"/>
      <point x="1038" y="1024"/>
      <point x="788" y="1024" type="curve" smooth="yes"/>
      <point x="668" y="1024"/>
      <point x="530" y="950"/>
      <point x="459" y="895" type="curve"/>
      <point x="459" y="953" type="line" smooth="yes"/>
      <point x="459" y="1207"/>
      <point x="502" y="1288"/>
      <point x="614" y="1325" type="curve"/>
      <point x="802" y="1110" type="line"/>
      <point x="802" y="1110"/>
      <point x="915" y="1171"/>
      <point x="915" y="1267" type="curve" smooth="yes"/>
      <point x="915" y="1407"/>
      <point x="784" y="1440"/>
      <point x="674" y="1440" type="curve" smooth="yes"/>
      <point x="384" y="1440"/>
      <point x="184" y="1279"/>
      <point x="184" y="990" type="curve" smooth="yes"/>
      <point x="184" y="-299" type="line" smooth="yes"/>
      <point x="184" y="-326"/>
      <point x="164" y="-346"/>
      <point x="139" y="-346" type="curve"/>
      <point x="49" y="-352" type="line"/>
    </contour>
    <contour>
      <point x="571" y="86" type="curve" smooth="yes"/>
      <point x="540" y="86"/>
      <point x="489" y="100"/>
      <point x="459" y="111" type="curve"/>
      <point x="459" y="807" type="line"/>
      <point x="493" y="820"/>
      <point x="558" y="838"/>
      <point x="610" y="838" type="curve" smooth="yes"/>
      <point x="788" y="838"/>
      <point x="868" y="678"/>
      <point x="868" y="498" type="curve" smooth="yes"/>
      <point x="868" y="268"/>
      <point x="768" y="86"/>
    </contour>
  </outline>
</glyph>
<glyph name="LtnYr" format="2">
  <advance width="1329"/>
  <unicode hex="01A6"/>
  <anchor x="715" y="-100" name="L"/>
  <anchor x="715" y="1500" name="U"/>
  <outline>
    <contour>
      <point x="1209" y="-159" type="curve" smooth="yes"/>
      <point x="1280" y="-159"/>
      <point x="1338" y="-148"/>
      <point x="1383" y="-132" type="curve"/>
      <point x="1383" y="-22" type="line"/>
      <point x="1363" y="-27"/>
      <point x="1329" y="-27"/>
      <point x="1314" y="-27" type="curve" smooth="yes"/>
      <point x="1213" y="-27"/>
      <point x="1140" y="132"/>
      <point x="1048" y="334" type="curve" smooth="yes"/>
      <point x="1000" y="439"/>
      <point x="931" y="532"/>
      <point x="828" y="571" type="curve"/>
      <point x="1023" y="607"/>
      <point x="1145" y="700"/>
      <point x="1145" y="878" type="curve" smooth="yes"/>
      <point x="1145" y="1104"/>
      <point x="926" y="1158"/>
      <point x="607" y="1158" type="curve" smooth="yes"/>
      <point x="512" y="1158" type="line"/>
      <point x="512" y="1214" type="line" smooth="yes"/>
      <point x="512" y="1241"/>
      <point x="537" y="1257"/>
      <point x="559" y="1260" type="curve"/>
      <point x="686" y="1270" type="line"/>
      <point x="686" y="1374" type="line"/>
      <point x="47" y="1374" type="line"/>
      <point x="47" y="1270" type="line"/>
      <point x="167" y="1261" type="line" smooth="yes"/>
      <point x="197" y="1259"/>
      <point x="219" y="1247"/>
      <point x="219" y="1209" type="curve" smooth="yes"/>
      <point x="219" y="160" type="line" smooth="yes"/>
      <point x="219" y="132"/>
      <point x="199" y="117"/>
      <point x="174" y="115" type="curve" smooth="yes"/>
      <point x="47" y="104" type="line"/>
      <point x="47" y="0" type="line"/>
      <point x="686" y="0" type="line"/>
      <point x="686" y="104" type="line"/>
      <point x="559" y="115" type="line" smooth="yes"/>
      <point x="529" y="118"/>
      <point x="512" y="137"/>
      <point x="512" y="157" type="curve" smooth="yes"/>
      <point x="512" y="558" type="line"/>
      <point x="528" y="558" type="line" smooth="yes"/>
      <point x="646" y="558"/>
      <point x="720" y="401"/>
      <point x="797" y="233" type="curve" smooth="yes"/>
      <point x="884" y="43"/>
      <point x="991" y="-159"/>
    </contour>
    <contour>
      <point x="624" y="680" type="curve" smooth="yes"/>
      <point x="570" y="680"/>
      <point x="537" y="682"/>
      <point x="512" y="684" type="curve"/>
      <point x="512" y="1035" type="line"/>
      <point x="574" y="1035" type="line"/>
      <point x="729" y="1035"/>
      <point x="844" y="1008"/>
      <point x="844" y="864" type="curve" smooth="yes"/>
      <point x="844" y="751"/>
      <point x="738" y="680"/>
    </contour>
  </outline>
</glyph>
<glyph name="LtnCapTnTwo" format="2">
  <advance width="1116"/>
  <unicode hex="01A7"/>
  <anchor x="558" y="-100" name="L"/>
  <anchor x="558" y="1500" name="U"/>
  <outline>
    <contour>
      <point x="612" y="-33" type="curve" smooth="yes"/>
      <point x="767" y="-33"/>
      <point x="932" y="11"/>
      <point x="1013" y="45" type="curve"/>
      <point x="1027" y="420" type="line"/>
      <point x="865" y="420" type="line"/>
      <point x="823" y="172" type="line" smooth="yes"/>
      <point x="820" y="156"/>
      <point x="800" y="141"/>
      <point x="794" y="141" type="curve"/>
      <point x="759" y="126"/>
      <point x="691" y="106"/>
      <point x="634" y="106" type="curve" smooth="yes"/>
      <point x="515" y="106"/>
      <point x="378" y="180"/>
      <point x="378" y="313" type="curve" smooth="yes"/>
      <point x="378" y="477"/>
      <point x="569" y="523"/>
      <point x="726" y="627" type="curve" smooth="yes"/>
      <point x="882" y="731"/>
      <point x="1039" y="846"/>
      <point x="1039" y="1049" type="curve" smooth="yes"/>
      <point x="1039" y="1302"/>
      <point x="827" y="1407"/>
      <point x="569" y="1407" type="curve" smooth="yes"/>
      <point x="416" y="1407"/>
      <point x="257" y="1360"/>
      <point x="180" y="1325" type="curve"/>
      <point x="168" y="989" type="line"/>
      <point x="326" y="989" type="line"/>
      <point x="368" y="1208" type="line"/>
      <point x="396" y="1241"/>
      <point x="465" y="1270"/>
      <point x="522" y="1270" type="curve" smooth="yes"/>
      <point x="653" y="1270"/>
      <point x="756" y="1210"/>
      <point x="756" y="1095" type="curve" smooth="yes"/>
      <point x="756" y="942"/>
      <point x="603" y="886"/>
      <point x="449" y="801" type="curve" smooth="yes"/>
      <point x="278" y="705"/>
      <point x="77" y="569"/>
      <point x="77" y="325" type="curve" smooth="yes"/>
      <point x="77" y="50"/>
      <point x="328" y="-33"/>
    </contour>
  </outline>
</glyph>
<glyph name="LtnCapEsh" format="2">
  <advance width="1190"/>
  <unicode hex="01A9"/>
  <anchor x="595" y="-100" name="L"/>
  <anchor x="595" y="1500" name="U"/>
  <outline>
    <contour>
      <point x="1114" y="0" type="line"/>
      <point x="1114" y="403" type="line"/>
      <point x="965" y="403" type="line"/>
      <point x="924" y="150" type="line"/>
      <point x="920" y="135"/>
      <point x="909" y="127"/>
      <point x="891" y="127" type="curve" smooth="yes"/>
      <point x="394" y="127" type="line"/>
      <point x="788" y="715" type="line"/>
      <point x="442" y="1249" type="line"/>
      <point x="885" y="1249" type="line" smooth="yes"/>
      <point x="901" y="1249"/>
      <point x="911" y="1241"/>
      <point x="914" y="1225" type="curve" smooth="yes"/>
      <point x="948" y="1001" type="line"/>
      <point x="1100" y="1001" type="line"/>
      <point x="1100" y="1374" type="line"/>
      <point x="117" y="1374" type="line"/>
      <point x="117" y="1253" type="line"/>
      <point x="472" y="715" type="line"/>
      <point x="76" y="121" type="line"/>
      <point x="76" y="0" type="line"/>
    </contour>
  </outline>
</glyph>
<glyph name="LtnCapTHook" format="2">
  <advance width="1237"/>
  <unicode hex="01AC"/>
  <anchor x="602" y="-100" name="L"/>
  <anchor x="602" y="1500" name="U"/>
  <outline>
    <contour>
      <point x="301" y="0" type="line"/>
      <point x="926" y="0" type="line"/>
      <point x="926" y="104" type="line"/>
      <point x="807" y="115" type="line" smooth="yes"/>
      <point x="783" y="117"/>
      <point x="760" y="133"/>
      <point x="760" y="160" type="curve" smooth="yes"/>
      <point x="760" y="1251" type="line"/>
      <point x="989" y="1251" type="line" smooth="yes"/>
      <point x="1006" y="1251"/>
      <point x="1018" y="1243"/>
      <point x="1020" y="1227" type="curve" smooth="yes"/>
      <point x="1057" y="999" type="line"/>
      <point x="1204" y="999" type="line"/>
      <point x="1204" y="1374" type="line"/>
      <point x="322" y="1374" type="line" smooth="yes"/>
      <point x="166" y="1374"/>
      <point x="0" y="1333"/>
      <point x="0" y="1098" type="curve" smooth="yes"/>
      <point x="0" y="979"/>
      <point x="72" y="885"/>
      <point x="187" y="885" type="curve" smooth="yes"/>
      <point x="240" y="885"/>
      <point x="307" y="928"/>
      <point x="307" y="1022" type="curve"/>
      <point x="172" y="1145" type="line"/>
      <point x="172" y="1167" type="line" smooth="yes"/>
      <point x="172" y="1223"/>
      <point x="223" y="1251"/>
      <point x="269" y="1251" type="curve" smooth="yes"/>
      <point x="467" y="1251" type="line"/>
      <point x="467" y="160" type="line" smooth="yes"/>
      <point x="467" y="133"/>
      <point x="445" y="117"/>
      <point x="422" y="115" type="curve" smooth="yes"/>
      <point x="301" y="104" type="line"/>
    </contour>
  </outline>
</glyph>
<glyph name="LtnSmTHook" format="2">
  <advance width="768"/>
  <unicode hex="01AD"/>
  <anchor x="441" y="-100" name="L"/>
  <anchor x="441" y="1500" name="U"/>
  <outline>
    <contour>
      <point x="432" y="-25" type="curve" smooth="yes"/>
      <point x="541" y="-25"/>
      <point x="682" y="11"/>
      <point x="760" y="45" type="curve"/>
      <point x="760" y="147" type="line"/>
      <point x="726" y="141"/>
      <point x="671" y="133"/>
      <point x="627" y="133" type="curve" smooth="yes"/>
      <point x="518" y="133"/>
      <point x="459" y="180"/>
      <point x="459" y="311" type="curve" smooth="yes"/>
      <point x="459" y="868" type="line"/>
      <point x="743" y="868" type="line"/>
      <point x="743" y="999" type="line"/>
      <point x="459" y="999" type="line"/>
      <point x="459" y="1223"/>
      <point x="462" y="1288"/>
      <point x="544" y="1325" type="curve"/>
      <point x="732" y="1110" type="line"/>
      <point x="732" y="1110"/>
      <point x="845" y="1171"/>
      <point x="845" y="1267" type="curve" smooth="yes"/>
      <point x="845" y="1407"/>
      <point x="714" y="1440"/>
      <point x="604" y="1440" type="curve" smooth="yes"/>
      <point x="344" y="1440"/>
      <point x="184" y="1279"/>
      <point x="184" y="1022" type="curve"/>
      <point x="49" y="950" type="line"/>
      <point x="49" y="868" type="line"/>
      <point x="184" y="868" type="line"/>
      <point x="184" y="227" type="line" smooth="yes"/>
      <point x="184" y="55"/>
      <point x="250" y="-25"/>
    </contour>
  </outline>
</glyph>
<glyph name="LtnCapTRetrHook" format="2">
  <advance width="1247"/>
  <unicode hex="01AE"/>
  <anchor x="623" y="-500" name="L"/>
  <anchor x="623" y="1500" name="U"/>
  <outline>
    <contour>
      <point x="866" y="-473" type="curve" smooth="yes"/>
      <point x="1022" y="-473"/>
      <point x="1159" y="-414"/>
      <point x="1159" y="-287" type="curve" smooth="yes"/>
      <point x="1159" y="-193"/>
      <point x="1108" y="-121"/>
      <point x="1030" y="-121" type="curve"/>
      <point x="903" y="-340" type="line"/>
      <point x="807" y="-340"/>
      <point x="770" y="-262"/>
      <point x="770" y="-158" type="curve"/>
      <point x="770" y="1251" type="line"/>
      <point x="999" y="1251" type="line" smooth="yes"/>
      <point x="1016" y="1251"/>
      <point x="1026" y="1243"/>
      <point x="1028" y="1227" type="curve" smooth="yes"/>
      <point x="1065" y="999" type="line"/>
      <point x="1214" y="999" type="line"/>
      <point x="1214" y="1374" type="line"/>
      <point x="33" y="1374" type="line"/>
      <point x="33" y="999" type="line"/>
      <point x="180" y="999" type="line"/>
      <point x="217" y="1227" type="line" smooth="yes"/>
      <point x="219" y="1243"/>
      <point x="231" y="1251"/>
      <point x="248" y="1251" type="curve" smooth="yes"/>
      <point x="477" y="1251" type="line"/>
      <point x="477" y="-49" type="line"/>
      <point x="477" y="-356"/>
      <point x="653" y="-473"/>
    </contour>
  </outline>
</glyph>
<glyph name="LtnCapYHook.RtHook" format="2">
  <advance width="1628"/>
  <unicode hex="01B3"/>
  <anchor x="676" y="-100" name="L"/>
  <anchor x="860" y="0" name="O"/>
  <anchor x="676" y="1500" name="U"/>
  <outline>
    <contour>
      <point x="375" y="0" type="line"/>
      <point x="1010" y="0" type="line"/>
      <point x="1010" y="104" type="line"/>
      <point x="885" y="115" type="line" smooth="yes"/>
      <point x="860" y="117"/>
      <point x="840" y="133"/>
      <point x="840" y="160" type="curve" smooth="yes"/>
      <point x="840" y="594" type="line"/>
      <point x="1117" y="1072" type="line" smooth="yes"/>
      <point x="1229" y="1265"/>
      <point x="1275" y="1307"/>
      <point x="1336" y="1314" type="curve"/>
      <point x="1510" y="1181" type="line"/>
      <point x="1569" y="1210"/>
      <point x="1628" y="1257"/>
      <point x="1628" y="1335" type="curve" smooth="yes"/>
      <point x="1628" y="1423"/>
      <point x="1548" y="1498"/>
      <point x="1438" y="1498" type="curve" smooth="yes"/>
      <point x="1236" y="1498"/>
      <point x="1146" y="1427"/>
      <point x="995" y="1165" type="curve" smooth="yes"/>
      <point x="741" y="725" type="line"/>
      <point x="483" y="1210" type="line" smooth="yes"/>
      <point x="469" y="1237"/>
      <point x="479" y="1260"/>
      <point x="494" y="1260" type="curve"/>
      <point x="602" y="1270" type="line"/>
      <point x="602" y="1374" type="line"/>
      <point x="20" y="1374" type="line"/>
      <point x="20" y="1270" type="line"/>
      <point x="152" y="1251" type="line"/>
      <point x="547" y="537" type="line"/>
      <point x="547" y="160" type="line" smooth="yes"/>
      <point x="547" y="133"/>
      <point x="522" y="117"/>
      <point x="500" y="115" type="curve" smooth="yes"/>
      <point x="375" y="104" type="line"/>
    </contour>
  </outline>
</glyph>
<glyph name="LtnSmYHook.RtHook" format="2">
  <advance width="1258"/>
  <unicode hex="01B4"/>
  <anchor x="870" y="-100" name="L"/>
  <anchor x="516" y="-391" name="O"/>
  <anchor x="646" y="1100" name="U"/>
  <outline>
    <contour>
      <point x="242" y="-473" type="curve" smooth="yes"/>
      <point x="324" y="-473"/>
      <point x="392" y="-437"/>
      <point x="449" y="-381" type="curve" smooth="yes"/>
      <point x="558" y="-276"/>
      <point x="633" y="-106"/>
      <point x="678" y="20" type="curve" smooth="yes"/>
      <point x="977" y="865" type="line" smooth="yes"/>
      <point x="1043" y="1050"/>
      <point x="1115" y="1167"/>
      <point x="1156" y="1184" type="curve"/>
      <point x="1320" y="1040" type="line"/>
      <point x="1379" y="1069"/>
      <point x="1438" y="1117"/>
      <point x="1438" y="1195" type="curve" smooth="yes"/>
      <point x="1438" y="1283"/>
      <point x="1358" y="1358"/>
      <point x="1238" y="1358" type="curve" smooth="yes"/>
      <point x="1102" y="1358"/>
      <point x="980" y="1302"/>
      <point x="861" y="955" type="curve" smooth="yes"/>
      <point x="645" y="326" type="line"/>
      <point x="434" y="852" type="line" smooth="yes"/>
      <point x="426" y="874"/>
      <point x="440" y="895"/>
      <point x="465" y="897" type="curve" smooth="yes"/>
      <point x="559" y="903" type="line"/>
      <point x="559" y="999" type="line"/>
      <point x="20" y="999" type="line"/>
      <point x="20" y="903" type="line"/>
      <point x="141" y="891" type="line"/>
      <point x="506" y="-18" type="line"/>
      <point x="487" y="-88"/>
      <point x="428" y="-221"/>
      <point x="354" y="-291" type="curve"/>
      <point x="180" y="-158" type="line"/>
      <point x="121" y="-186"/>
      <point x="61" y="-233"/>
      <point x="61" y="-309" type="curve" smooth="yes"/>
      <point x="61" y="-410"/>
      <point x="162" y="-473"/>
    </contour>
  </outline>
</glyph>
<glyph name="LtnInvGlottalStopStrk" format="2">
  <advance width="983"/>
  <unicode hex="01BE"/>
  <anchor x="485" y="-100" name="L"/>
  <anchor x="485" y="1540" name="U"/>
  <outline>
    <contour>
      <point x="907" y="365" type="curve" smooth="yes"/>
      <point x="907" y="623"/>
      <point x="703" y="761"/>
      <point x="549" y="793" type="curve"/>
      <point x="549" y="862" type="line"/>
      <point x="762" y="862" type="line"/>
      <point x="762" y="991" type="line"/>
      <point x="549" y="991" type="line"/>
      <point x="549" y="1221" type="line" smooth="yes"/>
      <point x="549" y="1247"/>
      <point x="567" y="1264"/>
      <point x="594" y="1266" type="curve" smooth="yes"/>
      <point x="725" y="1278" type="line"/>
      <point x="725" y="1382" type="line"/>
      <point x="98" y="1382" type="line"/>
      <point x="98" y="1278" type="line"/>
      <point x="229" y="1266" type="line" smooth="yes"/>
      <point x="256" y="1264"/>
      <point x="274" y="1247"/>
      <point x="274" y="1221" type="curve" smooth="yes"/>
      <point x="274" y="991" type="line"/>
      <point x="63" y="991" type="line"/>
      <point x="63" y="862" type="line"/>
      <point x="274" y="862" type="line"/>
      <point x="274" y="762" type="line"/>
      <point x="427" y="716"/>
      <point x="629" y="575"/>
      <point x="629" y="360" type="curve" smooth="yes"/>
      <point x="629" y="246"/>
      <point x="573" y="98"/>
      <point x="444" y="98" type="curve" smooth="yes"/>
      <point x="403" y="98"/>
      <point x="383" y="100"/>
      <point x="350" y="123" type="curve"/>
      <point x="279" y="297" type="line"/>
      <point x="249" y="307"/>
      <point x="218" y="313"/>
      <point x="188" y="313" type="curve" smooth="yes"/>
      <point x="143" y="313"/>
      <point x="76" y="293"/>
      <point x="76" y="207" type="curve" smooth="yes"/>
      <point x="76" y="29"/>
      <point x="276" y="-25"/>
      <point x="442" y="-25" type="curve" smooth="yes"/>
      <point x="709" y="-25"/>
      <point x="907" y="127"/>
    </contour>
  </outline>
</glyph>
<glyph name="LtnSmOOgonek" format="2">
  <advance width="1196"/>
  <unicode hex="01EB"/>
  <anchor x="599" y="0" name="H"/>
  <anchor x="670" y="-400" name="L"/>
  <anchor x="1196" y="1000" name="R"/>
  <anchor x="599" y="1100" name="U"/>
  <outline>
    <contour>
      <point x="962" y="-362" type="curve"/>
      <point x="898" y="-256" type="line"/>
      <point x="886" y="-264"/>
      <point x="835" y="-307"/>
      <point x="808" y="-307" type="curve" smooth="yes"/>
      <point x="741" y="-307"/>
      <point x="706" y="-260"/>
      <point x="706" y="-201" type="curve" smooth="yes"/>
      <point x="706" y="-121"/>
      <point x="777" y="-21"/>
      <point x="892" y="49" type="curve"/>
      <point x="706" y="2" type="line"/>
      <point x="644" y="-41"/>
      <point x="540" y="-133"/>
      <point x="540" y="-254" type="curve" smooth="yes"/>
      <point x="540" y="-362"/>
      <point x="638" y="-426"/>
      <point x="767" y="-426" type="curve" smooth="yes"/>
      <point x="829" y="-426"/>
      <point x="962" y="-362"/>
    </contour>
    <contour>
      <point x="1133" y="494" type="curve" smooth="yes"/>
      <point x="1133" y="805"/>
      <point x="944" y="1024"/>
      <point x="606" y="1024" type="curve" smooth="yes"/>
      <point x="289" y="1024"/>
      <point x="66" y="831"/>
      <point x="66" y="496" type="curve" smooth="yes"/>
      <point x="66" y="172"/>
      <point x="281" y="-25"/>
      <point x="592" y="-25" type="curve" smooth="yes"/>
      <point x="932" y="-25"/>
      <point x="1133" y="188"/>
    </contour>
    <contour>
      <point x="827" y="496" type="curve" smooth="yes"/>
      <point x="827" y="313"/>
      <point x="786" y="90"/>
      <point x="600" y="90" type="curve" smooth="yes"/>
      <point x="410" y="90"/>
      <point x="373" y="328"/>
      <point x="373" y="504" type="curve" smooth="yes"/>
      <point x="373" y="680"/>
      <point x="414" y="907"/>
      <point x="598" y="907" type="curve" smooth="yes"/>
      <point x="786" y="907"/>
      <point x="827" y="670"/>
    </contour>
  </outline>
</glyph>
<glyph name="LtnCapHwair" format="2">
  <advance width="2153"/>
  <unicode hex="01F6"/>
  <anchor x="1024" y="-100" name="L"/>
  <anchor x="1024" y="1500" name="U"/>
  <outline>
    <contour>
      <point x="1988" y="1024" type="line"/>
      <point x="1884" y="1024" type="line"/>
      <point x="1585" y="922" type="line"/>
      <point x="1585" y="838" type="line"/>
      <point x="1714" y="838" type="line"/>
      <point x="1714" y="280" type="line"/>
      <point x="1714" y="178"/>
      <point x="1634" y="115"/>
      <point x="1550" y="115" type="curve" smooth="yes"/>
      <point x="1446" y="115"/>
      <point x="1362" y="184"/>
      <point x="1362" y="280" type="curve" smooth="yes"/>
      <point x="1362" y="1214" type="line" smooth="yes"/>
      <point x="1362" y="1241"/>
      <point x="1384" y="1257"/>
      <point x="1407" y="1260" type="curve"/>
      <point x="1513" y="1270" type="line"/>
      <point x="1513" y="1374" type="line"/>
      <point x="918" y="1374" type="line"/>
      <point x="918" y="1270" type="line"/>
      <point x="1024" y="1260" type="line" smooth="yes"/>
      <point x="1049" y="1257"/>
      <point x="1069" y="1241"/>
      <point x="1069" y="1214" type="curve" smooth="yes"/>
      <point x="1069" y="786" type="line"/>
      <point x="506" y="786" type="line"/>
      <point x="506" y="1214" type="line" smooth="yes"/>
      <point x="506" y="1241"/>
      <point x="526" y="1257"/>
      <point x="551" y="1260" type="curve"/>
      <point x="659" y="1270" type="line"/>
      <point x="659" y="1374" type="line"/>
      <point x="61" y="1374" type="line"/>
      <point x="61" y="1270" type="line"/>
      <point x="168" y="1260" type="line" smooth="yes"/>
      <point x="193" y="1257"/>
      <point x="213" y="1241"/>
      <point x="213" y="1214" type="curve" smooth="yes"/>
      <point x="213" y="160" type="line" smooth="yes"/>
      <point x="213" y="133"/>
      <point x="193" y="117"/>
      <point x="168" y="115" type="curve" smooth="yes"/>
      <point x="61" y="104" type="line"/>
      <point x="61" y="0" type="line"/>
      <point x="659" y="0" type="line"/>
      <point x="659" y="104" type="line"/>
      <point x="551" y="115" type="line" smooth="yes"/>
      <point x="526" y="117"/>
      <point x="506" y="133"/>
      <point x="506" y="160" type="curve" smooth="yes"/>
      <point x="506" y="655" type="line"/>
      <point x="1069" y="655" type="line"/>
      <point x="1069" y="295" type="line" smooth="yes"/>
      <point x="1069" y="88"/>
      <point x="1281" y="-33"/>
      <point x="1529" y="-33" type="curve" smooth="yes"/>
      <point x="1752" y="-33"/>
      <point x="1988" y="88"/>
      <point x="1988" y="295" type="curve" smooth="yes"/>
    </contour>
  </outline>
</glyph>
<glyph name="LtnCapOu" format="2">
  <advance width="1251"/>
  <unicode hex="0222"/>
  <anchor x="595" y="-100" name="L"/>
  <anchor x="595" y="1585" name="U"/>
  <outline>
    <contour>
      <point x="1178" y="369" type="curve" smooth="yes"/>
      <point x="1178" y="574"/>
      <point x="1006" y="703"/>
      <point x="806" y="732" type="curve"/>
      <point x="955" y="757"/>
      <point x="1122" y="839"/>
      <point x="1122" y="1051" type="curve" smooth="yes"/>
      <point x="1122" y="1286"/>
      <point x="881" y="1407"/>
      <point x="627" y="1407" type="curve" smooth="yes"/>
      <point x="380" y="1407"/>
      <point x="133" y="1286"/>
      <point x="133" y="1051" type="curve" smooth="yes"/>
      <point x="133" y="839"/>
      <point x="300" y="752"/>
      <point x="446" y="732" type="curve"/>
      <point x="248" y="708"/>
      <point x="76" y="575"/>
      <point x="76" y="369" type="curve" smooth="yes"/>
      <point x="76" y="133"/>
      <point x="322" y="-33"/>
      <point x="627" y="-33" type="curve" smooth="yes"/>
      <point x="914" y="-33"/>
      <point x="1178" y="134"/>
    </contour>
    <contour>
      <point x="839" y="1045" type="curve" smooth="yes"/>
      <point x="839" y="931"/>
      <point x="755" y="794"/>
      <point x="626" y="794" type="curve" smooth="yes"/>
      <point x="494" y="794"/>
      <point x="409" y="931"/>
      <point x="409" y="1045" type="curve" smooth="yes"/>
      <point x="409" y="1183"/>
      <point x="494" y="1303"/>
      <point x="627" y="1303" type="curve" smooth="yes"/>
      <point x="745" y="1303"/>
      <point x="839" y="1183"/>
    </contour>
    <contour>
      <point x="877" y="385" type="curve" smooth="yes"/>
      <point x="877" y="247"/>
      <point x="777" y="88"/>
      <point x="627" y="88" type="curve" smooth="yes"/>
      <point x="458" y="88"/>
      <point x="372" y="239"/>
      <point x="372" y="385" type="curve" smooth="yes"/>
      <point x="372" y="519"/>
      <point x="487" y="670"/>
      <point x="626" y="670" type="curve" smooth="yes"/>
      <point x="758" y="670"/>
      <point x="877" y="541"/>
    </contour>
  </outline>
</glyph>
<glyph name="LtnCapZHook" format="2">
  <advance width="1190"/>
  <unicode hex="0224"/>
  <anchor x="648" y="-100" name="L"/>
  <anchor x="648" y="1500" name="U"/>
  <outline>
    <contour>
      <point x="903" y="-327" type="curve"/>
      <point x="989" y="-327" type="line"/>
      <point x="1098" y="-239"/>
      <point x="1182" y="-87"/>
      <point x="1182" y="7" type="curve" smooth="yes"/>
      <point x="1182" y="73"/>
      <point x="1176" y="104"/>
      <point x="1154" y="127" type="curve"/>
      <point x="403" y="127" type="line"/>
      <point x="1104" y="1253" type="line"/>
      <point x="1104" y="1374" type="line"/>
      <point x="111" y="1374" type="line"/>
      <point x="111" y="1001" type="line"/>
      <point x="260" y="1001" type="line"/>
      <point x="297" y="1225" type="line" smooth="yes"/>
      <point x="300" y="1241"/>
      <point x="309" y="1249"/>
      <point x="326" y="1249" type="curve" smooth="yes"/>
      <point x="778" y="1249" type="line"/>
      <point x="76" y="121" type="line"/>
      <point x="76" y="0" type="line"/>
      <point x="957" y="0" type="line"/>
      <point x="970" y="-20"/>
      <point x="977" y="-39"/>
      <point x="977" y="-91" type="curve" smooth="yes"/>
      <point x="977" y="-172"/>
      <point x="949" y="-273"/>
    </contour>
  </outline>
</glyph>
<glyph name="LtnSmTCurl" format="2">
  <advance width="768"/>
  <unicode hex="0236"/>
  <anchor x="394" y="-100" name="L"/>
  <anchor x="394" y="1363" name="U"/>
  <outline>
    <contour>
      <point x="827" y="221" type="curve" smooth="yes"/>
      <point x="827" y="358"/>
      <point x="717" y="434"/>
      <point x="596" y="434" type="curve" smooth="yes"/>
      <point x="547" y="434"/>
      <point x="492" y="416"/>
      <point x="459" y="399" type="curve"/>
      <point x="459" y="868" type="line"/>
      <point x="743" y="868" type="line"/>
      <point x="743" y="999" type="line"/>
      <point x="459" y="999" type="line"/>
      <point x="459" y="1262" type="line"/>
      <point x="317" y="1262" type="line"/>
      <point x="207" y="1044" type="line"/>
      <point x="49" y="950" type="line"/>
      <point x="49" y="868" type="line"/>
      <point x="184" y="868" type="line"/>
      <point x="184" y="195" type="line"/>
      <point x="76" y="70"/>
      <point x="0" y="-82"/>
      <point x="-39" y="-176" type="curve"/>
      <point x="63" y="-223" type="line"/>
      <point x="99" y="-154"/>
      <point x="158" y="-43"/>
      <point x="236" y="57" type="curve"/>
      <point x="293" y="-12"/>
      <point x="395" y="-25"/>
      <point x="508" y="-25" type="curve" smooth="yes"/>
      <point x="637" y="-25"/>
      <point x="827" y="82"/>
    </contour>
    <contour>
      <point x="662" y="225" type="curve" smooth="yes"/>
      <point x="662" y="170"/>
      <point x="606" y="117"/>
      <point x="555" y="117" type="curve" smooth="yes"/>
      <point x="469" y="117"/>
      <point x="459" y="178"/>
      <point x="459" y="248" type="curve"/>
      <point x="494" y="270"/>
      <point x="541" y="295"/>
      <point x="594" y="295" type="curve" smooth="yes"/>
      <point x="635" y="295"/>
      <point x="662" y="264"/>
    </contour>
  </outline>
</glyph>
<glyph name="LtnSmQPDigraph" format="2">
  <advance width="1829"/>
  <unicode hex="0239"/>
  <anchor x="914" y="-500" name="L"/>
  <anchor x="914" y="1100" name="U"/>
  <outline>
    <contour>
      <point x="618" y="-449" type="line"/>
      <point x="1180" y="-449" type="line"/>
      <point x="1180" y="-352" type="line"/>
      <point x="1096" y="-346" type="line"/>
      <point x="1071" y="-346"/>
      <point x="1051" y="-326"/>
      <point x="1051" y="-299" type="curve"/>
      <point x="1051" y="-4" type="line"/>
      <point x="1085" y="-13"/>
      <point x="1151" y="-25"/>
      <point x="1210" y="-25" type="curve" smooth="yes"/>
      <point x="1548" y="-25"/>
      <point x="1763" y="197"/>
      <point x="1763" y="528" type="curve" smooth="yes"/>
      <point x="1763" y="772"/>
      <point x="1630" y="1024"/>
      <point x="1380" y="1024" type="curve" smooth="yes"/>
      <point x="1260" y="1024"/>
      <point x="1122" y="950"/>
      <point x="1051" y="895" type="curve"/>
      <point x="1051" y="999" type="line"/>
      <point x="971" y="1010"/>
      <point x="828" y="1024"/>
      <point x="727" y="1024" type="curve" smooth="yes"/>
      <point x="340" y="1024"/>
      <point x="66" y="856"/>
      <point x="66" y="469" type="curve" smooth="yes"/>
      <point x="66" y="205"/>
      <point x="221" y="-25"/>
      <point x="467" y="-25" type="curve" smooth="yes"/>
      <point x="588" y="-25"/>
      <point x="715" y="35"/>
      <point x="776" y="80" type="curve"/>
      <point x="776" y="-299" type="line" smooth="yes"/>
      <point x="776" y="-326"/>
      <point x="758" y="-346"/>
      <point x="731" y="-346" type="curve"/>
      <point x="618" y="-352" type="line"/>
    </contour>
    <contour>
      <point x="645" y="154" type="curve" smooth="yes"/>
      <point x="469" y="154"/>
      <point x="365" y="293"/>
      <point x="365" y="516" type="curve" smooth="yes"/>
      <point x="365" y="735"/>
      <point x="451" y="903"/>
      <point x="694" y="903" type="curve" smooth="yes"/>
      <point x="728" y="903"/>
      <point x="761" y="898"/>
      <point x="776" y="895" type="curve"/>
      <point x="776" y="162" type="line"/>
      <point x="745" y="159"/>
      <point x="689" y="154"/>
    </contour>
    <contour>
      <point x="1163" y="86" type="curve" smooth="yes"/>
      <point x="1132" y="86"/>
      <point x="1081" y="100"/>
      <point x="1051" y="111" type="curve"/>
      <point x="1051" y="807" type="line"/>
      <point x="1085" y="820"/>
      <point x="1150" y="838"/>
      <point x="1202" y="838" type="curve" smooth="yes"/>
      <point x="1380" y="838"/>
      <point x="1460" y="678"/>
      <point x="1460" y="498" type="curve" smooth="yes"/>
      <point x="1460" y="268"/>
      <point x="1360" y="86"/>
    </contour>
  </outline>
</glyph>
<glyph name="LtnCapAStrk" format="2">
  <advance width="1405"/>
  <unicode hex="023A"/>
  <anchor x="1129" y="0" name="H"/>
  <anchor x="702" y="-100" name="L"/>
  <anchor x="1290" y="0" name="O"/>
  <anchor x="702" y="1500" name="U"/>
  <outline>
    <component base="LtnCapA"/>
    <contour>
      <point x="154" y="-117" type="line"/>
      <point x="258" y="-178" type="line"/>
      <point x="1202" y="1473" type="line"/>
      <point x="1096" y="1532" type="line"/>
    </contour>
  </outline>
</glyph>
<glyph name="LtnSmSSwashTail" format="2">
  <advance width="911"/>
  <unicode hex="023F"/>
  <anchor x="500" y="-500" name="L"/>
  <anchor x="500" y="1100" name="U"/>
  <outline>
    <contour>
      <point x="737" y="-473" type="curve" smooth="yes"/>
      <point x="801" y="-473"/>
      <point x="935" y="-444"/>
      <point x="935" y="-317" type="curve" smooth="yes"/>
      <point x="935" y="-220"/>
      <point x="808" y="-182"/>
      <point x="808" y="-182" type="curve"/>
      <point x="664" y="-317" type="line"/>
      <point x="631" y="-317"/>
      <point x="462" y="-69"/>
      <point x="378" y="-18" type="curve"/>
      <point x="404" y="-25"/>
      <point x="411" y="-25"/>
      <point x="430" y="-25" type="curve"/>
      <point x="630" y="-25"/>
      <point x="848" y="61"/>
      <point x="848" y="319" type="curve" smooth="yes"/>
      <point x="848" y="457"/>
      <point x="696" y="530"/>
      <point x="559" y="599" type="curve" smooth="yes"/>
      <point x="451" y="653"/>
      <point x="352" y="707"/>
      <point x="352" y="788" type="curve" smooth="yes"/>
      <point x="352" y="860"/>
      <point x="410" y="901"/>
      <point x="506" y="901" type="curve" smooth="yes"/>
      <point x="580" y="901"/>
      <point x="639" y="881"/>
      <point x="666" y="850" type="curve"/>
      <point x="688" y="686" type="line"/>
      <point x="815" y="686" type="line"/>
      <point x="815" y="969" type="line"/>
      <point x="815" y="969"/>
      <point x="692" y="1024"/>
      <point x="489" y="1024" type="curve" smooth="yes"/>
      <point x="250" y="1024"/>
      <point x="78" y="903"/>
      <point x="78" y="713" type="curve" smooth="yes"/>
      <point x="78" y="578"/>
      <point x="178" y="508"/>
      <point x="293" y="451" type="curve" smooth="yes"/>
      <point x="430" y="383"/>
      <point x="586" y="338"/>
      <point x="586" y="227" type="curve" smooth="yes"/>
      <point x="586" y="180"/>
      <point x="549" y="96"/>
      <point x="410" y="96" type="curve" smooth="yes"/>
      <point x="344" y="96"/>
      <point x="225" y="141"/>
      <point x="219" y="154" type="curve"/>
      <point x="195" y="342" type="line"/>
      <point x="66" y="342" type="line"/>
      <point x="66" y="31" type="line"/>
      <point x="226" y="31"/>
      <point x="483" y="-473"/>
    </contour>
  </outline>
</glyph>
<glyph name="LtnSmZSwashTail" format="2">
  <advance width="1006"/>
  <unicode hex="0240"/>
  <anchor x="540" y="-500" name="L"/>
  <anchor x="540" y="1100" name="U"/>
  <outline>
    <contour>
      <point x="911" y="885" type="line"/>
      <point x="911" y="999" type="line"/>
      <point x="82" y="999" type="line"/>
      <point x="82" y="682" type="line"/>
      <point x="227" y="682" type="line"/>
      <point x="242" y="840" type="line"/>
      <point x="242" y="858"/>
      <point x="260" y="883"/>
      <point x="281" y="883" type="curve" smooth="yes"/>
      <point x="590" y="883" type="line"/>
      <point x="66" y="133" type="line"/>
      <point x="66" y="0" type="line"/>
      <point x="132" y="0" type="line"/>
      <point x="329" y="0"/>
      <point x="489" y="-473"/>
      <point x="817" y="-473" type="curve" smooth="yes"/>
      <point x="881" y="-473"/>
      <point x="1015" y="-444"/>
      <point x="1015" y="-317" type="curve" smooth="yes"/>
      <point x="1015" y="-246"/>
      <point x="943" y="-198"/>
      <point x="888" y="-182" type="curve"/>
      <point x="744" y="-317" type="line"/>
      <point x="656" y="-317"/>
      <point x="494" y="61"/>
      <point x="375" y="121" type="curve"/>
    </contour>
  </outline>
</glyph>
<glyph name="LtnCapTurnedV" format="2">
  <advance width="1446"/>
  <unicode hex="0245"/>
  <anchor x="722" y="-100" name="L"/>
  <anchor x="722" y="1500" name="U"/>
  <outline>
    <contour>
      <point x="1425" y="0" type="line"/>
      <point x="1425" y="104" type="line"/>
      <point x="1294" y="123" type="line"/>
      <point x="813" y="1407" type="line"/>
      <point x="618" y="1407" type="line"/>
      <point x="150" y="121" type="line"/>
      <point x="20" y="104" type="line"/>
      <point x="20" y="0" type="line"/>
      <point x="479" y="0" type="line"/>
      <point x="479" y="104" type="line"/>
      <point x="369" y="119" type="line" smooth="yes"/>
      <point x="338" y="123"/>
      <point x="334" y="145"/>
      <point x="340" y="162" type="curve" smooth="yes"/>
      <point x="653" y="1055" type="line"/>
      <point x="977" y="164" type="line" smooth="yes"/>
      <point x="983" y="147"/>
      <point x="981" y="123"/>
      <point x="956" y="119" type="curve" smooth="yes"/>
      <point x="842" y="104" type="line"/>
      <point x="842" y="0" type="line"/>
    </contour>
  </outline>
</glyph>
<glyph name="LtnCapEStrk" format="2">
  <advance width="1225"/>
  <unicode hex="0246"/>
  <anchor x="632" y="-100" name="L"/>
  <anchor x="632" y="1500" name="U"/>
  <outline>
    <component base="LtnCapE"/>
    <contour>
      <point x="54" y="-117" type="line"/>
      <point x="158" y="-178" type="line"/>
      <point x="1102" y="1473" type="line"/>
      <point x="996" y="1532" type="line"/>
    </contour>
  </outline>
</glyph>
<glyph name="LtnSmJStrk" format="2">
  <advance width="664"/>
  <unicode hex="0249"/>
  <anchor x="145" y="-500" name="L"/>
  <anchor x="371" y="-383" name="O"/>
  <anchor x="340" y="1500" name="U"/>
  <outline>
    <contour>
      <point x="498" y="1358" type="curve" smooth="yes"/>
      <point x="498" y="1446"/>
      <point x="428" y="1516"/>
      <point x="340" y="1516" type="curve" smooth="yes"/>
      <point x="252" y="1516"/>
      <point x="180" y="1446"/>
      <point x="180" y="1358" type="curve" smooth="yes"/>
      <point x="180" y="1270"/>
      <point x="252" y="1198"/>
      <point x="340" y="1198" type="curve" smooth="yes"/>
      <point x="428" y="1198"/>
      <point x="498" y="1270"/>
    </contour>
    <contour>
      <point x="637" y="444" type="line"/>
      <point x="637" y="573" type="line"/>
      <point x="477" y="573" type="line"/>
      <point x="477" y="1024" type="line"/>
      <point x="373" y="1024" type="line"/>
      <point x="59" y="922" type="line"/>
      <point x="59" y="838" type="line"/>
      <point x="205" y="838" type="line"/>
      <point x="205" y="573" type="line"/>
      <point x="27" y="573" type="line"/>
      <point x="27" y="444" type="line"/>
      <point x="205" y="444" type="line"/>
      <point x="205" y="-10" type="line"/>
      <point x="205" y="-10"/>
      <point x="211" y="-279"/>
      <point x="147" y="-383" type="curve"/>
      <point x="-53" y="-180" type="line"/>
      <point x="-123" y="-186"/>
      <point x="-184" y="-244"/>
      <point x="-184" y="-317" type="curve" smooth="yes"/>
      <point x="-184" y="-418"/>
      <point x="-90" y="-473"/>
      <point x="20" y="-473" type="curve" smooth="yes"/>
      <point x="178" y="-473"/>
      <point x="291" y="-408"/>
      <point x="365" y="-307" type="curve" smooth="yes"/>
      <point x="442" y="-199"/>
      <point x="477" y="-53"/>
      <point x="477" y="96" type="curve" smooth="yes"/>
      <point x="477" y="444" type="line"/>
    </contour>
  </outline>
</glyph>
<glyph name="LtnSmQHookTail" format="2">
  <advance width="1260"/>
  <unicode hex="024B"/>
  <anchor x="469" y="-100" name="L"/>
  <anchor x="768" y="1100" name="U"/>
  <outline>
    <contour>
      <point x="1253" y="-473" type="curve" smooth="yes"/>
      <point x="1343" y="-473"/>
      <point x="1470" y="-428"/>
      <point x="1470" y="-322" type="curve" smooth="yes"/>
      <point x="1470" y="-252"/>
      <point x="1440" y="-162"/>
      <point x="1321" y="-162" type="curve"/>
      <point x="1161" y="-367" type="line"/>
      <point x="1096" y="-379"/>
      <point x="1051" y="-193"/>
      <point x="1051" y="-49" type="curve"/>
      <point x="1051" y="999" type="line"/>
      <point x="971" y="1010"/>
      <point x="828" y="1024"/>
      <point x="727" y="1024" type="curve" smooth="yes"/>
      <point x="340" y="1024"/>
      <point x="66" y="856"/>
      <point x="66" y="469" type="curve" smooth="yes"/>
      <point x="66" y="205"/>
      <point x="221" y="-25"/>
      <point x="467" y="-25" type="curve" smooth="yes"/>
      <point x="588" y="-25"/>
      <point x="715" y="35"/>
      <point x="776" y="80" type="curve"/>
      <point x="776" y="-49" type="line" smooth="yes"/>
      <point x="776" y="-375"/>
      <point x="983" y="-473"/>
    </contour>
    <contour>
      <point x="645" y="154" type="curve" smooth="yes"/>
      <point x="469" y="154"/>
      <point x="365" y="293"/>
      <point x="365" y="516" type="curve" smooth="yes"/>
      <point x="365" y="735"/>
      <point x="451" y="903"/>
      <point x="694" y="903" type="curve" smooth="yes"/>
      <point x="728" y="903"/>
      <point x="761" y="898"/>
      <point x="776" y="895" type="curve"/>
      <point x="776" y="162" type="line"/>
      <point x="745" y="159"/>
      <point x="689" y="154"/>
    </contour>
  </outline>
</glyph>
<glyph name="LtnSmSchwaHook" format="2">
  <advance width="1425"/>
  <unicode hex="025A"/>
  <anchor x="559" y="0" name="H"/>
  <anchor x="587" y="-100" name="L"/>
  <anchor x="762" y="0" name="O"/>
  <anchor x="561" y="1100" name="U"/>
  <outline>
    <contour>
      <point x="1454" y="737" type="curve"/>
      <point x="1376" y="780" type="line"/>
      <point x="1356" y="698"/>
      <point x="1343" y="596"/>
      <point x="1253" y="596" type="curve" smooth="yes"/>
      <point x="1188" y="596"/>
      <point x="1176" y="664"/>
      <point x="1176" y="743" type="curve" smooth="yes"/>
      <point x="1176" y="938" type="line"/>
      <point x="1096" y="979" type="line"/>
      <point x="907" y="854" type="line"/>
      <point x="821" y="958"/>
      <point x="684" y="1024"/>
      <point x="498" y="1024" type="curve" smooth="yes"/>
      <point x="236" y="1024"/>
      <point x="66" y="903"/>
      <point x="66" y="903" type="curve"/>
      <point x="66" y="739" type="line"/>
      <point x="66" y="739"/>
      <point x="215" y="854"/>
      <point x="422" y="854" type="curve" smooth="yes"/>
      <point x="545" y="854"/>
      <point x="635" y="801"/>
      <point x="686" y="707" type="curve"/>
      <point x="80" y="301" type="line"/>
      <point x="121" y="123"/>
      <point x="246" y="-25"/>
      <point x="504" y="-25" type="curve" smooth="yes"/>
      <point x="815" y="-25"/>
      <point x="1020" y="199"/>
      <point x="1020" y="506" type="curve" smooth="yes"/>
      <point x="1020" y="602"/>
      <point x="999" y="696"/>
      <point x="958" y="774" type="curve"/>
      <point x="1077" y="854" type="line"/>
      <point x="1077" y="688" type="line" smooth="yes"/>
      <point x="1077" y="598"/>
      <point x="1147" y="502"/>
      <point x="1245" y="502" type="curve" smooth="yes"/>
      <point x="1401" y="502"/>
      <point x="1436" y="643"/>
    </contour>
    <contour>
      <point x="735" y="485" type="curve" smooth="yes"/>
      <point x="735" y="338"/>
      <point x="721" y="94"/>
      <point x="524" y="94" type="curve" smooth="yes"/>
      <point x="373" y="94"/>
      <point x="356" y="248"/>
      <point x="356" y="362" type="curve"/>
      <point x="723" y="612" type="line"/>
      <point x="731" y="575"/>
      <point x="735" y="530"/>
    </contour>
  </outline>
</glyph>
<glyph name="LtnSmRevOpnE" format="2">
  <advance width="913"/>
  <unicode hex="025C"/>
  <anchor x="447" y="-100" name="L"/>
  <anchor x="447" y="1100" name="U"/>
  <outline>
    <contour>
      <point x="424" y="-25" type="curve" smooth="yes"/>
      <point x="686" y="-25"/>
      <point x="848" y="76"/>
      <point x="848" y="291" type="curve" smooth="yes"/>
      <point x="848" y="403"/>
      <point x="782" y="473"/>
      <point x="702" y="512" type="curve"/>
      <point x="764" y="573"/>
      <point x="801" y="653"/>
      <point x="801" y="723" type="curve" smooth="yes"/>
      <point x="801" y="897"/>
      <point x="629" y="1024"/>
      <point x="422" y="1024" type="curve" smooth="yes"/>
      <point x="229" y="1024"/>
      <point x="55" y="948"/>
      <point x="55" y="791" type="curve" smooth="yes"/>
      <point x="55" y="713"/>
      <point x="119" y="649"/>
      <point x="190" y="649" type="curve" smooth="yes"/>
      <point x="274" y="649"/>
      <point x="315" y="715"/>
      <point x="315" y="715" type="curve"/>
      <point x="315" y="883" type="line"/>
      <point x="324" y="893"/>
      <point x="393" y="903"/>
      <point x="428" y="903" type="curve" smooth="yes"/>
      <point x="506" y="903"/>
      <point x="549" y="805"/>
      <point x="549" y="723" type="curve" smooth="yes"/>
      <point x="549" y="584"/>
      <point x="496" y="532"/>
      <point x="344" y="532" type="curve"/>
      <point x="344" y="434" type="line"/>
      <point x="362" y="433"/>
      <point x="381" y="433"/>
      <point x="399" y="432" type="curve" smooth="yes"/>
      <point x="557" y="428"/>
      <point x="588" y="369"/>
      <point x="588" y="293" type="curve" smooth="yes"/>
      <point x="588" y="205"/>
      <point x="549" y="111"/>
      <point x="426" y="111" type="curve" smooth="yes"/>
      <point x="317" y="111"/>
      <point x="201" y="156"/>
      <point x="47" y="297" type="curve"/>
      <point x="47" y="135" type="line"/>
      <point x="182" y="8"/>
      <point x="313" y="-25"/>
    </contour>
  </outline>
</glyph>
<glyph name="LtnSmRevOpnEHook" format="2">
  <advance width="1266"/>
  <unicode hex="025D"/>
  <anchor x="462" y="-100" name="L"/>
  <anchor x="462" y="1100" name="U"/>
  <outline>
    <contour>
      <point x="1294" y="764" type="curve"/>
      <point x="1217" y="807" type="line"/>
      <point x="1198" y="725"/>
      <point x="1184" y="621"/>
      <point x="1096" y="621" type="curve" smooth="yes"/>
      <point x="1028" y="621"/>
      <point x="1016" y="690"/>
      <point x="1016" y="768" type="curve" smooth="yes"/>
      <point x="1016" y="965" type="line"/>
      <point x="936" y="1006" type="line"/>
      <point x="748" y="881" type="line"/>
      <point x="680" y="969"/>
      <point x="559" y="1024"/>
      <point x="422" y="1024" type="curve" smooth="yes"/>
      <point x="229" y="1024"/>
      <point x="55" y="948"/>
      <point x="55" y="791" type="curve" smooth="yes"/>
      <point x="55" y="713"/>
      <point x="119" y="649"/>
      <point x="190" y="649" type="curve" smooth="yes"/>
      <point x="274" y="649"/>
      <point x="315" y="715"/>
      <point x="315" y="715" type="curve"/>
      <point x="315" y="883" type="line"/>
      <point x="324" y="893"/>
      <point x="393" y="903"/>
      <point x="428" y="903" type="curve" smooth="yes"/>
      <point x="506" y="903"/>
      <point x="549" y="805"/>
      <point x="549" y="723" type="curve" smooth="yes"/>
      <point x="549" y="584"/>
      <point x="496" y="532"/>
      <point x="344" y="532" type="curve"/>
      <point x="344" y="434" type="line"/>
      <point x="399" y="432" type="line" smooth="yes"/>
      <point x="557" y="428"/>
      <point x="588" y="369"/>
      <point x="588" y="293" type="curve" smooth="yes"/>
      <point x="588" y="205"/>
      <point x="549" y="111"/>
      <point x="426" y="111" type="curve" smooth="yes"/>
      <point x="317" y="111"/>
      <point x="201" y="156"/>
      <point x="47" y="297" type="curve"/>
      <point x="47" y="135" type="line"/>
      <point x="182" y="8"/>
      <point x="313" y="-25"/>
      <point x="424" y="-25" type="curve" smooth="yes"/>
      <point x="686" y="-25"/>
      <point x="848" y="76"/>
      <point x="848" y="291" type="curve" smooth="yes"/>
      <point x="848" y="403"/>
      <point x="782" y="473"/>
      <point x="702" y="512" type="curve"/>
      <point x="764" y="573"/>
      <point x="801" y="653"/>
      <point x="801" y="723" type="curve" smooth="yes"/>
      <point x="801" y="748"/>
      <point x="797" y="772"/>
      <point x="791" y="795" type="curve"/>
      <point x="918" y="883" type="line"/>
      <point x="918" y="715" type="line" smooth="yes"/>
      <point x="918" y="625"/>
      <point x="987" y="526"/>
      <point x="1085" y="526" type="curve" smooth="yes"/>
      <point x="1241" y="526"/>
      <point x="1276" y="670"/>
    </contour>
  </outline>
</glyph>
<glyph name="LtnSmDotlessJStrk" format="2">
  <advance width="664"/>
  <unicode hex="025F"/>
  <anchor x="136" y="-500" name="L"/>
  <anchor x="371" y="-383" name="O"/>
  <anchor x="664" y="1000" name="R"/>
  <anchor x="357" y="1100" name="U"/>
  <outline>
    <contour>
      <point x="637" y="444" type="line"/>
      <point x="637" y="573" type="line"/>
      <point x="477" y="573" type="line"/>
      <point x="477" y="1024" type="line"/>
      <point x="373" y="1024" type="line"/>
      <point x="59" y="922" type="line"/>
      <point x="59" y="838" type="line"/>
      <point x="205" y="838" type="line"/>
      <point x="205" y="573" type="line"/>
      <point x="27" y="573" type="line"/>
      <point x="27" y="444" type="line"/>
      <point x="205" y="444" type="line"/>
      <point x="205" y="-10" type="line" smooth="yes"/>
      <point x="205" y="-134"/>
      <point x="198" y="-301"/>
      <point x="147" y="-383" type="curve"/>
      <point x="-53" y="-180" type="line"/>
      <point x="-123" y="-186"/>
      <point x="-184" y="-244"/>
      <point x="-184" y="-317" type="curve" smooth="yes"/>
      <point x="-184" y="-418"/>
      <point x="-90" y="-473"/>
      <point x="20" y="-473" type="curve" smooth="yes"/>
      <point x="178" y="-473"/>
      <point x="291" y="-408"/>
      <point x="365" y="-307" type="curve" smooth="yes"/>
      <point x="442" y="-199"/>
      <point x="477" y="-53"/>
      <point x="477" y="96" type="curve" smooth="yes"/>
      <point x="477" y="444" type="line"/>
    </contour>
  </outline>
</glyph>
<glyph name="LtnSmRamsHorn" format="2">
  <advance width="1184"/>
  <unicode hex="0264"/>
  <anchor x="591" y="-100" name="L"/>
  <anchor x="1184" y="1000" name="R"/>
  <anchor x="591" y="1100" name="U"/>
  <outline>
    <contour>
      <point x="1153" y="625" type="line"/>
      <point x="1156" y="653"/>
      <point x="1163" y="754"/>
      <point x="1163" y="793" type="curve" smooth="yes"/>
      <point x="1163" y="909"/>
      <point x="1100" y="1024"/>
      <point x="987" y="1024" type="curve" smooth="yes"/>
      <point x="897" y="1024"/>
      <point x="825" y="955"/>
      <point x="676" y="731" type="curve" smooth="yes"/>
      <point x="426" y="355" type="line" smooth="yes"/>
      <point x="386" y="295"/>
      <point x="356" y="239"/>
      <point x="356" y="186" type="curve" smooth="yes"/>
      <point x="356" y="73"/>
      <point x="424" y="-25"/>
      <point x="596" y="-25" type="curve" smooth="yes"/>
      <point x="726" y="-25"/>
      <point x="832" y="81"/>
      <point x="832" y="204" type="curve" smooth="yes"/>
      <point x="832" y="273"/>
      <point x="805" y="333"/>
      <point x="744" y="433" type="curve" smooth="yes"/>
      <point x="536" y="776" type="line" smooth="yes"/>
      <point x="414" y="977"/>
      <point x="330" y="1024"/>
      <point x="223" y="1024" type="curve" smooth="yes"/>
      <point x="72" y="1024"/>
      <point x="20" y="879"/>
      <point x="20" y="748" type="curve" smooth="yes"/>
      <point x="20" y="727"/>
      <point x="20" y="662"/>
      <point x="25" y="625" type="curve"/>
      <point x="123" y="625" type="line"/>
      <point x="129" y="738"/>
      <point x="164" y="803"/>
      <point x="214" y="803" type="curve" smooth="yes"/>
      <point x="264" y="803"/>
      <point x="295" y="772"/>
      <point x="355" y="668" type="curve" smooth="yes"/>
      <point x="582" y="279" type="line" smooth="yes"/>
      <point x="608" y="234"/>
      <point x="630" y="195"/>
      <point x="630" y="165" type="curve" smooth="yes"/>
      <point x="630" y="129"/>
      <point x="608" y="86"/>
      <point x="555" y="86" type="curve" smooth="yes"/>
      <point x="512" y="86"/>
      <point x="485" y="118"/>
      <point x="485" y="161" type="curve" smooth="yes"/>
      <point x="485" y="188"/>
      <point x="510" y="240"/>
      <point x="536" y="279" type="curve" smooth="yes"/>
      <point x="739" y="584" type="line" smooth="yes"/>
      <point x="832" y="723"/>
      <point x="893" y="803"/>
      <point x="962" y="803" type="curve" smooth="yes"/>
      <point x="1023" y="803"/>
      <point x="1049" y="711"/>
      <point x="1063" y="625" type="curve"/>
    </contour>
  </outline>
</glyph>
<glyph name="LtnSmHHook" format="2">
  <advance width="1282"/>
  <unicode hex="0266"/>
  <anchor x="642" y="-100" name="L"/>
  <anchor x="642" y="1540" name="U"/>
  <outline>
    <contour>
      <point x="1229" y="0" type="line"/>
      <point x="1229" y="96" type="line"/>
      <point x="1143" y="102" type="line" smooth="yes"/>
      <point x="1118" y="104"/>
      <point x="1098" y="125"/>
      <point x="1098" y="150" type="curve" smooth="yes"/>
      <point x="1098" y="702" type="line" smooth="yes"/>
      <point x="1098" y="823"/>
      <point x="1059" y="1024"/>
      <point x="817" y="1024" type="curve" smooth="yes"/>
      <point x="657" y="1024"/>
      <point x="459" y="897"/>
      <point x="459" y="897" type="curve"/>
      <point x="459" y="1024" type="line" smooth="yes"/>
      <point x="459" y="1280"/>
      <point x="586" y="1389"/>
      <point x="698" y="1389" type="curve" smooth="yes"/>
      <point x="731" y="1389"/>
      <point x="778" y="1374"/>
      <point x="778" y="1374" type="curve"/>
      <point x="860" y="1180" type="line"/>
      <point x="860" y="1180"/>
      <point x="893" y="1157"/>
      <point x="928" y="1157" type="curve" smooth="yes"/>
      <point x="987" y="1157"/>
      <point x="1034" y="1233"/>
      <point x="1034" y="1300" type="curve" smooth="yes"/>
      <point x="1034" y="1425"/>
      <point x="831" y="1516"/>
      <point x="653" y="1516" type="curve" smooth="yes"/>
      <point x="315" y="1516"/>
      <point x="184" y="1260"/>
      <point x="184" y="1024" type="curve" smooth="yes"/>
      <point x="184" y="150" type="line" smooth="yes"/>
      <point x="184" y="125"/>
      <point x="164" y="104"/>
      <point x="139" y="102" type="curve" smooth="yes"/>
      <point x="55" y="96" type="line"/>
      <point x="55" y="0" type="line"/>
      <point x="575" y="0" type="line"/>
      <point x="575" y="96" type="line"/>
      <point x="504" y="102" type="line" smooth="yes"/>
      <point x="479" y="104"/>
      <point x="459" y="125"/>
      <point x="459" y="150" type="curve" smooth="yes"/>
      <point x="459" y="809" type="line"/>
      <point x="459" y="809"/>
      <point x="569" y="836"/>
      <point x="651" y="836" type="curve" smooth="yes"/>
      <point x="803" y="836"/>
      <point x="823" y="700"/>
      <point x="823" y="633" type="curve" smooth="yes"/>
      <point x="823" y="150" type="line" smooth="yes"/>
      <point x="823" y="125"/>
      <point x="803" y="104"/>
      <point x="778" y="102" type="curve" smooth="yes"/>
      <point x="713" y="96" type="line"/>
      <point x="713" y="0" type="line"/>
    </contour>
  </outline>
</glyph>
<glyph name="LtnSmLMiddleTilde" format="2">
  <advance width="897"/>
  <unicode hex="026B"/>
  <anchor x="448" y="-100" name="L"/>
  <anchor x="448" y="1540" name="U"/>
  <outline>
    <contour>
      <point x="166" y="0" type="line"/>
      <point x="733" y="0" type="line"/>
      <point x="733" y="96" type="line"/>
      <point x="631" y="102" type="line" smooth="yes"/>
      <point x="604" y="104"/>
      <point x="586" y="123"/>
      <point x="586" y="150" type="curve" smooth="yes"/>
      <point x="586" y="664" type="line"/>
      <point x="595" y="662"/>
      <point x="605" y="661"/>
      <point x="614" y="659" type="curve"/>
      <point x="786" y="659"/>
      <point x="854" y="778"/>
      <point x="897" y="920" type="curve"/>
      <point x="762" y="920" type="line"/>
      <point x="754" y="864"/>
      <point x="705" y="821"/>
      <point x="649" y="821" type="curve" smooth="yes"/>
      <point x="627" y="821"/>
      <point x="606" y="823"/>
      <point x="586" y="827" type="curve"/>
      <point x="586" y="1516" type="line"/>
      <point x="481" y="1516" type="line"/>
      <point x="168" y="1413" type="line"/>
      <point x="168" y="1329" type="line"/>
      <point x="313" y="1329" type="line"/>
      <point x="313" y="920" type="line"/>
      <point x="303" y="922"/>
      <point x="293" y="924"/>
      <point x="283" y="926" type="curve"/>
      <point x="111" y="928"/>
      <point x="43" y="809"/>
      <point x="0" y="666" type="curve"/>
      <point x="137" y="666" type="line"/>
      <point x="145" y="721"/>
      <point x="193" y="764"/>
      <point x="248" y="764" type="curve" smooth="yes"/>
      <point x="270" y="764"/>
      <point x="293" y="762"/>
      <point x="313" y="758" type="curve"/>
      <point x="313" y="150" type="line" smooth="yes"/>
      <point x="313" y="123"/>
      <point x="295" y="104"/>
      <point x="268" y="102" type="curve" smooth="yes"/>
      <point x="166" y="96" type="line"/>
    </contour>
  </outline>
</glyph>
<glyph name="LtnSmLezh" format="2">
  <advance width="1325"/>
  <unicode hex="026E"/>
  <anchor x="651" y="-500" name="L"/>
  <anchor x="719" y="1580" name="U"/>
  <outline>
    <contour>
      <point x="1262" y="49" type="curve" smooth="yes"/>
      <point x="1262" y="225"/>
      <point x="1083" y="412"/>
      <point x="831" y="412" type="curve"/>
      <point x="1204" y="905" type="line"/>
      <point x="1204" y="999" type="line"/>
      <point x="457" y="999" type="line"/>
      <point x="457" y="1516" type="line"/>
      <point x="352" y="1516" type="line"/>
      <point x="41" y="1413" type="line"/>
      <point x="41" y="1329" type="line"/>
      <point x="184" y="1329" type="line"/>
      <point x="184" y="150" type="line" smooth="yes"/>
      <point x="184" y="123"/>
      <point x="166" y="104"/>
      <point x="139" y="102" type="curve" smooth="yes"/>
      <point x="41" y="96" type="line"/>
      <point x="41" y="0" type="line"/>
      <point x="604" y="0" type="line"/>
      <point x="604" y="96" type="line"/>
      <point x="504" y="102" type="line" smooth="yes"/>
      <point x="477" y="104"/>
      <point x="457" y="123"/>
      <point x="457" y="150" type="curve" smooth="yes"/>
      <point x="457" y="766" type="line"/>
      <point x="915" y="766" type="line"/>
      <point x="604" y="348" type="line"/>
      <point x="659" y="295" type="line"/>
      <point x="659" y="295"/>
      <point x="668" y="311"/>
      <point x="739" y="311" type="curve" smooth="yes"/>
      <point x="897" y="311"/>
      <point x="961" y="203"/>
      <point x="961" y="47" type="curve" smooth="yes"/>
      <point x="961" y="-113"/>
      <point x="858" y="-319"/>
      <point x="705" y="-319" type="curve" smooth="yes"/>
      <point x="649" y="-319"/>
      <point x="561" y="-307"/>
      <point x="518" y="-295" type="curve"/>
      <point x="451" y="-66" type="line"/>
      <point x="428" y="-55"/>
      <point x="399" y="-41"/>
      <point x="362" y="-41" type="curve" smooth="yes"/>
      <point x="299" y="-41"/>
      <point x="213" y="-72"/>
      <point x="213" y="-186" type="curve" smooth="yes"/>
      <point x="213" y="-322"/>
      <point x="420" y="-449"/>
      <point x="686" y="-449" type="curve" smooth="yes"/>
      <point x="1001" y="-449"/>
      <point x="1262" y="-213"/>
    </contour>
  </outline>
</glyph>
<glyph name="LtnSmTurnedMLngLeg" format="2">
  <advance width="1855"/>
  <unicode hex="0270"/>
  <anchor x="783" y="-100" name="L"/>
  <anchor x="932" y="1100" name="U"/>
  <outline>
    <contour>
      <point x="1407" y="-473" type="line"/>
      <point x="1509" y="-473" type="line"/>
      <point x="1810" y="-371" type="line"/>
      <point x="1810" y="-287" type="line"/>
      <point x="1679" y="-287" type="line"/>
      <point x="1679" y="850" type="line" smooth="yes"/>
      <point x="1679" y="874"/>
      <point x="1700" y="895"/>
      <point x="1724" y="897" type="curve" smooth="yes"/>
      <point x="1798" y="903" type="line"/>
      <point x="1798" y="999" type="line"/>
      <point x="1296" y="999" type="line"/>
      <point x="1296" y="903" type="line"/>
      <point x="1360" y="897" type="line" smooth="yes"/>
      <point x="1384" y="895"/>
      <point x="1407" y="874"/>
      <point x="1407" y="850" type="curve" smooth="yes"/>
      <point x="1407" y="197" type="line"/>
      <point x="1407" y="197"/>
      <point x="1354" y="164"/>
      <point x="1241" y="164" type="curve" smooth="yes"/>
      <point x="1112" y="164"/>
      <point x="1065" y="256"/>
      <point x="1065" y="356" type="curve" smooth="yes"/>
      <point x="1065" y="850" type="line" smooth="yes"/>
      <point x="1065" y="874"/>
      <point x="1085" y="895"/>
      <point x="1110" y="897" type="curve" smooth="yes"/>
      <point x="1174" y="903" type="line"/>
      <point x="1174" y="999" type="line"/>
      <point x="682" y="999" type="line"/>
      <point x="682" y="903" type="line"/>
      <point x="743" y="897" type="line" smooth="yes"/>
      <point x="768" y="895"/>
      <point x="791" y="874"/>
      <point x="791" y="850" type="curve" smooth="yes"/>
      <point x="791" y="197" type="line"/>
      <point x="791" y="197"/>
      <point x="715" y="164"/>
      <point x="627" y="164" type="curve" smooth="yes"/>
      <point x="489" y="164"/>
      <point x="449" y="256"/>
      <point x="449" y="356" type="curve" smooth="yes"/>
      <point x="449" y="850" type="line" smooth="yes"/>
      <point x="449" y="874"/>
      <point x="471" y="895"/>
      <point x="496" y="897" type="curve" smooth="yes"/>
      <point x="559" y="903" type="line"/>
      <point x="559" y="999" type="line"/>
      <point x="55" y="999" type="line"/>
      <point x="55" y="903" type="line"/>
      <point x="131" y="897" type="line" smooth="yes"/>
      <point x="156" y="895"/>
      <point x="176" y="874"/>
      <point x="176" y="850" type="curve" smooth="yes"/>
      <point x="176" y="289" type="line" smooth="yes"/>
      <point x="176" y="193"/>
      <point x="211" y="-23"/>
      <point x="459" y="-23" type="curve" smooth="yes"/>
      <point x="616" y="-23"/>
      <point x="823" y="115"/>
      <point x="823" y="115" type="curve"/>
      <point x="860" y="72"/>
      <point x="915" y="-23"/>
      <point x="1071" y="-23" type="curve" smooth="yes"/>
      <point x="1231" y="-23"/>
      <point x="1407" y="100"/>
      <point x="1407" y="100" type="curve"/>
    </contour>
  </outline>
</glyph>
<glyph name="LtnSmMHook" format="2">
  <advance width="1831"/>
  <unicode hex="0271"/>
  <anchor x="543" y="-100" name="L"/>
  <anchor x="862" y="1100" name="U"/>
  <outline>
    <contour>
      <point x="1679" y="-23" type="curve"/>
      <point x="1679" y="711" type="line" smooth="yes"/>
      <point x="1679" y="807"/>
      <point x="1645" y="1024"/>
      <point x="1397" y="1024" type="curve" smooth="yes"/>
      <point x="1237" y="1024"/>
      <point x="1032" y="885"/>
      <point x="1032" y="885" type="curve"/>
      <point x="995" y="930"/>
      <point x="940" y="1024"/>
      <point x="784" y="1024" type="curve" smooth="yes"/>
      <point x="625" y="1024"/>
      <point x="449" y="899"/>
      <point x="449" y="899" type="curve"/>
      <point x="449" y="1022" type="line"/>
      <point x="346" y="1022" type="line"/>
      <point x="45" y="920" type="line"/>
      <point x="45" y="836" type="line"/>
      <point x="176" y="836" type="line"/>
      <point x="176" y="150" type="line" smooth="yes"/>
      <point x="176" y="125"/>
      <point x="156" y="104"/>
      <point x="131" y="102" type="curve" smooth="yes"/>
      <point x="55" y="96" type="line"/>
      <point x="55" y="0" type="line"/>
      <point x="559" y="0" type="line"/>
      <point x="559" y="96" type="line"/>
      <point x="496" y="102" type="line" smooth="yes"/>
      <point x="471" y="104"/>
      <point x="449" y="125"/>
      <point x="449" y="150" type="curve" smooth="yes"/>
      <point x="449" y="803" type="line"/>
      <point x="449" y="803"/>
      <point x="502" y="836"/>
      <point x="614" y="836" type="curve" smooth="yes"/>
      <point x="741" y="836"/>
      <point x="791" y="743"/>
      <point x="791" y="643" type="curve" smooth="yes"/>
      <point x="791" y="150" type="line" smooth="yes"/>
      <point x="791" y="125"/>
      <point x="770" y="104"/>
      <point x="745" y="102" type="curve" smooth="yes"/>
      <point x="682" y="96" type="line"/>
      <point x="682" y="0" type="line"/>
      <point x="1174" y="0" type="line"/>
      <point x="1174" y="96" type="line"/>
      <point x="1110" y="102" type="line" smooth="yes"/>
      <point x="1085" y="104"/>
      <point x="1065" y="125"/>
      <point x="1065" y="150" type="curve" smooth="yes"/>
      <point x="1065" y="803" type="line"/>
      <point x="1065" y="803"/>
      <point x="1141" y="836"/>
      <point x="1229" y="836" type="curve" smooth="yes"/>
      <point x="1364" y="836"/>
      <point x="1407" y="743"/>
      <point x="1407" y="643" type="curve" smooth="yes"/>
      <point x="1407" y="-84" type="line" smooth="yes"/>
      <point x="1407" y="-324"/>
      <point x="1346" y="-371"/>
      <point x="1300" y="-371" type="curve"/>
      <point x="1087" y="-166" type="line"/>
      <point x="1008" y="-166"/>
      <point x="958" y="-248"/>
      <point x="958" y="-313" type="curve" smooth="yes"/>
      <point x="958" y="-418"/>
      <point x="1087" y="-473"/>
      <point x="1180" y="-473" type="curve" smooth="yes"/>
      <point x="1503" y="-473"/>
      <point x="1679" y="-272"/>
    </contour>
  </outline>
</glyph>
<glyph name="LtnSmNRetrHook" format="2">
  <advance width="1280"/>
  <unicode hex="0273"/>
  <anchor x="463" y="-100" name="L"/>
  <anchor x="644" y="1100" name="U"/>
  <outline>
    <contour>
      <point x="1538" y="-322" type="curve" smooth="yes"/>
      <point x="1538" y="-252"/>
      <point x="1509" y="-164"/>
      <point x="1391" y="-164" type="curve"/>
      <point x="1219" y="-367" type="line"/>
      <point x="1159" y="-377"/>
      <point x="1096" y="-272"/>
      <point x="1096" y="-135" type="curve" smooth="yes"/>
      <point x="1096" y="668" type="line" smooth="yes"/>
      <point x="1096" y="846"/>
      <point x="1053" y="1024"/>
      <point x="817" y="1024" type="curve" smooth="yes"/>
      <point x="641" y="1024"/>
      <point x="459" y="899"/>
      <point x="459" y="899" type="curve"/>
      <point x="459" y="1024" type="line"/>
      <point x="352" y="1024" type="line"/>
      <point x="43" y="920" type="line"/>
      <point x="43" y="836" type="line"/>
      <point x="184" y="836" type="line"/>
      <point x="184" y="150" type="line" smooth="yes"/>
      <point x="184" y="125"/>
      <point x="164" y="104"/>
      <point x="139" y="102" type="curve" smooth="yes"/>
      <point x="66" y="96" type="line"/>
      <point x="66" y="0" type="line"/>
      <point x="567" y="0" type="line"/>
      <point x="567" y="96" type="line"/>
      <point x="506" y="102" type="line" smooth="yes"/>
      <point x="481" y="104"/>
      <point x="459" y="125"/>
      <point x="459" y="150" type="curve" smooth="yes"/>
      <point x="459" y="809" type="line"/>
      <point x="459" y="809"/>
      <point x="543" y="836"/>
      <point x="655" y="836" type="curve" smooth="yes"/>
      <point x="778" y="836"/>
      <point x="823" y="735"/>
      <point x="823" y="631" type="curve" smooth="yes"/>
      <point x="823" y="20" type="line" smooth="yes"/>
      <point x="823" y="-276"/>
      <point x="1014" y="-473"/>
      <point x="1321" y="-473" type="curve" smooth="yes"/>
      <point x="1411" y="-473"/>
      <point x="1538" y="-426"/>
    </contour>
  </outline>
</glyph>
<glyph name="LtnSmPhi" format="2">
  <advance width="1231"/>
  <unicode hex="0278"/>
  <anchor x="615" y="-500" name="L"/>
  <anchor x="615" y="1540" name="U"/>
  <outline>
    <contour>
      <point x="1176" y="506" type="curve" smooth="yes"/>
      <point x="1176" y="793"/>
      <point x="999" y="967"/>
      <point x="752" y="1014" type="curve"/>
      <point x="752" y="1225" type="line" smooth="yes"/>
      <point x="752" y="1251"/>
      <point x="772" y="1270"/>
      <point x="799" y="1272" type="curve" smooth="yes"/>
      <point x="899" y="1278" type="line"/>
      <point x="899" y="1374" type="line"/>
      <point x="332" y="1374" type="line"/>
      <point x="332" y="1278" type="line"/>
      <point x="432" y="1272" type="line" smooth="yes"/>
      <point x="459" y="1270"/>
      <point x="479" y="1251"/>
      <point x="479" y="1225" type="curve" smooth="yes"/>
      <point x="479" y="1014" type="line"/>
      <point x="231" y="967"/>
      <point x="55" y="793"/>
      <point x="55" y="506" type="curve" smooth="yes"/>
      <point x="55" y="231"/>
      <point x="236" y="49"/>
      <point x="479" y="-2" type="curve"/>
      <point x="479" y="-299" type="line" smooth="yes"/>
      <point x="479" y="-326"/>
      <point x="459" y="-342"/>
      <point x="432" y="-344" type="curve" smooth="yes"/>
      <point x="332" y="-350" type="line"/>
      <point x="332" y="-449" type="line"/>
      <point x="899" y="-449" type="line"/>
      <point x="899" y="-350" type="line"/>
      <point x="799" y="-344" type="line" smooth="yes"/>
      <point x="772" y="-342"/>
      <point x="752" y="-326"/>
      <point x="752" y="-299" type="curve" smooth="yes"/>
      <point x="752" y="-2" type="line"/>
      <point x="995" y="49"/>
      <point x="1176" y="231"/>
    </contour>
    <contour>
      <point x="905" y="506" type="curve" smooth="yes"/>
      <point x="905" y="381"/>
      <point x="854" y="221"/>
      <point x="752" y="143" type="curve"/>
      <point x="752" y="866" type="line"/>
      <point x="852" y="788"/>
      <point x="905" y="633"/>
    </contour>
    <contour>
      <point x="479" y="143" type="line"/>
      <point x="377" y="221"/>
      <point x="326" y="381"/>
      <point x="326" y="506" type="curve" smooth="yes"/>
      <point x="326" y="633"/>
      <point x="381" y="788"/>
      <point x="479" y="866" type="curve"/>
    </contour>
  </outline>
</glyph>
<glyph name="LtnSmTurnedRLngLeg" format="2">
  <advance width="885"/>
  <unicode hex="027A"/>
  <anchor x="435" y="-100" name="L"/>
  <anchor x="435" y="1540" name="U"/>
  <outline>
    <contour>
      <point x="850" y="80" type="line"/>
      <point x="850" y="164" type="line"/>
      <point x="700" y="164" type="line"/>
      <point x="700" y="1516" type="line"/>
      <point x="596" y="1516" type="line"/>
      <point x="283" y="1413" type="line"/>
      <point x="283" y="1329" type="line"/>
      <point x="426" y="1329" type="line"/>
      <point x="426" y="279" type="line"/>
      <point x="402" y="263"/>
      <point x="350" y="242"/>
      <point x="295" y="242" type="curve" smooth="yes"/>
      <point x="213" y="242"/>
      <point x="178" y="297"/>
      <point x="162" y="324" type="curve"/>
      <point x="20" y="324" type="line"/>
      <point x="20" y="12" type="line"/>
      <point x="45" y="-6"/>
      <point x="102" y="-25"/>
      <point x="150" y="-25" type="curve" smooth="yes"/>
      <point x="244" y="-25"/>
      <point x="375" y="127"/>
      <point x="426" y="193" type="curve"/>
      <point x="426" y="-25" type="line"/>
      <point x="532" y="-25" type="line"/>
    </contour>
  </outline>
</glyph>
<glyph name="LtnSmRHookTail" format="2">
  <advance width="885"/>
  <unicode hex="027D"/>
  <anchor x="449" y="-500" name="L"/>
  <anchor x="449" y="1100" name="U"/>
  <outline>
    <contour>
      <point x="659" y="-473" type="curve" smooth="yes"/>
      <point x="741" y="-473"/>
      <point x="856" y="-434"/>
      <point x="856" y="-317" type="curve" smooth="yes"/>
      <point x="856" y="-254"/>
      <point x="795" y="-203"/>
      <point x="729" y="-182" type="curve"/>
      <point x="526" y="-373" type="line"/>
      <point x="485" y="-311"/>
      <point x="459" y="-246"/>
      <point x="459" y="-59" type="curve" smooth="yes"/>
      <point x="459" y="721" type="line"/>
      <point x="483" y="737"/>
      <point x="535" y="758"/>
      <point x="592" y="758" type="curve" smooth="yes"/>
      <point x="672" y="758"/>
      <point x="709" y="702"/>
      <point x="725" y="676" type="curve"/>
      <point x="864" y="676" type="line"/>
      <point x="864" y="987" type="line"/>
      <point x="840" y="1006"/>
      <point x="782" y="1024"/>
      <point x="735" y="1024" type="curve" smooth="yes"/>
      <point x="641" y="1024"/>
      <point x="510" y="872"/>
      <point x="459" y="807" type="curve"/>
      <point x="459" y="1024" type="line"/>
      <point x="352" y="1024" type="line"/>
      <point x="35" y="920" type="line"/>
      <point x="35" y="836" type="line"/>
      <point x="184" y="836" type="line"/>
      <point x="184" y="117" type="line" smooth="yes"/>
      <point x="184" y="-227"/>
      <point x="383" y="-473"/>
    </contour>
  </outline>
</glyph>
<glyph name="LtnSmRevRFishhook" format="2">
  <advance width="764"/>
  <unicode hex="027F"/>
  <anchor x="442" y="-500" name="L"/>
  <anchor x="311" y="1100" name="U"/>
  <outline>
    <contour>
      <point x="707" y="-449" type="line"/>
      <point x="707" y="-352" type="line"/>
      <point x="623" y="-346" type="line"/>
      <point x="598" y="-346"/>
      <point x="578" y="-324"/>
      <point x="578" y="-299" type="curve" smooth="yes"/>
      <point x="578" y="453" type="line" smooth="yes"/>
      <point x="578" y="741"/>
      <point x="446" y="1024"/>
      <point x="121" y="1024" type="curve" smooth="yes"/>
      <point x="10" y="1024"/>
      <point x="-84" y="969"/>
      <point x="-84" y="866" type="curve" smooth="yes"/>
      <point x="-84" y="795"/>
      <point x="-23" y="729"/>
      <point x="47" y="729" type="curve"/>
      <point x="248" y="932" type="line"/>
      <point x="294" y="857"/>
      <point x="305" y="675"/>
      <point x="305" y="559" type="curve" smooth="yes"/>
      <point x="305" y="-299" type="line" smooth="yes"/>
      <point x="305" y="-324"/>
      <point x="283" y="-344"/>
      <point x="258" y="-346" type="curve" smooth="yes"/>
      <point x="193" y="-352" type="line"/>
      <point x="193" y="-449" type="line"/>
    </contour>
  </outline>
</glyph>
<glyph name="LtnSmCapR" format="2">
  <advance width="1153"/>
  <unicode hex="0280"/>
  <anchor x="599" y="-100" name="L"/>
  <anchor x="599" y="1100" name="U"/>
  <outline>
    <contour>
      <point x="983" y="-25" type="curve" smooth="yes"/>
      <point x="1036" y="-25"/>
      <point x="1100" y="-4"/>
      <point x="1153" y="0" type="curve"/>
      <point x="1153" y="98" type="line"/>
      <point x="993" y="98"/>
      <point x="946" y="149"/>
      <point x="911" y="254" type="curve" smooth="yes"/>
      <point x="873" y="367"/>
      <point x="842" y="449"/>
      <point x="715" y="489" type="curve"/>
      <point x="811" y="512"/>
      <point x="950" y="573"/>
      <point x="950" y="745" type="curve" smooth="yes"/>
      <point x="950" y="965"/>
      <point x="707" y="999"/>
      <point x="590" y="999" type="curve" smooth="yes"/>
      <point x="45" y="999" type="line"/>
      <point x="45" y="903" type="line"/>
      <point x="141" y="895" type="line" smooth="yes"/>
      <point x="158" y="894"/>
      <point x="168" y="889"/>
      <point x="168" y="870" type="curve" smooth="yes"/>
      <point x="168" y="127" type="line" smooth="yes"/>
      <point x="168" y="115"/>
      <point x="160" y="102"/>
      <point x="141" y="102" type="curve"/>
      <point x="45" y="96" type="line"/>
      <point x="45" y="0" type="line"/>
      <point x="545" y="0" type="line"/>
      <point x="545" y="96" type="line"/>
      <point x="444" y="102" type="line" smooth="yes"/>
      <point x="426" y="103"/>
      <point x="420" y="115"/>
      <point x="420" y="127" type="curve" smooth="yes"/>
      <point x="420" y="428" type="line"/>
      <point x="437" y="428"/>
      <point x="454" y="428"/>
      <point x="471" y="428" type="curve" smooth="yes"/>
      <point x="581" y="428"/>
      <point x="609" y="357"/>
      <point x="664" y="209" type="curve" smooth="yes"/>
      <point x="707" y="93"/>
      <point x="768" y="-25"/>
    </contour>
    <contour>
      <point x="463" y="537" type="curve" smooth="yes"/>
      <point x="455" y="537"/>
      <point x="440" y="539"/>
      <point x="420" y="539" type="curve"/>
      <point x="420" y="889" type="line"/>
      <point x="436" y="889"/>
      <point x="453" y="889"/>
      <point x="461" y="889" type="curve"/>
      <point x="612" y="885"/>
      <point x="688" y="831"/>
      <point x="688" y="719" type="curve" smooth="yes"/>
      <point x="688" y="563"/>
      <point x="563" y="537"/>
    </contour>
  </outline>
</glyph>
<glyph name="LtnSmCapInvR" format="2">
  <advance width="1153"/>
  <unicode hex="0281"/>
  <anchor x="599" y="-100" name="L"/>
  <anchor x="599" y="1100" name="U"/>
  <outline>
    <contour>
      <point x="45" y="0" type="line"/>
      <point x="590" y="0" type="line" smooth="yes"/>
      <point x="707" y="0"/>
      <point x="950" y="33"/>
      <point x="950" y="254" type="curve" smooth="yes"/>
      <point x="950" y="424"/>
      <point x="811" y="487"/>
      <point x="715" y="510" type="curve"/>
      <point x="842" y="551"/>
      <point x="874" y="633"/>
      <point x="911" y="745" type="curve" smooth="yes"/>
      <point x="944" y="842"/>
      <point x="973" y="920"/>
      <point x="1153" y="901" type="curve"/>
      <point x="1153" y="997" type="line"/>
      <point x="1100" y="1004"/>
      <point x="1036" y="1024"/>
      <point x="983" y="1024" type="curve" smooth="yes"/>
      <point x="768" y="1024"/>
      <point x="709" y="905"/>
      <point x="664" y="791" type="curve" smooth="yes"/>
      <point x="621" y="678"/>
      <point x="594" y="571"/>
      <point x="471" y="571" type="curve" smooth="yes"/>
      <point x="454" y="571"/>
      <point x="437" y="571"/>
      <point x="420" y="571" type="curve"/>
      <point x="420" y="872" type="line" smooth="yes"/>
      <point x="420" y="885"/>
      <point x="426" y="895"/>
      <point x="444" y="897" type="curve" smooth="yes"/>
      <point x="545" y="903" type="line"/>
      <point x="545" y="999" type="line"/>
      <point x="45" y="999" type="line"/>
      <point x="45" y="903" type="line"/>
      <point x="141" y="897" type="line"/>
      <point x="160" y="895"/>
      <point x="168" y="885"/>
      <point x="168" y="872" type="curve" smooth="yes"/>
      <point x="168" y="129" type="line" smooth="yes"/>
      <point x="168" y="111"/>
      <point x="158" y="104"/>
      <point x="141" y="104" type="curve"/>
      <point x="45" y="96" type="line"/>
    </contour>
    <contour>
      <point x="420" y="111" type="curve"/>
      <point x="420" y="461" type="line"/>
      <point x="440" y="461"/>
      <point x="455" y="463"/>
      <point x="463" y="463" type="curve" smooth="yes"/>
      <point x="563" y="463"/>
      <point x="688" y="436"/>
      <point x="688" y="281" type="curve" smooth="yes"/>
      <point x="688" y="168"/>
      <point x="612" y="115"/>
      <point x="461" y="111" type="curve"/>
      <point x="453" y="110"/>
      <point x="436" y="110"/>
    </contour>
  </outline>
</glyph>
<glyph name="LtnSmSHook" format="2">
  <advance width="911"/>
  <unicode hex="0282"/>
  <anchor x="457" y="-500" name="L"/>
  <anchor x="457" y="1100" name="U"/>
  <outline>
    <contour>
      <point x="848" y="319" type="curve" smooth="yes"/>
      <point x="848" y="567"/>
      <point x="352" y="602"/>
      <point x="352" y="791" type="curve" smooth="yes"/>
      <point x="352" y="860"/>
      <point x="410" y="901"/>
      <point x="506" y="901" type="curve" smooth="yes"/>
      <point x="575" y="901"/>
      <point x="641" y="877"/>
      <point x="668" y="846" type="curve"/>
      <point x="688" y="686" type="line"/>
      <point x="817" y="686" type="line"/>
      <point x="817" y="971" type="line"/>
      <point x="763" y="994"/>
      <point x="637" y="1024"/>
      <point x="489" y="1024" type="curve" smooth="yes"/>
      <point x="250" y="1024"/>
      <point x="78" y="907"/>
      <point x="78" y="715" type="curve" smooth="yes"/>
      <point x="78" y="414"/>
      <point x="586" y="430"/>
      <point x="586" y="227" type="curve" smooth="yes"/>
      <point x="586" y="180"/>
      <point x="549" y="96"/>
      <point x="410" y="96" type="curve" smooth="yes"/>
      <point x="338" y="96"/>
      <point x="287" y="109"/>
      <point x="219" y="156" type="curve"/>
      <point x="195" y="342" type="line"/>
      <point x="66" y="342" type="line"/>
      <point x="66" y="-219" type="line" smooth="yes"/>
      <point x="66" y="-399"/>
      <point x="248" y="-473"/>
      <point x="377" y="-473" type="curve" smooth="yes"/>
      <point x="487" y="-473"/>
      <point x="631" y="-430"/>
      <point x="631" y="-302" type="curve" smooth="yes"/>
      <point x="631" y="-223"/>
      <point x="580" y="-180"/>
      <point x="512" y="-143" type="curve"/>
      <point x="317" y="-330" type="line"/>
      <point x="238" y="-330"/>
      <point x="195" y="-311"/>
      <point x="195" y="-223" type="curve" smooth="yes"/>
      <point x="195" y="10" type="line"/>
      <point x="272" y="-10"/>
      <point x="350" y="-25"/>
      <point x="430" y="-25" type="curve" smooth="yes"/>
      <point x="633" y="-25"/>
      <point x="848" y="61"/>
    </contour>
  </outline>
</glyph>
<glyph name="LtnSmTurnedT" format="2">
  <advance width="768"/>
  <unicode hex="0287"/>
  <anchor x="364" y="-500" name="L"/>
  <anchor x="364" y="1100" name="U"/>
  <outline>
    <contour>
      <point x="719" y="49" type="line"/>
      <point x="719" y="131" type="line"/>
      <point x="584" y="131" type="line"/>
      <point x="584" y="770" type="line" smooth="yes"/>
      <point x="584" y="944"/>
      <point x="518" y="1024"/>
      <point x="338" y="1024" type="curve" smooth="yes"/>
      <point x="217" y="1024"/>
      <point x="80" y="984"/>
      <point x="10" y="954" type="curve"/>
      <point x="10" y="852" type="line"/>
      <point x="39" y="858"/>
      <point x="96" y="866"/>
      <point x="143" y="866" type="curve" smooth="yes"/>
      <point x="250" y="866"/>
      <point x="311" y="819"/>
      <point x="311" y="686" type="curve" smooth="yes"/>
      <point x="311" y="131" type="line"/>
      <point x="27" y="131" type="line"/>
      <point x="27" y="0" type="line"/>
      <point x="311" y="0" type="line"/>
      <point x="311" y="-262" type="line"/>
      <point x="451" y="-262" type="line"/>
      <point x="561" y="-45" type="line"/>
    </contour>
  </outline>
</glyph>
<glyph name="LtnSmTurnedY" format="2">
  <advance width="1159"/>
  <unicode hex="028E"/>
  <anchor x="580" y="-100" name="L"/>
  <anchor x="580" y="1540" name="U"/>
  <outline>
    <contour>
      <point x="1141" y="0" type="line"/>
      <point x="1141" y="94" type="line"/>
      <point x="1020" y="106" type="line"/>
      <point x="655" y="1016" type="line"/>
      <point x="672" y="1085"/>
      <point x="692" y="1155"/>
      <point x="766" y="1225" type="curve"/>
      <point x="940" y="1092" type="line"/>
      <point x="999" y="1118"/>
      <point x="1059" y="1167"/>
      <point x="1059" y="1243" type="curve" smooth="yes"/>
      <point x="1059" y="1341"/>
      <point x="958" y="1407"/>
      <point x="879" y="1407" type="curve" smooth="yes"/>
      <point x="780" y="1407"/>
      <point x="702" y="1358"/>
      <point x="639" y="1288" type="curve" smooth="yes"/>
      <point x="549" y="1190"/>
      <point x="528" y="1087"/>
      <point x="483" y="979" type="curve" smooth="yes"/>
      <point x="127" y="109" type="line"/>
      <point x="20" y="94" type="line"/>
      <point x="20" y="0" type="line"/>
      <point x="420" y="0" type="line"/>
      <point x="420" y="94" type="line"/>
      <point x="330" y="100" type="line" smooth="yes"/>
      <point x="307" y="102"/>
      <point x="289" y="125"/>
      <point x="299" y="145" type="curve"/>
      <point x="514" y="672" type="line"/>
      <point x="725" y="145" type="line"/>
      <point x="735" y="125"/>
      <point x="719" y="102"/>
      <point x="696" y="100" type="curve" smooth="yes"/>
      <point x="600" y="94" type="line"/>
      <point x="600" y="0" type="line"/>
    </contour>
  </outline>
</glyph>
<glyph name="LtnSmCapY" format="2">
  <advance width="1116"/>
  <unicode hex="028F"/>
  <anchor x="558" y="-100" name="L"/>
  <anchor x="1116" y="1000" name="R"/>
  <anchor x="558" y="1100" name="U"/>
  <outline>
    <contour>
      <point x="303" y="0" type="line"/>
      <point x="834" y="0" type="line"/>
      <point x="834" y="96" type="line"/>
      <point x="723" y="104" type="line" smooth="yes"/>
      <point x="707" y="104"/>
      <point x="698" y="115"/>
      <point x="698" y="125" type="curve" smooth="yes"/>
      <point x="698" y="430" type="line"/>
      <point x="995" y="891" type="line"/>
      <point x="1096" y="903" type="line"/>
      <point x="1096" y="999" type="line"/>
      <point x="711" y="999" type="line"/>
      <point x="711" y="903" type="line"/>
      <point x="821" y="897" type="line" smooth="yes"/>
      <point x="829" y="897"/>
      <point x="825" y="889"/>
      <point x="819" y="879" type="curve" smooth="yes"/>
      <point x="608" y="549" type="line"/>
      <point x="412" y="877" type="line" smooth="yes"/>
      <point x="406" y="887"/>
      <point x="403" y="895"/>
      <point x="410" y="895" type="curve" smooth="yes"/>
      <point x="508" y="903" type="line"/>
      <point x="508" y="999" type="line"/>
      <point x="20" y="999" type="line"/>
      <point x="20" y="903" type="line"/>
      <point x="129" y="891" type="line"/>
      <point x="440" y="389" type="line"/>
      <point x="440" y="125" type="line" smooth="yes"/>
      <point x="440" y="115"/>
      <point x="432" y="109"/>
      <point x="418" y="105" type="curve"/>
      <point x="303" y="96" type="line"/>
    </contour>
  </outline>
</glyph>
<glyph name="LtnSmZCurl" format="2">
  <advance width="1028"/>
  <unicode hex="0291"/>
  <anchor x="533" y="-500" name="L"/>
  <anchor x="533" y="1100" name="U"/>
  <outline>
    <contour>
      <point x="1026" y="203" type="curve" smooth="yes"/>
      <point x="1026" y="317"/>
      <point x="918" y="379"/>
      <point x="809" y="379" type="curve" smooth="yes"/>
      <point x="631" y="379"/>
      <point x="559" y="264"/>
      <point x="510" y="121" type="curve"/>
      <point x="375" y="121" type="line"/>
      <point x="911" y="885" type="line"/>
      <point x="911" y="999" type="line"/>
      <point x="82" y="999" type="line"/>
      <point x="82" y="682" type="line"/>
      <point x="227" y="682" type="line"/>
      <point x="242" y="840" type="line"/>
      <point x="242" y="858"/>
      <point x="260" y="883"/>
      <point x="281" y="883" type="curve" smooth="yes"/>
      <point x="590" y="883" type="line"/>
      <point x="66" y="133" type="line"/>
      <point x="66" y="0" type="line"/>
      <point x="475" y="0" type="line"/>
      <point x="461" y="-76"/>
      <point x="451" y="-152"/>
      <point x="444" y="-217" type="curve"/>
      <point x="580" y="-246" type="line"/>
      <point x="587" y="-186"/>
      <point x="600" y="-92"/>
      <point x="625" y="0" type="curve"/>
      <point x="729" y="0" type="line" smooth="yes"/>
      <point x="860" y="0"/>
      <point x="1026" y="12"/>
    </contour>
    <contour>
      <point x="856" y="207" type="curve" smooth="yes"/>
      <point x="856" y="168"/>
      <point x="850" y="121"/>
      <point x="711" y="121" type="curve" smooth="yes"/>
      <point x="666" y="121" type="line"/>
      <point x="700" y="199"/>
      <point x="731" y="258"/>
      <point x="809" y="258" type="curve" smooth="yes"/>
      <point x="834" y="258"/>
      <point x="856" y="229"/>
    </contour>
  </outline>
</glyph>
<glyph name="LtnSmEzhCurl" format="2">
  <advance width="1147"/>
  <unicode hex="0293"/>
  <anchor x="557" y="-500" name="L"/>
  <anchor x="557" y="1100" name="U"/>
  <outline>
    <contour>
      <point x="1081" y="49" type="curve" smooth="yes"/>
      <point x="1081" y="225"/>
      <point x="903" y="412"/>
      <point x="651" y="412" type="curve"/>
      <point x="1024" y="905" type="line"/>
      <point x="1024" y="999" type="line"/>
      <point x="111" y="999" type="line"/>
      <point x="111" y="541" type="line"/>
      <point x="256" y="541" type="line"/>
      <point x="270" y="723" type="line" smooth="yes"/>
      <point x="271" y="742"/>
      <point x="291" y="766"/>
      <point x="311" y="766" type="curve" smooth="yes"/>
      <point x="735" y="766" type="line"/>
      <point x="424" y="348" type="line"/>
      <point x="479" y="295" type="line"/>
      <point x="482" y="302"/>
      <point x="506" y="311"/>
      <point x="559" y="311" type="curve" smooth="yes"/>
      <point x="717" y="311"/>
      <point x="780" y="203"/>
      <point x="780" y="47" type="curve" smooth="yes"/>
      <point x="780" y="-53"/>
      <point x="756" y="-141"/>
      <point x="709" y="-205" type="curve"/>
      <point x="616" y="-86"/>
      <point x="506" y="18"/>
      <point x="297" y="18" type="curve" smooth="yes"/>
      <point x="162" y="18"/>
      <point x="33" y="-82"/>
      <point x="33" y="-217" type="curve" smooth="yes"/>
      <point x="33" y="-367"/>
      <point x="200" y="-471"/>
      <point x="426" y="-471" type="curve" smooth="yes"/>
      <point x="524" y="-471"/>
      <point x="606" y="-446"/>
      <point x="686" y="-420" type="curve"/>
      <point x="708" y="-452"/>
      <point x="728" y="-484"/>
      <point x="748" y="-514" type="curve"/>
      <point x="872" y="-444" type="line"/>
      <point x="854" y="-416"/>
      <point x="836" y="-389"/>
      <point x="817" y="-362" type="curve"/>
      <point x="969" y="-279"/>
      <point x="1081" y="-139"/>
    </contour>
    <contour>
      <point x="598" y="-293" type="curve"/>
      <point x="557" y="-312"/>
      <point x="510" y="-332"/>
      <point x="435" y="-332" type="curve" smooth="yes"/>
      <point x="318" y="-332"/>
      <point x="213" y="-279"/>
      <point x="213" y="-201" type="curve" smooth="yes"/>
      <point x="213" y="-160"/>
      <point x="248" y="-111"/>
      <point x="319" y="-111" type="curve" smooth="yes"/>
      <point x="444" y="-111"/>
      <point x="530" y="-207"/>
    </contour>
  </outline>
</glyph>
<glyph name="LtnInvGlottalStop" format="2">
  <advance width="983"/>
  <unicode hex="0296"/>
  <anchor x="491" y="-100" name="L"/>
  <anchor x="491" y="1540" name="U"/>
  <outline>
    <contour>
      <point x="907" y="365" type="curve" smooth="yes"/>
      <point x="907" y="623"/>
      <point x="703" y="761"/>
      <point x="549" y="793" type="curve"/>
      <point x="549" y="1212" type="line" smooth="yes"/>
      <point x="549" y="1239"/>
      <point x="567" y="1255"/>
      <point x="594" y="1257" type="curve" smooth="yes"/>
      <point x="725" y="1268" type="line"/>
      <point x="725" y="1374" type="line"/>
      <point x="98" y="1374" type="line"/>
      <point x="98" y="1268" type="line"/>
      <point x="229" y="1257" type="line" smooth="yes"/>
      <point x="256" y="1255"/>
      <point x="274" y="1239"/>
      <point x="274" y="1212" type="curve" smooth="yes"/>
      <point x="274" y="762" type="line"/>
      <point x="427" y="716"/>
      <point x="629" y="575"/>
      <point x="629" y="360" type="curve" smooth="yes"/>
      <point x="629" y="246"/>
      <point x="573" y="98"/>
      <point x="444" y="98" type="curve" smooth="yes"/>
      <point x="403" y="98"/>
      <point x="383" y="100"/>
      <point x="350" y="123" type="curve"/>
      <point x="279" y="297" type="line"/>
      <point x="261" y="304"/>
      <point x="223" y="313"/>
      <point x="188" y="313" type="curve" smooth="yes"/>
      <point x="143" y="313"/>
      <point x="76" y="293"/>
      <point x="76" y="207" type="curve" smooth="yes"/>
      <point x="76" y="29"/>
      <point x="276" y="-25"/>
      <point x="442" y="-25" type="curve" smooth="yes"/>
      <point x="709" y="-25"/>
      <point x="907" y="127"/>
    </contour>
  </outline>
</glyph>
<glyph name="LtnBilabialClick" format="2">
  <advance width="1589"/>
  <unicode hex="0298"/>
  <anchor x="794" y="-100" name="L"/>
  <anchor x="794" y="1500" name="U"/>
  <outline>
    <contour>
      <point x="1509" y="688" type="curve" smooth="yes"/>
      <point x="1509" y="1075"/>
      <point x="1198" y="1407"/>
      <point x="797" y="1407" type="curve" smooth="yes"/>
      <point x="399" y="1407"/>
      <point x="80" y="1081"/>
      <point x="80" y="686" type="curve" smooth="yes"/>
      <point x="80" y="291"/>
      <point x="399" y="-33"/>
      <point x="795" y="-33" type="curve" smooth="yes"/>
      <point x="1192" y="-33"/>
      <point x="1509" y="291"/>
    </contour>
    <contour>
      <point x="1294" y="686" type="curve" smooth="yes"/>
      <point x="1294" y="408"/>
      <point x="1071" y="182"/>
      <point x="795" y="182" type="curve" smooth="yes"/>
      <point x="520" y="182"/>
      <point x="295" y="408"/>
      <point x="295" y="686" type="curve" smooth="yes"/>
      <point x="295" y="965"/>
      <point x="518" y="1192"/>
      <point x="797" y="1192" type="curve" smooth="yes"/>
      <point x="1071" y="1192"/>
      <point x="1294" y="965"/>
    </contour>
    <contour>
      <point x="971" y="694" type="curve"/>
      <point x="971" y="797"/>
      <point x="889" y="868"/>
      <point x="795" y="868" type="curve" smooth="yes"/>
      <point x="698" y="868"/>
      <point x="621" y="793"/>
      <point x="621" y="694" type="curve" smooth="yes"/>
      <point x="621" y="598"/>
      <point x="694" y="512"/>
      <point x="795" y="512" type="curve" smooth="yes"/>
      <point x="893" y="512"/>
      <point x="971" y="594"/>
    </contour>
  </outline>
</glyph>
<glyph name="LtnSmJCrossedTail" format="2">
  <advance width="698"/>
  <unicode hex="029D"/>
  <anchor x="124" y="-500" name="L"/>
  <anchor x="381" y="-383" name="O"/>
  <anchor x="356" y="1500" name="U"/>
  <outline>
    <contour>
      <point x="547" y="-496" type="curve"/>
      <point x="639" y="-418" type="line"/>
      <point x="586" y="-362"/>
      <point x="526" y="-233"/>
      <point x="449" y="-172" type="curve"/>
      <point x="479" y="-88"/>
      <point x="494" y="6"/>
      <point x="494" y="102" type="curve" smooth="yes"/>
      <point x="494" y="1024" type="line"/>
      <point x="389" y="1024" type="line"/>
      <point x="76" y="922" type="line"/>
      <point x="76" y="838" type="line"/>
      <point x="221" y="838" type="line"/>
      <point x="221" y="-4" type="line"/>
      <point x="221" y="-22"/>
      <point x="221" y="-39"/>
      <point x="221" y="-57" type="curve"/>
      <point x="193" y="-51"/>
      <point x="162" y="-49"/>
      <point x="131" y="-49" type="curve" smooth="yes"/>
      <point x="-25" y="-49"/>
      <point x="-184" y="-123"/>
      <point x="-184" y="-279" type="curve" smooth="yes"/>
      <point x="-184" y="-373"/>
      <point x="-80" y="-473"/>
      <point x="37" y="-473" type="curve" smooth="yes"/>
      <point x="203" y="-473"/>
      <point x="319" y="-395"/>
      <point x="391" y="-285" type="curve"/>
      <point x="461" y="-354"/>
      <point x="510" y="-463"/>
    </contour>
    <contour>
      <point x="70" y="-348" type="curve" smooth="yes"/>
      <point x="8" y="-348"/>
      <point x="-43" y="-305"/>
      <point x="-43" y="-266" type="curve" smooth="yes"/>
      <point x="-43" y="-195"/>
      <point x="45" y="-152"/>
      <point x="131" y="-152" type="curve" smooth="yes"/>
      <point x="160" y="-152"/>
      <point x="188" y="-157"/>
      <point x="213" y="-170" type="curve"/>
      <point x="201" y="-248"/>
      <point x="166" y="-348"/>
    </contour>
    <contour>
      <point x="356" y="1198" type="curve" smooth="yes"/>
      <point x="444" y="1198"/>
      <point x="514" y="1270"/>
      <point x="514" y="1358" type="curve" smooth="yes"/>
      <point x="514" y="1446"/>
      <point x="444" y="1516"/>
      <point x="356" y="1516" type="curve" smooth="yes"/>
      <point x="268" y="1516"/>
      <point x="197" y="1446"/>
      <point x="197" y="1358" type="curve" smooth="yes"/>
      <point x="197" y="1270"/>
      <point x="268" y="1198"/>
    </contour>
  </outline>
</glyph>
<glyph name="LtnSmQHook" format="2">
  <advance width="1257"/>
  <unicode hex="02A0"/>
  <anchor x="349" y="-100" name="L"/>
  <anchor x="623" y="1100" name="U"/>
  <outline>
    <contour>
      <point x="618" y="-449" type="line"/>
      <point x="1180" y="-449" type="line"/>
      <point x="1180" y="-352" type="line"/>
      <point x="1096" y="-346" type="line"/>
      <point x="1071" y="-346"/>
      <point x="1051" y="-326"/>
      <point x="1051" y="-299" type="curve" smooth="yes"/>
      <point x="1051" y="933" type="line" smooth="yes"/>
      <point x="1051" y="1157"/>
      <point x="1054" y="1238"/>
      <point x="1136" y="1275" type="curve"/>
      <point x="1324" y="1060" type="line"/>
      <point x="1324" y="1060"/>
      <point x="1437" y="1121"/>
      <point x="1437" y="1217" type="curve" smooth="yes"/>
      <point x="1437" y="1357"/>
      <point x="1306" y="1390"/>
      <point x="1196" y="1390" type="curve" smooth="yes"/>
      <point x="936" y="1390"/>
      <point x="776" y="1229"/>
      <point x="776" y="1020" type="curve"/>
      <point x="749" y="1022"/>
      <point x="741" y="1024"/>
      <point x="727" y="1024" type="curve" smooth="yes"/>
      <point x="340" y="1024"/>
      <point x="66" y="856"/>
      <point x="66" y="469" type="curve" smooth="yes"/>
      <point x="66" y="205"/>
      <point x="221" y="-25"/>
      <point x="467" y="-25" type="curve" smooth="yes"/>
      <point x="588" y="-25"/>
      <point x="715" y="35"/>
      <point x="776" y="80" type="curve"/>
      <point x="776" y="-299" type="line" smooth="yes"/>
      <point x="776" y="-326"/>
      <point x="758" y="-346"/>
      <point x="731" y="-346" type="curve"/>
      <point x="618" y="-352" type="line"/>
    </contour>
    <contour>
      <point x="645" y="154" type="curve" smooth="yes"/>
      <point x="469" y="154"/>
      <point x="365" y="293"/>
      <point x="365" y="516" type="curve" smooth="yes"/>
      <point x="365" y="735"/>
      <point x="451" y="903"/>
      <point x="694" y="903" type="curve" smooth="yes"/>
      <point x="728" y="903"/>
      <point x="761" y="898"/>
      <point x="776" y="895" type="curve"/>
      <point x="776" y="162" type="line"/>
      <point x="745" y="159"/>
      <point x="689" y="154"/>
    </contour>
  </outline>
</glyph>
<glyph name="LtnGlottalStopStrk" format="2">
  <advance width="983"/>
  <unicode hex="02A1"/>
  <anchor x="485" y="-100" name="L"/>
  <anchor x="485" y="1540" name="U"/>
  <outline>
    <contour>
      <point x="907" y="1018" type="curve" smooth="yes"/>
      <point x="907" y="1255"/>
      <point x="709" y="1407"/>
      <point x="442" y="1407" type="curve" smooth="yes"/>
      <point x="276" y="1407"/>
      <point x="76" y="1356"/>
      <point x="76" y="1178" type="curve" smooth="yes"/>
      <point x="76" y="1090"/>
      <point x="143" y="1069"/>
      <point x="188" y="1069" type="curve" smooth="yes"/>
      <point x="218" y="1069"/>
      <point x="249" y="1071"/>
      <point x="279" y="1087" type="curve"/>
      <point x="350" y="1262" type="line"/>
      <point x="383" y="1282"/>
      <point x="403" y="1284"/>
      <point x="444" y="1284" type="curve" smooth="yes"/>
      <point x="573" y="1284"/>
      <point x="629" y="1137"/>
      <point x="629" y="1022" type="curve" smooth="yes"/>
      <point x="629" y="875"/>
      <point x="527" y="710"/>
      <point x="274" y="621" type="curve"/>
      <point x="274" y="520" type="line"/>
      <point x="63" y="520" type="line"/>
      <point x="63" y="391" type="line"/>
      <point x="274" y="391" type="line"/>
      <point x="274" y="162" type="line" smooth="yes"/>
      <point x="274" y="135"/>
      <point x="256" y="119"/>
      <point x="229" y="117" type="curve" smooth="yes"/>
      <point x="98" y="106" type="line"/>
      <point x="98" y="0" type="line"/>
      <point x="725" y="0" type="line"/>
      <point x="725" y="106" type="line"/>
      <point x="594" y="117" type="line" smooth="yes"/>
      <point x="567" y="119"/>
      <point x="549" y="135"/>
      <point x="549" y="162" type="curve" smooth="yes"/>
      <point x="549" y="391" type="line"/>
      <point x="762" y="391" type="line"/>
      <point x="762" y="520" type="line"/>
      <point x="549" y="520" type="line"/>
      <point x="549" y="590" type="line"/>
      <point x="803" y="666"/>
      <point x="907" y="832"/>
    </contour>
  </outline>
</glyph>
